{"glyphs":{"0":{"ha":627,"x_min":0,"x_max":529,"o":"m 15 856 q 54 992 25 924 q 90 989 71 990 q 127 988 108 988 q 102 855 112 928 q 58 856 79 855 q 15 856 37 856 m 12 841 q 56 839 35 839 q 100 839 77 839 q 95 771 96 804 q 93 704 93 737 l 0 704 q 12 841 2 770 m 12 550 q 10 559 12 557 q 3 623 6 590 q 0 689 0 656 l 93 689 q 95 620 93 654 q 102 554 96 586 q 57 551 79 552 q 12 550 35 550 m 52 399 q 15 534 25 475 q 58 535 37 534 q 102 538 79 536 q 127 403 110 463 q 52 399 102 403 m 220 390 q 230 323 224 357 q 245 258 235 289 q 222 258 233 258 q 199 257 210 257 q 169 319 181 285 q 147 388 156 353 q 220 390 172 390 m 237 390 q 311 392 262 392 l 311 258 q 286 258 299 258 q 262 258 274 258 q 237 390 247 314 m 376 258 q 350 258 363 258 q 326 258 338 258 l 326 392 q 363 392 343 392 q 401 392 382 392 q 376 258 390 313 m 419 407 q 430 538 426 473 q 475 538 453 538 q 519 538 496 538 q 496 405 509 463 q 457 406 476 405 q 419 407 438 407 m 432 556 q 434 621 432 588 q 436 689 436 654 l 529 689 q 521 554 529 610 q 476 555 498 554 q 432 556 453 556 m 436 704 q 434 770 436 737 q 432 837 432 802 q 476 837 453 837 q 521 839 498 837 q 529 704 529 779 l 436 704 m 419 986 q 456 986 436 986 q 496 988 476 986 q 519 855 509 920 q 475 853 496 853 q 430 853 453 853 q 419 986 426 918 m 401 1001 q 363 1000 382 1001 q 326 999 343 999 l 326 1132 q 376 1134 359 1132 q 401 1001 392 1074 m 237 1001 q 262 1132 247 1074 q 286 1132 274 1132 q 311 1132 299 1132 l 311 999 q 273 1000 291 999 q 237 1001 255 1001 m 220 1001 q 147 1003 172 1001 q 199 1134 166 1074 q 222 1134 210 1134 q 245 1134 233 1134 q 231 1067 235 1100 q 220 1003 226 1034 q 220 1001 220 1001 q 220 1001 220 1001 z "},"1":{"ha":328,"x_min":0,"x_max":206,"o":"m 79 399 q 56 466 66 432 q 41 534 46 500 q 84 535 62 534 q 129 538 106 536 q 138 470 131 503 q 152 403 145 436 q 115 401 133 403 q 79 399 96 399 m 39 550 q 37 559 37 554 q 25 689 27 621 l 120 689 q 122 620 120 654 q 127 554 123 586 q 82 551 104 552 q 39 550 60 550 m 39 841 q 82 839 60 839 q 127 839 104 839 q 120 704 120 779 l 25 704 q 39 841 27 777 m 41 856 q 79 992 56 939 q 116 989 96 990 q 152 988 135 988 q 138 920 145 953 q 129 855 131 887 q 84 856 106 855 q 41 856 62 856 m 85 1007 q 120 1075 100 1042 q 164 1138 139 1109 q 206 1136 177 1136 q 158 1003 170 1065 q 121 1004 139 1003 q 85 1007 102 1005 m 0 1013 q 104 1142 46 1092 q 123 1139 114 1140 q 145 1138 133 1138 q 69 1009 102 1088 q 0 1013 46 1009 z "},"2":{"ha":502,"x_min":0,"x_max":399,"o":"m 322 407 q 315 470 318 438 q 313 534 313 502 q 312 536 313 534 q 311 540 311 538 q 355 540 334 540 q 399 540 376 540 l 399 407 q 361 407 380 407 q 322 407 341 407 m 307 407 q 231 405 282 405 q 206 538 216 459 q 251 538 230 538 q 295 538 272 538 q 299 474 297 505 q 307 411 301 442 q 307 408 307 409 q 307 407 307 407 m 141 399 q 104 534 114 475 q 147 535 125 534 q 191 538 168 536 q 216 403 199 463 q 141 399 191 403 m 54 394 q 0 530 21 453 q 42 532 21 530 q 87 534 64 534 q 125 399 102 455 q 54 394 100 397 m 100 550 q 98 559 100 557 q 92 623 95 590 q 89 689 89 656 l 181 689 q 183 620 181 654 q 191 554 185 586 q 146 551 168 552 q 100 550 123 550 m 295 837 q 291 770 291 802 q 291 704 291 737 l 199 704 q 204 839 199 770 q 250 837 228 837 q 295 837 272 837 m 324 986 q 399 984 349 984 l 399 853 q 355 853 376 853 q 311 853 334 853 q 315 918 313 885 q 324 986 318 951 m 309 1001 q 235 1003 260 1001 q 287 1134 255 1074 q 311 1134 299 1134 q 334 1134 322 1134 q 319 1067 324 1100 q 309 1003 314 1034 q 309 1001 309 1001 q 309 1001 309 1001 m 149 1007 q 226 1138 181 1086 q 270 1136 241 1136 q 220 1003 237 1078 q 184 1004 203 1003 q 149 1007 166 1005 m 0 860 q 22 931 10 895 q 54 997 35 966 q 125 993 100 993 q 89 858 98 916 q 43 859 66 858 q 0 860 21 860 z "},"3":{"ha":511,"x_min":0,"x_max":411,"o":"m 100 986 q 89 853 91 918 q 43 853 66 853 q 0 855 21 853 q 25 988 10 928 q 62 987 42 988 q 100 986 81 986 m 118 1001 q 143 1132 127 1074 q 167 1132 154 1132 q 193 1132 179 1132 l 193 999 q 154 1000 174 999 q 118 1001 135 1001 m 284 1001 q 245 1000 264 1001 q 208 999 226 999 l 208 1132 q 257 1134 241 1132 q 271 1067 264 1100 q 284 1001 278 1034 m 301 986 q 376 988 351 986 q 401 855 392 928 q 356 853 378 853 q 313 853 334 853 q 307 918 311 885 q 301 986 303 951 m 301 704 l 208 704 l 208 837 q 252 837 230 837 q 297 837 274 837 q 299 770 297 802 q 301 704 301 737 m 100 407 q 25 405 75 405 q 0 538 10 459 q 43 538 21 538 q 89 538 66 538 q 92 474 89 505 q 98 411 95 442 q 100 407 100 409 m 118 390 q 193 392 143 392 l 193 258 q 167 258 179 258 q 143 258 154 258 q 118 390 127 314 m 257 258 q 232 258 245 258 q 208 258 220 258 l 208 392 q 245 392 226 392 q 284 392 264 392 q 257 258 274 326 m 301 407 q 313 538 309 473 q 356 538 334 538 q 401 538 378 538 q 376 405 390 459 q 338 406 357 405 q 301 407 318 407 m 314 556 q 315 621 314 588 q 316 689 316 654 l 411 689 q 408 619 409 654 q 403 554 407 584 q 358 555 380 554 q 314 556 336 556 z "},"4":{"ha":419,"x_min":0,"x_max":311,"o":"m 12 841 q 56 839 35 839 q 100 839 77 839 q 95 771 96 804 q 93 704 93 737 l 0 704 q 12 841 2 770 m 233 407 q 227 470 230 438 q 224 534 224 502 q 223 536 224 534 q 222 540 222 538 q 266 540 245 540 q 311 540 287 540 l 311 407 q 272 407 291 407 q 233 407 253 407 m 218 689 l 311 689 l 311 556 q 265 556 287 556 q 222 556 243 556 q 219 621 220 588 q 218 689 218 654 m 237 1001 q 262 1132 247 1074 q 286 1132 274 1132 q 311 1132 299 1132 l 311 999 q 273 1000 291 999 q 237 1001 255 1001 m 235 986 q 311 984 260 984 l 311 853 q 266 853 287 853 q 222 853 245 853 q 227 918 224 885 q 235 986 230 951 m 222 837 q 265 837 243 837 q 311 837 287 837 l 311 704 l 218 704 q 219 770 218 737 q 222 837 220 802 m 206 837 q 203 770 203 802 q 203 704 203 737 l 110 704 q 116 839 110 770 q 161 837 139 837 q 206 837 183 837 m 15 856 q 54 992 25 924 q 90 989 71 990 q 127 988 108 988 q 102 855 112 928 q 58 856 79 855 q 15 856 37 856 m 60 1007 q 137 1138 93 1086 q 181 1136 152 1136 q 131 1003 149 1078 q 95 1004 114 1003 q 60 1007 77 1005 z "},"5":{"ha":419,"x_min":0,"x_max":311,"o":"m 4 837 q 47 837 25 837 q 93 837 69 837 l 93 704 l 0 704 q 1 770 0 737 q 4 837 2 802 m 15 407 q 9 470 12 438 q 4 534 6 502 q 4 536 4 534 q 4 540 4 538 q 48 540 27 540 q 93 540 69 540 l 93 407 q 54 407 73 407 q 15 407 35 407 m 197 538 q 185 407 193 473 q 147 407 166 407 q 108 407 127 407 l 108 540 q 151 539 129 540 q 197 538 174 538 m 214 556 q 216 621 214 588 q 218 689 218 654 l 311 689 q 303 554 311 610 q 258 555 280 554 q 214 556 235 556 m 201 704 l 108 704 l 108 837 q 152 837 131 837 q 197 837 174 837 q 200 770 199 802 q 201 704 201 737 m 15 986 q 93 984 42 984 l 93 853 q 48 853 69 853 q 4 853 27 853 q 9 918 6 885 q 15 986 12 951 m 199 1001 q 174 1134 189 1074 q 198 1134 185 1134 q 222 1134 210 1134 q 272 1003 255 1071 q 235 1002 255 1003 q 199 1001 216 1001 m 183 1001 q 145 1000 164 1001 q 108 999 125 999 l 108 1132 q 158 1134 141 1132 q 183 1001 174 1074 m 19 1001 q 44 1132 29 1074 q 68 1132 56 1132 q 93 1132 81 1132 l 93 999 q 55 1000 73 999 q 19 1001 37 1001 z "},"6":{"ha":419,"x_min":0,"x_max":311,"o":"m 206 837 q 203 770 203 802 q 203 704 203 737 l 110 704 q 116 839 110 770 q 161 837 139 837 q 206 837 183 837 m 222 837 q 265 837 243 837 q 311 837 287 837 l 311 704 l 218 704 q 219 770 218 737 q 222 837 220 802 m 218 689 l 311 689 l 311 556 q 265 556 287 556 q 222 556 243 556 q 219 621 220 588 q 218 689 218 654 m 233 407 q 227 470 230 438 q 224 534 224 502 q 223 536 224 534 q 222 540 222 538 q 266 540 245 540 q 311 540 287 540 l 311 407 q 272 407 291 407 q 233 407 253 407 m 218 407 q 143 405 193 405 q 118 538 127 459 q 162 538 141 538 q 206 538 183 538 q 210 474 208 505 q 218 411 212 442 q 218 408 218 409 q 218 407 218 407 m 52 399 q 15 534 25 475 q 58 535 37 534 q 102 538 79 536 q 127 403 110 463 q 52 399 102 403 m 12 550 q 10 559 12 557 q 3 623 6 590 q 0 689 0 656 l 93 689 q 95 620 93 654 q 102 554 96 586 q 57 551 79 552 q 12 550 35 550 m 12 841 q 56 839 35 839 q 100 839 77 839 q 95 771 96 804 q 93 704 93 737 l 0 704 q 12 841 2 770 m 15 856 q 54 992 25 924 q 90 989 71 990 q 127 988 108 988 q 102 855 112 928 q 58 856 79 855 q 15 856 37 856 m 237 1001 q 262 1132 247 1074 q 286 1132 274 1132 q 311 1132 299 1132 l 311 999 q 273 1000 291 999 q 237 1001 255 1001 m 220 1001 q 147 1003 172 1001 q 199 1134 166 1074 q 222 1134 210 1134 q 245 1134 233 1134 q 231 1067 235 1100 q 220 1003 226 1034 q 220 1001 220 1001 q 220 1001 220 1001 z "},"7":{"ha":476,"x_min":0,"x_max":372,"o":"m 87 407 q 80 470 83 438 q 75 534 77 502 q 75 536 75 534 q 75 540 75 538 q 120 540 98 540 q 164 540 141 540 l 164 407 q 124 407 145 407 q 87 407 104 407 m 71 689 l 164 689 l 164 556 q 119 556 141 556 q 75 556 96 556 q 72 621 73 588 q 71 689 71 654 m 272 704 l 179 704 l 179 837 q 224 837 203 837 q 268 837 245 837 q 270 770 268 802 q 272 704 272 737 m 272 986 q 347 988 322 986 q 372 855 363 928 q 327 853 349 853 q 284 853 305 853 q 272 986 280 918 m 270 1001 q 245 1134 260 1074 q 268 1134 257 1134 q 293 1134 280 1134 q 343 1003 326 1071 q 307 1002 326 1003 q 270 1001 287 1001 m 255 1001 q 216 1000 235 1001 q 179 999 197 999 l 179 1132 q 228 1134 212 1132 q 255 1001 247 1059 m 89 1001 q 99 1067 95 1034 q 114 1132 104 1100 q 139 1132 125 1132 q 164 1132 152 1132 l 164 999 q 125 1000 145 999 q 89 1001 106 1001 m 73 1001 q 0 1003 25 1001 q 52 1134 23 1084 q 75 1134 64 1134 q 98 1134 87 1134 q 73 1003 83 1076 q 73 1001 73 1001 q 73 1001 73 1001 z "},"8":{"ha":469,"x_min":0,"x_max":353,"o":"m 326 407 q 288 405 309 405 q 251 405 268 405 q 236 470 243 436 q 228 538 230 503 q 270 538 249 538 q 314 538 291 538 q 319 474 316 505 q 326 411 322 442 q 326 408 326 409 q 326 407 326 407 m 311 689 q 312 621 311 654 q 314 556 313 588 q 269 555 291 556 q 226 554 247 554 q 218 689 218 611 l 311 689 m 122 841 q 164 839 143 839 q 208 839 185 839 q 203 704 203 772 l 108 704 q 122 841 110 777 m 21 860 q 41 931 29 895 q 73 997 54 966 q 145 993 120 993 q 108 858 118 916 q 64 859 85 858 q 21 860 42 860 m 326 986 q 319 918 322 951 q 314 853 316 885 q 270 853 291 853 q 228 855 249 853 q 236 920 230 887 q 251 988 243 953 q 288 987 268 988 q 326 986 309 986 m 328 1001 q 255 1003 280 1001 q 307 1134 274 1074 q 330 1134 318 1134 q 353 1134 341 1134 q 330 1003 338 1069 q 328 1001 330 1001 m 168 1007 q 245 1138 201 1086 q 289 1136 260 1136 q 239 1003 255 1069 q 204 1004 222 1003 q 168 1007 185 1005 m 83 1013 q 187 1142 129 1092 q 206 1139 197 1140 q 226 1138 216 1138 q 184 1076 203 1109 q 150 1009 166 1044 q 83 1013 129 1009 m 162 399 q 139 466 149 432 q 123 534 129 500 q 167 535 145 534 q 212 538 189 536 q 235 403 216 469 q 162 399 208 403 m 73 394 q 19 530 41 453 q 63 532 41 530 q 108 534 85 534 q 145 399 116 476 q 109 395 127 397 q 73 394 91 394 m 15 546 q 5 616 10 581 q 0 689 0 652 l 93 689 q 104 550 95 619 q 60 548 81 550 q 15 546 39 546 z "},"9":{"ha":419,"x_min":0,"x_max":311,"o":"m 110 689 l 203 689 l 203 556 q 157 556 179 556 q 112 556 135 556 q 110 621 110 588 q 110 689 110 654 m 93 689 q 94 621 93 654 q 96 556 95 588 q 51 555 73 556 q 8 554 29 554 q 2 620 4 586 q 0 689 0 654 l 93 689 m 96 837 q 94 770 95 802 q 93 704 93 737 l 0 704 q 2 771 0 737 q 8 839 4 804 q 51 837 29 837 q 96 837 73 837 m 110 986 q 98 853 100 918 q 53 853 75 853 q 10 855 31 853 q 33 988 17 920 q 70 987 50 988 q 110 986 91 986 m 125 986 q 163 984 143 984 q 203 984 183 984 l 203 853 q 157 853 179 853 q 114 853 135 853 q 125 986 116 918 m 295 986 q 300 918 297 951 q 307 853 303 885 q 261 853 284 853 q 218 853 239 853 l 218 984 q 295 986 268 984 m 311 704 l 218 704 l 218 837 q 261 837 239 837 q 307 837 284 837 q 309 770 307 802 q 311 704 311 737 m 307 556 q 261 556 284 556 q 218 556 239 556 l 218 689 l 311 689 q 309 621 311 654 q 307 556 307 588 m 307 538 q 300 473 303 505 q 295 407 297 440 q 255 407 274 407 q 218 407 235 407 l 218 540 q 261 539 239 540 q 307 538 284 538 m 266 258 q 242 258 255 258 q 218 258 230 258 l 218 392 q 255 392 235 392 q 291 392 274 392 q 266 258 280 313 z "}," ":{"ha":694,"x_min":0,"x_max":0,"o":""},"‘":{"ha":1165,"x_min":-8,"x_max":1111,"o":"m 586 1250 q 696 1233 639 1244 q 866 1155 791 1204 q 984 1047 928 1111 q 1044 959 1017 1005 q 1100 806 1084 876 q 1111 666 1111 737 q 1094 556 1105 610 q 1080 515 1088 534 q 1067 478 1073 496 q 845 220 995 318 q 721 164 785 185 q 557 139 642 141 q 502 142 529 139 q 448 150 475 145 q 272 220 345 174 q 100 384 164 289 q 79 419 89 401 q 60 453 69 436 q 31 529 42 490 q 17 806 -8 664 q 131 1047 48 938 q 167 1086 149 1067 q 206 1123 185 1105 q 295 1182 247 1155 q 395 1224 347 1209 q 502 1248 444 1238 q 543 1249 523 1248 q 586 1250 563 1250 m 802 1157 q 829 1159 812 1159 q 737 1204 785 1184 q 802 1157 768 1184 m 930 999 q 982 862 965 928 q 1022 863 1001 862 q 1067 866 1044 864 q 997 1005 1046 932 q 930 999 951 1001 m 1001 689 q 986 546 1001 619 q 1028 542 1007 544 q 1073 540 1049 540 q 1094 689 1094 615 l 1001 689 m 922 378 q 904 349 912 363 q 887 322 895 336 q 855 285 870 303 q 822 249 839 266 q 836 248 828 249 q 853 247 845 247 q 986 372 928 295 q 953 374 968 372 q 922 378 938 376 m 313 233 q 285 231 293 233 q 380 187 330 204 q 313 233 341 208 m 187 394 q 135 530 150 461 q 91 527 112 529 q 48 525 69 525 q 120 386 75 449 q 187 394 141 390 m 114 704 q 131 847 116 774 q 87 848 108 847 q 44 851 66 849 q 21 704 21 768 l 114 704 m 195 1015 q 291 1140 228 1076 q 297 1144 293 1140 q 279 1145 287 1144 q 264 1146 270 1146 q 197 1094 239 1128 q 162 1058 179 1076 q 129 1020 145 1040 q 195 1015 152 1019 m 799 1142 q 777 1139 787 1140 q 760 1138 768 1138 q 801 1076 783 1109 q 835 1009 818 1044 q 868 1010 851 1009 q 903 1013 885 1011 q 855 1081 882 1049 q 799 1142 828 1113 m 968 845 q 924 842 945 843 q 880 841 903 841 q 891 704 891 772 l 986 704 q 980 774 986 739 q 968 845 974 810 m 965 530 q 920 532 941 530 q 878 534 899 534 q 845 409 864 463 q 842 403 843 405 q 841 399 841 401 q 877 395 858 397 q 912 394 895 394 q 942 460 928 424 q 965 530 957 496 m 781 235 q 762 236 775 235 q 747 237 748 237 q 681 179 714 201 q 682 179 681 179 q 685 179 683 179 q 781 235 737 203 m 318 251 q 336 252 326 251 q 357 253 345 253 q 282 384 314 305 q 247 380 264 382 q 212 378 230 378 q 318 251 251 309 m 147 546 q 190 548 168 546 q 235 550 212 550 q 227 619 230 584 q 224 689 224 654 l 131 689 q 147 546 131 619 m 150 860 q 194 858 172 860 q 239 856 216 856 q 276 993 251 932 q 204 997 251 993 q 173 931 185 966 q 150 860 160 895 m 338 1155 q 370 1154 359 1155 q 436 1211 397 1190 l 432 1211 q 338 1155 376 1186 m 635 1219 q 689 1152 662 1192 q 725 1154 714 1152 q 637 1219 685 1194 q 636 1219 637 1219 q 635 1219 635 1219 m 824 992 q 786 989 804 990 q 750 988 768 988 q 774 855 768 920 q 818 856 797 855 q 862 856 839 856 q 824 992 845 934 m 864 552 q 878 689 874 610 l 783 689 q 777 554 783 619 q 820 552 799 552 q 864 552 841 552 m 818 386 q 782 387 801 386 q 747 388 764 388 q 696 257 729 322 q 719 256 708 257 q 741 255 729 255 q 818 386 789 316 m 482 172 q 428 241 451 199 q 390 239 415 239 q 482 172 430 193 m 291 399 q 367 403 341 403 q 341 538 349 463 q 297 535 318 536 q 255 534 276 534 q 291 399 264 475 m 251 841 q 239 704 241 770 l 332 704 q 340 839 332 779 q 295 839 316 839 q 251 841 274 839 m 299 1007 q 370 1003 324 1007 q 421 1136 388 1078 q 376 1138 392 1136 q 299 1007 332 1086 m 656 1001 q 693 1002 673 1001 q 731 1003 712 1003 q 679 1134 708 1078 q 655 1134 667 1134 q 631 1134 642 1134 q 656 1001 646 1074 m 675 704 l 768 704 q 760 839 768 779 q 715 837 737 837 q 671 837 693 837 q 673 770 671 802 q 675 704 675 737 m 658 407 q 696 406 677 407 q 735 405 716 405 q 758 538 748 463 q 714 538 735 538 q 671 538 693 538 q 665 473 667 505 q 658 407 662 440 m 627 243 q 613 203 621 224 q 594 166 606 181 q 637 198 619 177 q 669 241 654 218 q 627 243 642 241 m 459 390 q 386 388 411 390 q 408 319 395 353 q 438 257 421 285 q 461 258 449 257 q 484 258 473 258 q 459 390 469 314 m 442 689 l 349 689 q 357 554 349 611 q 400 555 378 554 q 446 556 422 556 q 442 621 442 588 q 442 689 442 654 m 457 986 q 419 987 438 986 q 382 988 399 988 q 357 855 367 928 q 400 853 378 853 q 446 853 422 853 q 449 918 446 885 q 457 986 453 951 m 490 1150 q 521 1227 500 1196 q 446 1150 480 1206 q 468 1150 457 1150 q 490 1150 478 1150 m 565 1233 l 565 1148 q 611 1150 581 1150 q 593 1195 604 1169 q 565 1233 583 1221 m 642 986 q 565 984 617 984 l 565 853 q 610 853 588 853 q 654 853 631 853 q 642 986 650 918 m 656 556 q 657 621 656 588 q 660 689 658 654 l 565 689 l 565 556 q 611 556 588 556 q 656 556 633 556 m 615 258 q 640 392 631 314 q 602 392 621 392 q 565 392 583 392 l 565 258 q 589 258 577 258 q 615 258 602 258 m 559 156 q 557 156 561 156 q 554 156 552 156 q 556 156 554 156 q 559 156 557 156 m 550 158 l 550 243 q 528 243 538 243 q 505 243 517 243 q 522 196 511 222 q 550 158 532 170 m 473 407 q 511 407 492 407 q 550 407 530 407 l 550 540 q 505 540 527 540 q 461 540 484 540 q 462 536 461 538 q 463 534 463 534 q 466 470 463 502 q 473 407 469 438 m 461 837 q 458 770 459 802 q 457 704 457 737 l 550 704 l 550 837 q 504 837 527 837 q 461 837 482 837 m 476 1001 q 512 1001 494 1001 q 550 1001 530 1001 l 550 1132 q 526 1132 538 1132 q 502 1132 513 1132 q 476 1001 486 1074 z "},"B":{"ha":1165,"x_min":-8,"x_max":1111,"o":"m 586 1250 q 696 1233 639 1244 q 866 1155 783 1206 q 984 1047 928 1111 q 1044 959 1017 1005 q 1100 806 1084 876 q 1111 666 1111 737 q 1094 556 1105 610 q 1067 478 1078 505 q 845 220 995 318 q 721 164 785 185 q 557 139 642 141 q 502 142 529 139 q 448 150 475 145 q 272 220 355 170 q 100 384 164 289 q 79 419 89 401 q 60 453 69 436 q 31 530 41 492 q 17 806 -8 664 q 131 1047 48 938 q 167 1086 149 1067 q 206 1123 185 1105 q 295 1182 247 1155 q 502 1246 394 1231 q 543 1249 523 1248 q 586 1250 563 1250 m 505 1150 q 550 1148 521 1148 l 550 1233 q 533 1215 540 1227 q 523 1196 527 1204 q 513 1173 517 1184 q 505 1150 509 1161 m 476 1001 q 512 1000 494 1001 q 550 999 530 999 l 550 1132 q 526 1132 538 1132 q 502 1132 513 1132 q 476 1001 486 1074 m 461 837 q 458 770 459 802 q 457 704 457 737 l 550 704 l 550 837 q 504 837 527 837 q 461 837 482 837 m 473 407 q 511 407 492 407 q 550 407 530 407 l 550 540 q 505 540 527 540 q 461 540 484 540 q 462 536 461 538 q 463 534 463 534 q 466 470 463 502 q 473 407 469 438 m 550 158 l 550 243 q 528 243 538 243 q 505 243 517 243 q 522 195 511 222 q 550 158 532 168 m 559 156 q 557 156 561 156 q 554 156 552 156 q 556 156 554 156 q 559 156 557 156 m 610 243 q 587 243 598 243 q 565 243 577 243 l 565 158 q 593 196 583 168 q 610 243 604 224 m 654 538 q 610 539 631 538 q 565 540 588 540 l 565 407 q 604 407 584 407 q 642 407 623 407 q 654 538 650 473 m 658 704 q 657 770 658 737 q 654 837 656 802 q 610 837 631 837 q 565 837 588 837 l 565 704 l 658 704 m 640 1001 q 615 1134 631 1074 q 565 1132 598 1132 l 565 999 q 602 1000 583 999 q 640 1001 621 1001 m 565 1233 l 565 1148 q 610 1150 596 1148 q 593 1195 604 1169 q 565 1233 583 1221 m 490 1150 q 521 1225 500 1196 q 478 1193 498 1213 q 446 1150 459 1173 q 468 1150 457 1150 q 490 1150 478 1150 m 459 1001 q 459 1001 459 1001 q 459 1003 459 1001 q 470 1067 465 1034 q 484 1134 475 1100 q 461 1134 473 1134 q 438 1134 449 1134 q 386 1003 409 1084 q 459 1001 411 1001 m 521 166 q 502 203 509 181 q 488 243 494 224 q 446 241 475 241 q 521 166 480 183 m 627 243 q 613 203 621 224 q 596 166 606 181 q 637 198 619 177 q 669 241 654 218 q 627 243 642 241 m 671 556 q 715 555 693 556 q 760 554 737 554 q 768 689 768 610 l 675 689 q 673 621 675 654 q 671 556 671 588 m 658 986 q 669 853 666 918 q 714 853 693 853 q 758 855 735 853 q 735 988 748 920 q 695 986 716 986 q 658 986 675 986 m 656 1001 q 693 1002 673 1001 q 731 1003 712 1003 q 679 1134 710 1074 q 655 1134 667 1134 q 631 1134 642 1134 q 656 1001 646 1074 m 390 1154 q 428 1152 403 1152 q 452 1186 440 1169 q 482 1219 465 1204 q 390 1154 434 1198 m 299 1007 q 335 1004 316 1005 q 370 1003 353 1003 q 421 1136 388 1078 q 376 1138 392 1136 q 299 1007 332 1086 m 255 856 q 297 856 276 856 q 341 855 318 855 q 367 988 351 928 q 329 989 347 988 q 293 992 311 990 q 255 856 266 936 m 251 841 q 239 704 241 770 l 332 704 q 334 771 332 737 q 340 839 336 804 q 295 839 316 839 q 251 841 274 839 m 251 550 q 296 551 274 550 q 341 554 318 552 q 334 620 336 586 q 332 689 332 654 l 239 689 q 242 623 239 656 q 249 559 245 590 q 251 550 251 557 m 291 399 q 367 403 341 403 q 341 538 349 463 q 297 535 318 536 q 255 534 276 534 q 291 399 266 459 m 376 255 q 421 257 405 255 q 370 388 390 313 q 335 385 353 386 q 299 384 316 384 q 376 255 330 307 m 482 172 q 428 241 451 199 q 407 240 417 241 q 390 239 397 239 q 482 172 430 193 m 727 239 q 707 240 716 239 q 689 241 698 241 q 688 238 689 239 q 687 237 687 237 q 663 203 675 220 q 635 172 650 185 q 721 233 675 191 q 723 235 721 233 q 727 239 725 237 m 818 386 q 782 387 801 386 q 747 388 764 388 q 696 257 729 322 q 719 256 708 257 q 741 255 729 255 q 818 386 789 316 m 862 534 q 818 535 839 534 q 775 538 797 536 q 750 403 766 463 q 787 402 768 403 q 824 401 806 401 q 845 466 835 432 q 862 534 855 500 q 862 534 862 534 q 862 534 862 534 m 864 552 q 878 689 874 610 l 783 689 q 777 554 783 619 q 820 552 799 552 q 864 552 841 552 m 878 704 q 864 841 874 777 q 820 839 841 839 q 775 839 799 839 q 783 704 783 779 l 878 704 m 824 992 q 786 989 804 990 q 750 988 768 988 q 774 855 768 920 q 818 856 797 855 q 862 856 839 856 q 824 992 845 934 m 741 1138 q 696 1136 725 1136 q 747 1003 729 1069 q 781 1004 764 1003 q 818 1007 799 1005 q 741 1138 785 1076 m 635 1219 q 689 1152 662 1192 q 725 1154 714 1152 q 637 1219 691 1192 q 635 1219 635 1219 q 635 1219 635 1219 m 338 1155 q 370 1154 359 1155 q 436 1211 397 1190 l 432 1211 q 338 1155 376 1186 m 214 1013 q 282 1009 257 1009 q 357 1138 311 1082 q 337 1139 345 1138 q 318 1142 328 1140 q 259 1081 285 1115 q 214 1013 233 1047 m 150 860 q 194 859 172 860 q 239 858 216 858 q 276 993 251 932 q 204 997 251 993 q 173 931 185 966 q 150 860 160 895 m 131 704 l 224 704 q 235 841 224 774 q 191 842 212 841 q 147 845 170 843 q 131 704 131 770 m 147 546 q 190 548 168 546 q 235 550 212 550 q 227 619 230 584 q 224 689 224 654 l 131 689 q 147 546 131 619 m 204 394 q 276 399 251 397 q 237 534 253 455 q 193 532 214 534 q 150 530 172 530 q 204 394 172 453 m 318 251 q 336 252 326 251 q 357 253 345 253 q 282 384 314 305 q 247 380 264 382 q 212 378 230 378 q 318 251 251 309 m 434 179 q 429 181 432 179 q 426 185 426 183 q 368 237 386 216 q 336 235 347 237 q 337 234 336 235 q 338 233 338 233 q 383 202 359 216 q 434 179 407 187 m 781 235 q 762 236 775 235 q 747 237 748 237 q 681 179 714 201 q 682 179 681 179 q 685 179 683 179 q 781 235 737 203 m 903 378 q 835 384 882 380 q 760 253 801 307 q 778 252 770 253 q 799 251 787 251 q 856 310 831 276 q 903 378 882 343 m 965 530 q 920 532 941 530 q 878 534 899 534 q 845 409 866 475 q 842 403 843 405 q 841 399 841 401 q 877 395 858 397 q 912 394 895 394 q 965 530 949 463 m 986 689 l 891 689 q 882 550 891 627 q 924 548 903 550 q 968 546 945 546 q 977 592 974 569 q 984 640 980 615 q 985 664 984 652 q 986 689 986 675 m 968 845 q 924 842 945 843 q 882 841 903 841 q 891 704 891 764 l 986 704 q 980 774 986 739 q 968 845 974 810 m 912 997 q 841 993 862 993 q 878 858 868 914 q 920 859 899 858 q 965 860 941 860 q 912 997 941 939 m 799 1142 q 777 1139 787 1140 q 760 1138 768 1138 q 801 1076 783 1109 q 835 1009 818 1044 q 869 1010 853 1009 q 903 1013 885 1011 q 855 1081 882 1049 q 799 1142 828 1113 m 681 1211 q 747 1154 725 1181 q 779 1155 758 1155 q 732 1187 764 1171 q 681 1211 700 1204 m 313 1157 q 380 1204 341 1181 q 285 1159 338 1188 q 313 1157 305 1159 m 195 1015 q 293 1140 230 1080 q 294 1141 293 1140 q 295 1144 295 1142 q 279 1145 287 1144 q 264 1146 270 1146 q 197 1094 239 1128 q 129 1020 160 1059 q 195 1015 152 1019 m 135 862 q 187 999 154 941 q 153 1001 170 999 q 120 1005 137 1003 q 75 930 95 968 q 61 897 68 912 q 48 866 54 882 q 91 863 69 864 q 135 862 112 862 m 114 704 q 131 847 116 774 q 87 848 108 847 q 44 851 66 849 q 21 704 21 770 l 114 704 m 131 546 q 118 616 122 581 q 114 689 114 652 l 21 689 q 44 540 23 611 q 87 543 66 542 q 131 546 108 544 m 187 394 q 135 530 150 461 q 91 527 112 529 q 48 525 69 525 q 120 388 75 448 q 187 394 141 390 m 295 249 q 195 378 237 299 q 161 374 177 376 q 129 372 145 372 q 262 245 181 303 q 295 249 282 249 m 313 233 q 285 231 293 233 q 380 187 338 201 q 313 233 341 208 m 804 233 q 735 187 764 201 q 831 231 781 203 q 804 233 822 233 m 922 378 q 904 349 912 363 q 887 322 895 336 q 855 285 870 303 q 822 249 839 266 q 853 247 831 247 q 986 372 928 295 q 953 374 968 372 q 922 378 938 376 m 982 530 q 930 394 963 461 q 997 386 972 390 q 1067 525 1044 453 q 1023 527 1044 525 q 982 530 1003 529 m 1001 689 q 986 546 1001 619 q 1028 542 1007 544 q 1073 540 1049 540 q 1094 689 1094 615 l 1001 689 m 984 847 q 1001 704 1001 774 l 1094 704 q 1073 851 1094 774 q 1028 848 1049 849 q 984 847 1007 847 m 930 999 q 982 862 965 928 q 1022 863 1001 862 q 1067 866 1044 864 q 997 1005 1040 941 q 930 999 951 1001 m 820 1144 q 874 1083 849 1117 q 920 1015 899 1049 q 952 1017 936 1015 q 986 1020 968 1019 q 853 1146 928 1096 q 835 1145 843 1146 q 820 1144 828 1144 m 802 1157 q 829 1159 812 1159 q 735 1204 783 1184 q 802 1157 766 1186 m 594 1227 q 613 1188 606 1209 q 627 1150 621 1167 q 669 1152 656 1150 q 637 1193 656 1171 q 594 1227 617 1215 z "},"C":{"ha":1165,"x_min":-8,"x_max":1111,"o":"m 586 1250 q 696 1233 639 1244 q 866 1155 783 1206 q 984 1047 928 1111 q 1044 959 1017 1005 q 1100 806 1084 876 q 1111 666 1111 737 q 1094 556 1105 610 q 1067 478 1078 505 q 845 220 995 318 q 721 164 785 185 q 557 139 642 141 q 502 142 529 139 q 448 150 475 145 q 272 220 355 170 q 100 384 164 289 q 79 419 89 401 q 60 453 69 436 q 31 530 41 492 q 17 806 -8 664 q 131 1047 48 938 q 167 1086 149 1067 q 206 1123 185 1105 q 295 1182 247 1155 q 502 1246 394 1231 q 543 1249 523 1248 q 586 1250 563 1250 m 505 1150 q 550 1148 521 1148 l 550 1233 q 533 1215 540 1227 q 523 1196 527 1204 q 513 1173 517 1184 q 505 1150 509 1161 m 476 1001 q 512 1000 494 1001 q 550 999 530 999 l 550 1132 q 526 1132 538 1132 q 502 1132 513 1132 q 476 1001 486 1074 m 475 986 q 466 918 469 951 q 461 853 463 885 q 505 853 484 853 q 550 853 527 853 l 550 984 q 475 986 500 984 m 461 837 q 458 770 459 802 q 457 704 457 737 l 550 704 l 550 837 q 504 837 527 837 q 461 837 482 837 m 457 689 q 458 621 457 654 q 461 556 459 588 q 504 556 482 556 q 550 556 527 556 l 550 689 l 457 689 m 473 407 q 511 407 492 407 q 550 407 530 407 l 550 540 q 505 540 527 540 q 461 540 484 540 q 462 536 461 538 q 463 534 463 534 q 466 470 463 502 q 473 407 469 438 m 476 390 q 502 258 486 314 q 526 258 513 258 q 550 258 538 258 l 550 392 q 476 390 502 392 m 550 158 l 550 243 q 528 243 538 243 q 505 243 517 243 q 522 195 511 222 q 550 158 532 168 m 559 156 q 557 156 561 156 q 554 156 552 156 q 556 156 554 156 q 559 156 557 156 m 610 243 q 587 243 598 243 q 565 243 577 243 l 565 158 q 593 196 583 168 q 610 243 604 224 m 615 258 q 640 392 629 313 q 602 392 621 392 q 565 392 583 392 l 565 258 q 589 258 577 258 q 615 258 602 258 m 654 538 q 610 539 631 538 q 565 540 588 540 l 565 407 q 604 407 584 407 q 642 407 623 407 q 654 538 650 473 m 654 556 q 657 621 656 588 q 658 689 658 654 l 565 689 l 565 556 q 610 556 588 556 q 654 556 631 556 m 658 704 q 657 770 658 737 q 654 837 656 802 q 610 837 631 837 q 565 837 588 837 l 565 704 l 658 704 m 642 986 q 565 984 617 984 l 565 853 q 610 853 588 853 q 654 853 631 853 q 642 986 650 918 m 640 1001 q 615 1134 631 1074 q 565 1132 598 1132 l 565 999 q 602 1000 583 999 q 640 1001 621 1001 m 565 1233 l 565 1148 q 610 1150 596 1148 q 593 1195 604 1169 q 565 1233 583 1221 m 490 1150 q 521 1225 500 1196 q 478 1193 498 1213 q 446 1150 459 1173 q 468 1150 457 1150 q 490 1150 478 1150 m 459 1001 q 459 1001 459 1001 q 459 1003 459 1001 q 470 1067 465 1034 q 484 1134 475 1100 q 461 1134 473 1134 q 438 1134 449 1134 q 386 1003 409 1084 q 459 1001 411 1001 m 446 837 q 400 837 422 837 q 355 839 378 837 q 349 704 349 770 l 442 704 q 442 770 442 737 q 446 837 442 802 m 442 689 l 349 689 q 357 554 349 611 q 400 555 378 554 q 446 556 422 556 q 442 621 442 588 q 442 689 442 654 m 459 390 q 386 388 411 390 q 408 319 395 353 q 438 257 421 285 q 461 258 449 257 q 484 258 473 258 q 469 323 475 289 q 459 390 463 357 m 521 166 q 502 203 509 181 q 488 243 494 224 q 446 241 475 241 q 521 166 480 183 m 627 243 q 613 203 621 224 q 596 166 606 181 q 637 198 619 177 q 669 241 654 218 q 627 243 642 241 m 656 390 q 656 389 656 390 q 656 388 656 388 q 633 258 646 318 q 679 257 664 258 q 708 320 696 287 q 731 388 720 353 q 656 390 706 390 m 658 407 q 696 406 677 407 q 735 405 716 405 q 758 538 748 463 q 714 538 735 538 q 669 538 693 538 q 658 407 666 473 m 671 556 q 715 555 693 556 q 760 554 737 554 q 768 689 768 610 l 675 689 q 673 621 675 654 q 671 556 671 588 m 675 704 l 768 704 q 760 839 768 779 q 715 837 737 837 q 671 837 693 837 q 673 770 671 802 q 675 704 675 737 m 658 986 q 669 853 666 918 q 714 853 693 853 q 758 855 735 853 q 735 988 748 920 q 695 986 716 986 q 658 986 675 986 m 656 1001 q 693 1002 673 1001 q 731 1003 712 1003 q 679 1134 710 1074 q 655 1134 667 1134 q 631 1134 642 1134 q 656 1001 646 1074 m 390 1154 q 428 1152 403 1152 q 452 1186 440 1169 q 482 1219 465 1204 q 390 1154 434 1198 m 299 1007 q 335 1004 316 1005 q 370 1003 353 1003 q 421 1136 388 1078 q 376 1138 392 1136 q 299 1007 332 1086 m 251 841 q 239 704 241 770 l 332 704 q 334 771 332 737 q 340 839 336 804 q 295 839 316 839 q 251 841 274 839 m 251 550 q 296 551 274 550 q 341 554 318 552 q 334 620 336 586 q 332 689 332 654 l 239 689 q 242 623 239 656 q 249 559 245 590 q 251 550 251 557 m 376 255 q 421 257 405 255 q 370 388 390 313 q 335 385 353 386 q 299 384 316 384 q 376 255 330 307 m 482 172 q 428 241 451 199 q 407 240 417 241 q 390 239 397 239 q 482 172 430 193 m 727 239 q 707 240 716 239 q 689 241 698 241 q 688 238 689 239 q 687 237 687 237 q 663 203 675 220 q 635 172 650 185 q 721 233 675 191 q 723 235 721 233 q 727 239 725 237 m 818 386 q 782 387 801 386 q 747 388 764 388 q 696 257 729 322 q 719 256 708 257 q 741 255 729 255 q 818 386 789 316 m 862 534 q 818 535 839 534 q 775 538 797 536 q 750 403 766 463 q 787 402 768 403 q 824 401 806 401 q 845 466 835 432 q 862 534 855 500 q 862 534 862 534 q 862 534 862 534 m 864 552 q 878 689 874 610 l 783 689 q 777 554 783 619 q 820 552 799 552 q 864 552 841 552 m 878 704 q 864 841 874 777 q 820 839 841 839 q 775 839 799 839 q 783 704 783 779 l 878 704 m 824 992 q 786 989 804 990 q 750 988 768 988 q 774 855 768 920 q 818 856 797 855 q 862 856 839 856 q 824 992 845 934 m 741 1138 q 696 1136 725 1136 q 747 1003 729 1069 q 781 1004 764 1003 q 818 1007 799 1005 q 741 1138 785 1076 m 635 1219 q 689 1152 662 1192 q 725 1154 714 1152 q 637 1219 691 1192 q 635 1219 635 1219 q 635 1219 635 1219 m 338 1155 q 370 1154 359 1155 q 436 1211 397 1190 l 432 1211 q 338 1155 376 1186 m 214 1013 q 282 1009 257 1009 q 357 1138 311 1082 q 337 1139 345 1138 q 318 1142 328 1140 q 259 1081 285 1115 q 214 1013 233 1047 m 318 251 q 336 252 326 251 q 357 253 345 253 q 282 384 314 305 q 247 380 264 382 q 212 378 230 378 q 318 251 251 309 m 434 179 q 429 181 432 179 q 426 185 426 183 q 368 237 386 216 q 336 235 347 237 q 337 234 336 235 q 338 233 338 233 q 383 202 359 216 q 434 179 407 187 m 781 235 q 762 236 775 235 q 747 237 748 237 q 681 179 714 201 q 682 179 681 179 q 685 179 683 179 q 781 235 737 203 m 903 378 q 835 384 882 380 q 760 253 801 307 q 778 252 770 253 q 799 251 787 251 q 856 310 831 276 q 903 378 882 343 m 965 530 q 920 532 941 530 q 878 534 899 534 q 845 409 866 475 q 842 403 843 405 q 841 399 841 401 q 877 395 858 397 q 912 394 895 394 q 965 530 949 463 m 986 689 l 891 689 q 882 550 891 627 q 924 548 903 550 q 968 546 945 546 q 977 592 974 569 q 984 640 980 615 q 985 664 984 652 q 986 689 986 675 m 968 845 q 924 842 945 843 q 882 841 903 841 q 891 704 891 764 l 986 704 q 980 774 986 739 q 968 845 974 810 m 912 997 q 841 993 862 993 q 878 858 868 914 q 920 859 899 858 q 965 860 941 860 q 912 997 941 939 m 799 1142 q 777 1139 787 1140 q 760 1138 768 1138 q 801 1076 783 1109 q 835 1009 818 1044 q 869 1010 853 1009 q 903 1013 885 1011 q 855 1081 882 1049 q 799 1142 828 1113 m 681 1211 q 747 1154 725 1181 q 779 1155 758 1155 q 732 1187 764 1171 q 681 1211 700 1204 m 313 1157 q 380 1204 341 1181 q 285 1159 338 1188 q 313 1157 305 1159 m 195 1015 q 293 1140 230 1080 q 294 1141 293 1140 q 295 1144 295 1142 q 279 1145 287 1144 q 264 1146 270 1146 q 197 1094 239 1128 q 129 1020 160 1059 q 195 1015 152 1019 m 135 862 q 187 999 154 941 q 153 1001 170 999 q 120 1005 137 1003 q 75 930 95 968 q 61 897 68 912 q 48 866 54 882 q 91 863 69 864 q 135 862 112 862 m 114 704 q 131 847 116 774 q 87 848 108 847 q 44 851 66 849 q 21 704 21 770 l 114 704 m 131 546 q 118 616 122 581 q 114 689 114 652 l 21 689 q 44 540 23 611 q 87 543 66 542 q 131 546 108 544 m 187 394 q 135 530 150 461 q 91 527 112 529 q 48 525 69 525 q 120 388 75 448 q 187 394 141 390 m 295 249 q 195 378 237 299 q 161 374 177 376 q 129 372 145 372 q 262 245 181 303 q 295 249 282 249 m 313 233 q 285 231 293 233 q 380 187 338 201 q 313 233 341 208 m 804 233 q 735 187 764 201 q 831 231 781 203 q 804 233 822 233 m 922 378 q 904 349 912 363 q 887 322 895 336 q 855 285 870 303 q 822 249 839 266 q 853 247 831 247 q 986 372 928 295 q 953 374 968 372 q 922 378 938 376 m 982 530 q 930 394 963 461 q 997 386 972 390 q 1067 525 1044 453 q 1023 527 1044 525 q 982 530 1003 529 m 1001 689 q 986 546 1001 619 q 1028 542 1007 544 q 1073 540 1049 540 q 1094 689 1094 615 l 1001 689 m 984 847 q 1001 704 1001 774 l 1094 704 q 1073 851 1094 774 q 1028 848 1049 849 q 984 847 1007 847 m 930 999 q 982 862 965 928 q 1022 863 1001 862 q 1067 866 1044 864 q 997 1005 1040 941 q 930 999 951 1001 m 820 1144 q 874 1083 849 1117 q 920 1015 899 1049 q 952 1017 936 1015 q 986 1020 968 1019 q 853 1146 928 1096 q 835 1145 843 1146 q 820 1144 828 1144 m 802 1157 q 829 1159 812 1159 q 735 1204 783 1184 q 802 1157 766 1186 m 594 1227 q 613 1188 606 1209 q 627 1150 621 1167 q 669 1152 656 1150 q 637 1193 656 1171 q 594 1227 617 1215 z "},"D":{"ha":1165,"x_min":-8,"x_max":1111,"o":"m 586 1250 q 696 1233 639 1244 q 866 1155 783 1206 q 984 1047 928 1111 q 1044 959 1017 1005 q 1100 806 1084 876 q 1111 666 1111 737 q 1094 556 1105 610 q 1067 478 1078 505 q 845 220 995 318 q 721 164 785 185 q 557 139 642 141 q 502 142 529 139 q 448 150 475 145 q 272 220 355 170 q 100 384 164 289 q 79 419 89 401 q 60 453 69 436 q 31 530 41 492 q 17 806 -8 664 q 131 1047 48 938 q 167 1086 149 1067 q 206 1123 185 1105 q 295 1182 247 1155 q 502 1246 394 1231 q 543 1249 523 1248 q 586 1250 563 1250 m 505 1150 q 550 1148 521 1148 l 550 1233 q 533 1215 540 1227 q 523 1196 527 1204 q 513 1173 517 1184 q 505 1150 509 1161 m 476 1001 q 512 1000 494 1001 q 550 999 530 999 l 550 1132 q 526 1132 538 1132 q 502 1132 513 1132 q 476 1001 486 1074 m 475 986 q 466 918 469 951 q 461 853 463 885 q 505 853 484 853 q 550 853 527 853 l 550 984 q 475 986 500 984 m 461 837 q 458 770 459 802 q 457 704 457 737 l 550 704 l 550 837 q 504 837 527 837 q 461 837 482 837 m 457 689 q 458 621 457 654 q 461 556 459 588 q 504 556 482 556 q 550 556 527 556 l 550 689 l 457 689 m 473 407 q 511 407 492 407 q 550 407 530 407 l 550 540 q 505 540 527 540 q 461 540 484 540 q 462 536 461 538 q 463 534 463 534 q 466 470 463 502 q 473 407 469 438 m 476 390 q 502 258 486 314 q 526 258 513 258 q 550 258 538 258 l 550 392 q 476 390 502 392 m 550 158 l 550 243 q 528 243 538 243 q 505 243 517 243 q 522 195 511 222 q 550 158 532 168 m 559 156 q 557 156 561 156 q 554 156 552 156 q 556 156 554 156 q 559 156 557 156 m 610 243 q 587 243 598 243 q 565 243 577 243 l 565 158 q 593 196 583 168 q 610 243 604 224 m 640 1001 q 615 1134 631 1074 q 565 1132 598 1132 l 565 999 q 602 1000 583 999 q 640 1001 621 1001 m 565 1233 l 565 1148 q 610 1150 596 1148 q 593 1195 604 1169 q 565 1233 583 1221 m 490 1150 q 521 1225 500 1196 q 478 1193 498 1213 q 446 1150 459 1173 q 468 1150 457 1150 q 490 1150 478 1150 m 459 1001 q 459 1001 459 1001 q 459 1003 459 1001 q 470 1067 465 1034 q 484 1134 475 1100 q 461 1134 473 1134 q 438 1134 449 1134 q 386 1003 409 1084 q 459 1001 411 1001 m 457 986 q 419 987 438 986 q 382 988 399 988 q 357 855 367 928 q 400 853 378 853 q 446 853 422 853 q 449 918 446 885 q 457 986 453 951 m 446 837 q 400 837 422 837 q 355 839 378 837 q 349 704 349 770 l 442 704 q 442 770 442 737 q 446 837 442 802 m 442 689 l 349 689 q 357 554 349 611 q 400 555 378 554 q 446 556 422 556 q 442 621 442 588 q 442 689 442 654 m 457 407 q 457 408 457 407 q 457 411 457 409 q 449 474 451 442 q 446 538 448 505 q 401 538 422 538 q 357 538 380 538 q 382 405 367 459 q 457 407 432 405 m 459 390 q 386 388 411 390 q 408 319 395 353 q 438 257 421 285 q 461 258 449 257 q 484 258 473 258 q 469 323 475 289 q 459 390 463 357 m 521 166 q 502 203 509 181 q 488 243 494 224 q 446 241 475 241 q 521 166 480 183 m 627 243 q 613 203 621 224 q 596 166 606 181 q 637 198 619 177 q 669 241 654 218 q 627 243 642 241 m 658 407 q 696 406 677 407 q 735 405 716 405 q 758 538 748 463 q 714 538 735 538 q 669 538 693 538 q 658 407 666 473 m 671 556 q 715 555 693 556 q 760 554 737 554 q 768 689 768 610 l 675 689 q 673 621 675 654 q 671 556 671 588 m 675 704 l 768 704 q 760 839 768 779 q 715 837 737 837 q 671 837 693 837 q 673 770 671 802 q 675 704 675 737 m 656 1001 q 693 1002 673 1001 q 731 1003 712 1003 q 679 1134 710 1074 q 655 1134 667 1134 q 631 1134 642 1134 q 656 1001 646 1074 m 390 1154 q 428 1152 403 1152 q 452 1186 440 1169 q 482 1219 465 1204 q 390 1154 434 1198 m 299 1007 q 335 1004 316 1005 q 370 1003 353 1003 q 421 1136 388 1078 q 376 1138 392 1136 q 299 1007 332 1086 m 255 856 q 297 856 276 856 q 341 855 318 855 q 367 988 351 928 q 329 989 347 988 q 293 992 311 990 q 255 856 266 936 m 251 841 q 239 704 241 770 l 332 704 q 334 771 332 737 q 340 839 336 804 q 295 839 316 839 q 251 841 274 839 m 251 550 q 296 551 274 550 q 341 554 318 552 q 334 620 336 586 q 332 689 332 654 l 239 689 q 242 623 239 656 q 249 559 245 590 q 251 550 251 557 m 291 399 q 367 403 341 403 q 341 538 349 463 q 297 535 318 536 q 255 534 276 534 q 291 399 266 459 m 376 255 q 421 257 405 255 q 370 388 390 313 q 335 385 353 386 q 299 384 316 384 q 376 255 330 307 m 482 172 q 428 241 451 199 q 407 240 417 241 q 390 239 397 239 q 482 172 430 193 m 727 239 q 707 240 716 239 q 689 241 698 241 q 688 238 689 239 q 687 237 687 237 q 663 203 675 220 q 635 172 650 185 q 721 233 675 191 q 723 235 721 233 q 727 239 725 237 m 862 534 q 818 535 839 534 q 775 538 797 536 q 750 403 766 463 q 787 402 768 403 q 824 401 806 401 q 845 466 835 432 q 862 534 855 500 q 862 534 862 534 q 862 534 862 534 m 864 552 q 878 689 874 610 l 783 689 q 777 554 783 619 q 820 552 799 552 q 864 552 841 552 m 878 704 q 864 841 874 777 q 820 839 841 839 q 775 839 799 839 q 783 704 783 779 l 878 704 m 741 1138 q 696 1136 725 1136 q 747 1003 729 1069 q 781 1004 764 1003 q 818 1007 799 1005 q 741 1138 785 1076 m 635 1219 q 689 1152 662 1192 q 725 1154 714 1152 q 637 1219 691 1192 q 635 1219 635 1219 q 635 1219 635 1219 m 338 1155 q 370 1154 359 1155 q 436 1211 397 1190 l 432 1211 q 338 1155 376 1186 m 214 1013 q 282 1009 257 1009 q 357 1138 311 1082 q 337 1139 345 1138 q 318 1142 328 1140 q 259 1081 285 1115 q 214 1013 233 1047 m 150 860 q 194 859 172 860 q 239 858 216 858 q 276 993 251 932 q 204 997 251 993 q 173 931 185 966 q 150 860 160 895 m 131 704 l 224 704 q 235 841 224 774 q 191 842 212 841 q 147 845 170 843 q 131 704 131 770 m 147 546 q 190 548 168 546 q 235 550 212 550 q 227 619 230 584 q 224 689 224 654 l 131 689 q 147 546 131 619 m 204 394 q 276 399 251 397 q 237 534 253 455 q 193 532 214 534 q 150 530 172 530 q 204 394 172 453 m 318 251 q 336 252 326 251 q 357 253 345 253 q 282 384 314 305 q 247 380 264 382 q 212 378 230 378 q 318 251 251 309 m 434 179 q 429 181 432 179 q 426 185 426 183 q 368 237 386 216 q 336 235 347 237 q 337 234 336 235 q 338 233 338 233 q 383 202 359 216 q 434 179 407 187 m 781 235 q 762 236 775 235 q 747 237 748 237 q 681 179 714 201 q 682 179 681 179 q 685 179 683 179 q 781 235 737 203 m 903 378 q 835 384 882 380 q 760 253 801 307 q 778 252 770 253 q 799 251 787 251 q 856 310 831 276 q 903 378 882 343 m 912 997 q 841 993 862 993 q 878 858 868 914 q 920 859 899 858 q 965 860 941 860 q 912 997 941 939 m 799 1142 q 777 1139 787 1140 q 760 1138 768 1138 q 801 1076 783 1109 q 835 1009 818 1044 q 869 1010 853 1009 q 903 1013 885 1011 q 855 1081 882 1049 q 799 1142 828 1113 m 681 1211 q 747 1154 725 1181 q 779 1155 758 1155 q 732 1187 764 1171 q 681 1211 700 1204 m 313 1157 q 380 1204 341 1181 q 285 1159 338 1188 q 313 1157 305 1159 m 195 1015 q 293 1140 230 1080 q 294 1141 293 1140 q 295 1144 295 1142 q 279 1145 287 1144 q 264 1146 270 1146 q 197 1094 239 1128 q 129 1020 160 1059 q 195 1015 152 1019 m 135 862 q 187 999 154 941 q 153 1001 170 999 q 120 1005 137 1003 q 75 930 95 968 q 61 897 68 912 q 48 866 54 882 q 91 863 69 864 q 135 862 112 862 m 114 704 q 131 847 116 774 q 87 848 108 847 q 44 851 66 849 q 21 704 21 770 l 114 704 m 131 546 q 118 616 122 581 q 114 689 114 652 l 21 689 q 44 540 23 611 q 87 543 66 542 q 131 546 108 544 m 187 394 q 135 530 150 461 q 91 527 112 529 q 48 525 69 525 q 120 388 75 448 q 187 394 141 390 m 295 249 q 195 378 237 299 q 161 374 177 376 q 129 372 145 372 q 262 245 181 303 q 295 249 282 249 m 313 233 q 285 231 293 233 q 380 187 338 201 q 313 233 341 208 m 804 233 q 735 187 764 201 q 831 231 781 203 q 804 233 822 233 m 922 378 q 904 349 912 363 q 887 322 895 336 q 855 285 870 303 q 822 249 839 266 q 853 247 831 247 q 986 372 928 295 q 953 374 968 372 q 922 378 938 376 m 982 530 q 930 394 963 461 q 997 386 972 390 q 1067 525 1044 453 q 1023 527 1044 525 q 982 530 1003 529 m 1001 689 q 986 546 1001 619 q 1028 542 1007 544 q 1073 540 1049 540 q 1094 689 1094 615 l 1001 689 m 984 847 q 1001 704 1001 774 l 1094 704 q 1073 851 1094 774 q 1028 848 1049 849 q 984 847 1007 847 m 930 999 q 982 862 965 928 q 1022 863 1001 862 q 1067 866 1044 864 q 997 1005 1040 941 q 930 999 951 1001 m 820 1144 q 874 1083 849 1117 q 920 1015 899 1049 q 952 1017 936 1015 q 986 1020 968 1019 q 853 1146 928 1096 q 835 1145 843 1146 q 820 1144 828 1144 m 802 1157 q 829 1159 812 1159 q 735 1204 783 1184 q 802 1157 766 1186 m 594 1227 q 613 1188 606 1209 q 627 1150 621 1167 q 669 1152 656 1150 q 637 1193 656 1171 q 594 1227 617 1215 z "},"E":{"ha":1165,"x_min":-8,"x_max":1111,"o":"m 586 1250 q 696 1233 639 1244 q 866 1155 783 1206 q 984 1047 928 1111 q 1044 959 1017 1005 q 1100 806 1084 876 q 1111 666 1111 737 q 1094 556 1105 610 q 1067 478 1078 505 q 845 220 995 318 q 721 164 785 185 q 557 139 642 141 q 502 142 529 139 q 448 150 475 145 q 272 220 355 170 q 100 384 164 289 q 79 419 89 401 q 60 453 69 436 q 31 530 41 492 q 17 806 -8 664 q 131 1047 48 938 q 167 1086 149 1067 q 206 1123 185 1105 q 295 1182 247 1155 q 502 1246 394 1231 q 543 1249 523 1248 q 586 1250 563 1250 m 505 1150 q 550 1148 521 1148 l 550 1233 q 533 1215 540 1227 q 523 1196 527 1204 q 513 1173 517 1184 q 505 1150 509 1161 m 475 986 q 466 918 469 951 q 461 853 463 885 q 505 853 484 853 q 550 853 527 853 l 550 984 q 475 986 500 984 m 457 689 q 458 621 457 654 q 461 556 459 588 q 504 556 482 556 q 550 556 527 556 l 550 689 l 457 689 m 473 407 q 511 407 492 407 q 550 407 530 407 l 550 540 q 505 540 527 540 q 461 540 484 540 q 462 536 461 538 q 463 534 463 534 q 466 470 463 502 q 473 407 469 438 m 550 158 l 550 243 q 528 243 538 243 q 505 243 517 243 q 522 195 511 222 q 550 158 532 168 m 559 156 q 557 156 561 156 q 554 156 552 156 q 556 156 554 156 q 559 156 557 156 m 610 243 q 587 243 598 243 q 565 243 577 243 l 565 158 q 593 196 583 168 q 610 243 604 224 m 654 538 q 610 539 631 538 q 565 540 588 540 l 565 407 q 604 407 584 407 q 642 407 623 407 q 654 538 650 473 m 654 556 q 657 621 656 588 q 658 689 658 654 l 565 689 l 565 556 q 610 556 588 556 q 654 556 631 556 m 658 704 q 657 770 658 737 q 654 837 656 802 q 610 837 631 837 q 565 837 588 837 l 565 704 l 658 704 m 642 986 q 565 984 617 984 l 565 853 q 610 853 588 853 q 654 853 631 853 q 642 986 650 918 m 565 1233 l 565 1148 q 610 1150 596 1148 q 593 1195 604 1169 q 565 1233 583 1221 m 490 1150 q 521 1225 500 1196 q 478 1193 498 1213 q 446 1150 459 1173 q 468 1150 457 1150 q 490 1150 478 1150 m 457 986 q 419 987 438 986 q 382 988 399 988 q 357 855 367 928 q 400 853 378 853 q 446 853 422 853 q 449 918 446 885 q 457 986 453 951 m 442 689 l 349 689 q 357 554 349 611 q 400 555 378 554 q 446 556 422 556 q 442 621 442 588 q 442 689 442 654 m 457 407 q 457 408 457 407 q 457 411 457 409 q 449 474 451 442 q 446 538 448 505 q 401 538 422 538 q 357 538 380 538 q 382 405 367 459 q 457 407 432 405 m 521 166 q 502 203 509 181 q 488 243 494 224 q 446 241 475 241 q 521 166 480 183 m 627 243 q 613 203 621 224 q 596 166 606 181 q 637 198 619 177 q 669 241 654 218 q 627 243 642 241 m 658 407 q 696 406 677 407 q 735 405 716 405 q 758 538 748 463 q 714 538 735 538 q 669 538 693 538 q 658 407 666 473 m 671 556 q 715 555 693 556 q 760 554 737 554 q 768 689 768 610 l 675 689 q 673 621 675 654 q 671 556 671 588 m 675 704 l 768 704 q 760 839 768 779 q 715 837 737 837 q 671 837 693 837 q 673 770 671 802 q 675 704 675 737 m 658 986 q 669 853 666 918 q 714 853 693 853 q 758 855 735 853 q 735 988 748 920 q 695 986 716 986 q 658 986 675 986 m 390 1154 q 428 1152 403 1152 q 452 1186 440 1169 q 482 1219 465 1204 q 390 1154 434 1198 m 482 172 q 428 241 451 199 q 407 240 417 241 q 390 239 397 239 q 482 172 430 193 m 727 239 q 707 240 716 239 q 689 241 698 241 q 688 238 689 239 q 687 237 687 237 q 663 203 675 220 q 635 172 650 185 q 721 233 675 191 q 723 235 721 233 q 727 239 725 237 m 818 386 q 782 387 801 386 q 747 388 764 388 q 696 257 729 322 q 719 256 708 257 q 741 255 729 255 q 818 386 789 316 m 862 534 q 818 535 839 534 q 775 538 797 536 q 750 403 766 463 q 787 402 768 403 q 824 401 806 401 q 845 466 835 432 q 862 534 855 500 q 862 534 862 534 q 862 534 862 534 m 864 552 q 878 689 874 610 l 783 689 q 777 554 783 619 q 820 552 799 552 q 864 552 841 552 m 878 704 q 864 841 874 777 q 820 839 841 839 q 775 839 799 839 q 783 704 783 779 l 878 704 m 824 992 q 786 989 804 990 q 750 988 768 988 q 774 855 768 920 q 818 856 797 855 q 862 856 839 856 q 824 992 845 934 m 741 1138 q 696 1136 725 1136 q 747 1003 729 1069 q 781 1004 764 1003 q 818 1007 799 1005 q 741 1138 785 1076 m 635 1219 q 689 1152 662 1192 q 725 1154 714 1152 q 637 1219 691 1192 q 635 1219 635 1219 q 635 1219 635 1219 m 338 1155 q 370 1154 359 1155 q 436 1211 397 1190 l 432 1211 q 338 1155 376 1186 m 214 1013 q 282 1009 257 1009 q 357 1138 311 1082 q 337 1139 345 1138 q 318 1142 328 1140 q 259 1081 285 1115 q 214 1013 233 1047 m 150 860 q 194 859 172 860 q 239 858 216 858 q 276 993 251 932 q 204 997 251 993 q 173 931 185 966 q 150 860 160 895 m 131 704 l 224 704 q 235 841 224 774 q 191 842 212 841 q 147 845 170 843 q 131 704 131 770 m 147 546 q 190 548 168 546 q 235 550 212 550 q 227 619 230 584 q 224 689 224 654 l 131 689 q 147 546 131 619 m 204 394 q 276 399 251 397 q 237 534 253 455 q 193 532 214 534 q 150 530 172 530 q 204 394 172 453 m 318 251 q 336 252 326 251 q 357 253 345 253 q 282 384 314 305 q 247 380 264 382 q 212 378 230 378 q 318 251 251 309 m 434 179 q 429 181 432 179 q 426 185 426 183 q 368 237 386 216 q 336 235 347 237 q 337 234 336 235 q 338 233 338 233 q 383 202 359 216 q 434 179 407 187 m 781 235 q 762 236 775 235 q 747 237 748 237 q 681 179 714 201 q 682 179 681 179 q 685 179 683 179 q 781 235 737 203 m 903 378 q 835 384 882 380 q 760 253 801 307 q 778 252 770 253 q 799 251 787 251 q 856 310 831 276 q 903 378 882 343 m 965 530 q 920 532 941 530 q 878 534 899 534 q 845 409 866 475 q 842 403 843 405 q 841 399 841 401 q 877 395 858 397 q 912 394 895 394 q 965 530 949 463 m 986 689 l 891 689 q 882 550 891 627 q 924 548 903 550 q 968 546 945 546 q 977 592 974 569 q 984 640 980 615 q 985 664 984 652 q 986 689 986 675 m 968 845 q 924 842 945 843 q 882 841 903 841 q 891 704 891 764 l 986 704 q 980 774 986 739 q 968 845 974 810 m 912 997 q 841 993 862 993 q 878 858 868 914 q 920 859 899 858 q 965 860 941 860 q 912 997 941 939 m 799 1142 q 777 1139 787 1140 q 760 1138 768 1138 q 801 1076 783 1109 q 835 1009 818 1044 q 869 1010 853 1009 q 903 1013 885 1011 q 855 1081 882 1049 q 799 1142 828 1113 m 681 1211 q 747 1154 725 1181 q 779 1155 758 1155 q 732 1187 764 1171 q 681 1211 700 1204 m 313 1157 q 380 1204 341 1181 q 285 1159 338 1188 q 313 1157 305 1159 m 195 1015 q 293 1140 230 1080 q 294 1141 293 1140 q 295 1144 295 1142 q 279 1145 287 1144 q 264 1146 270 1146 q 197 1094 239 1128 q 129 1020 160 1059 q 195 1015 152 1019 m 135 862 q 187 999 154 941 q 153 1001 170 999 q 120 1005 137 1003 q 75 930 95 968 q 61 897 68 912 q 48 866 54 882 q 91 863 69 864 q 135 862 112 862 m 114 704 q 131 847 116 774 q 87 848 108 847 q 44 851 66 849 q 21 704 21 770 l 114 704 m 131 546 q 118 616 122 581 q 114 689 114 652 l 21 689 q 44 540 23 611 q 87 543 66 542 q 131 546 108 544 m 187 394 q 135 530 150 461 q 91 527 112 529 q 48 525 69 525 q 120 388 75 448 q 187 394 141 390 m 295 249 q 195 378 237 299 q 161 374 177 376 q 129 372 145 372 q 262 245 181 303 q 295 249 282 249 m 313 233 q 285 231 293 233 q 380 187 338 201 q 313 233 341 208 m 804 233 q 735 187 764 201 q 831 231 781 203 q 804 233 822 233 m 922 378 q 904 349 912 363 q 887 322 895 336 q 855 285 870 303 q 822 249 839 266 q 853 247 831 247 q 986 372 928 295 q 953 374 968 372 q 922 378 938 376 m 982 530 q 930 394 963 461 q 997 386 972 390 q 1067 525 1044 453 q 1023 527 1044 525 q 982 530 1003 529 m 1001 689 q 986 546 1001 619 q 1028 542 1007 544 q 1073 540 1049 540 q 1094 689 1094 615 l 1001 689 m 984 847 q 1001 704 1001 774 l 1094 704 q 1073 851 1094 774 q 1028 848 1049 849 q 984 847 1007 847 m 930 999 q 982 862 965 928 q 1022 863 1001 862 q 1067 866 1044 864 q 997 1005 1040 941 q 930 999 951 1001 m 820 1144 q 874 1083 849 1117 q 920 1015 899 1049 q 952 1017 936 1015 q 986 1020 968 1019 q 853 1146 928 1096 q 835 1145 843 1146 q 820 1144 828 1144 m 802 1157 q 829 1159 812 1159 q 735 1204 783 1184 q 802 1157 766 1186 m 594 1227 q 613 1188 606 1209 q 627 1150 621 1167 q 669 1152 656 1150 q 637 1193 656 1171 q 594 1227 617 1215 z "},"F":{"ha":1165,"x_min":-8,"x_max":1111,"o":"m 586 1250 q 696 1233 639 1244 q 866 1155 783 1206 q 984 1047 928 1111 q 1044 959 1017 1005 q 1100 806 1084 876 q 1111 666 1111 737 q 1094 556 1105 610 q 1067 478 1078 505 q 845 220 995 318 q 721 164 785 185 q 557 139 642 141 q 502 142 529 139 q 448 150 475 145 q 272 220 355 170 q 100 384 164 289 q 79 419 89 401 q 60 453 69 436 q 31 530 41 492 q 17 806 -8 664 q 131 1047 48 938 q 167 1086 149 1067 q 206 1123 185 1105 q 295 1182 247 1155 q 502 1246 394 1231 q 543 1249 523 1248 q 586 1250 563 1250 m 505 1150 q 550 1148 521 1148 l 550 1233 q 533 1215 540 1227 q 523 1196 527 1204 q 513 1173 517 1184 q 505 1150 509 1161 m 476 1001 q 512 1000 494 1001 q 550 999 530 999 l 550 1132 q 526 1132 538 1132 q 502 1132 513 1132 q 476 1001 486 1074 m 475 986 q 466 918 469 951 q 461 853 463 885 q 505 853 484 853 q 550 853 527 853 l 550 984 q 475 986 500 984 m 457 689 q 458 621 457 654 q 461 556 459 588 q 504 556 482 556 q 550 556 527 556 l 550 689 l 457 689 m 476 390 q 502 258 486 314 q 526 258 513 258 q 550 258 538 258 l 550 392 q 476 390 502 392 m 550 158 l 550 243 q 528 243 538 243 q 505 243 517 243 q 522 195 511 222 q 550 158 532 168 m 559 156 q 557 156 561 156 q 554 156 552 156 q 556 156 554 156 q 559 156 557 156 m 610 243 q 587 243 598 243 q 565 243 577 243 l 565 158 q 593 196 583 168 q 610 243 604 224 m 615 258 q 640 392 629 313 q 602 392 621 392 q 565 392 583 392 l 565 258 q 589 258 577 258 q 615 258 602 258 m 654 556 q 657 621 656 588 q 658 689 658 654 l 565 689 l 565 556 q 610 556 588 556 q 654 556 631 556 m 642 986 q 565 984 617 984 l 565 853 q 610 853 588 853 q 654 853 631 853 q 642 986 650 918 m 640 1001 q 615 1134 631 1074 q 565 1132 598 1132 l 565 999 q 602 1000 583 999 q 640 1001 621 1001 m 565 1233 l 565 1148 q 610 1150 596 1148 q 593 1195 604 1169 q 565 1233 583 1221 m 490 1150 q 521 1225 500 1196 q 478 1193 498 1213 q 446 1150 459 1173 q 468 1150 457 1150 q 490 1150 478 1150 m 459 1001 q 459 1001 459 1001 q 459 1003 459 1001 q 470 1067 465 1034 q 484 1134 475 1100 q 461 1134 473 1134 q 438 1134 449 1134 q 386 1003 409 1084 q 459 1001 411 1001 m 457 986 q 419 987 438 986 q 382 988 399 988 q 357 855 367 928 q 400 853 378 853 q 446 853 422 853 q 449 918 446 885 q 457 986 453 951 m 627 243 q 613 203 621 224 q 596 166 606 181 q 637 198 619 177 q 669 241 654 218 q 627 243 642 241 m 656 390 q 656 389 656 390 q 656 388 656 388 q 633 258 646 318 q 679 257 664 258 q 708 320 696 287 q 731 388 720 353 q 656 390 706 390 m 658 407 q 696 406 677 407 q 735 405 716 405 q 758 538 748 463 q 714 538 735 538 q 669 538 693 538 q 658 407 666 473 m 671 556 q 715 555 693 556 q 760 554 737 554 q 768 689 768 610 l 675 689 q 673 621 675 654 q 671 556 671 588 m 675 704 l 768 704 q 760 839 768 779 q 715 837 737 837 q 671 837 693 837 q 673 770 671 802 q 675 704 675 737 m 658 986 q 669 853 666 918 q 714 853 693 853 q 758 855 735 853 q 735 988 748 920 q 695 986 716 986 q 658 986 675 986 m 656 1001 q 693 1002 673 1001 q 731 1003 712 1003 q 679 1134 710 1074 q 655 1134 667 1134 q 631 1134 642 1134 q 656 1001 646 1074 m 390 1154 q 428 1152 403 1152 q 452 1186 440 1169 q 482 1219 465 1204 q 390 1154 434 1198 m 299 1007 q 335 1004 316 1005 q 370 1003 353 1003 q 421 1136 388 1078 q 376 1138 392 1136 q 299 1007 332 1086 m 255 856 q 297 856 276 856 q 341 855 318 855 q 367 988 351 928 q 329 989 347 988 q 293 992 311 990 q 255 856 266 936 m 251 841 q 239 704 241 770 l 332 704 q 334 771 332 737 q 340 839 336 804 q 295 839 316 839 q 251 841 274 839 m 251 550 q 296 551 274 550 q 341 554 318 552 q 334 620 336 586 q 332 689 332 654 l 239 689 q 242 623 239 656 q 249 559 245 590 q 251 550 251 557 m 291 399 q 367 403 341 403 q 341 538 349 463 q 297 535 318 536 q 255 534 276 534 q 291 399 266 459 m 376 255 q 421 257 405 255 q 370 388 390 313 q 335 385 353 386 q 299 384 316 384 q 376 255 330 307 m 482 172 q 428 241 451 199 q 407 240 417 241 q 390 239 397 239 q 482 172 430 193 m 727 239 q 707 240 716 239 q 689 241 698 241 q 688 238 689 239 q 687 237 687 237 q 663 203 675 220 q 635 172 650 185 q 721 233 675 191 q 723 235 721 233 q 727 239 725 237 m 818 386 q 782 387 801 386 q 747 388 764 388 q 696 257 729 322 q 719 256 708 257 q 741 255 729 255 q 818 386 789 316 m 862 534 q 818 535 839 534 q 775 538 797 536 q 750 403 766 463 q 787 402 768 403 q 824 401 806 401 q 845 466 835 432 q 862 534 855 500 q 862 534 862 534 q 862 534 862 534 m 864 552 q 878 689 874 610 l 783 689 q 777 554 783 619 q 820 552 799 552 q 864 552 841 552 m 878 704 q 864 841 874 777 q 820 839 841 839 q 775 839 799 839 q 783 704 783 779 l 878 704 m 824 992 q 786 989 804 990 q 750 988 768 988 q 774 855 768 920 q 818 856 797 855 q 862 856 839 856 q 824 992 845 934 m 741 1138 q 696 1136 725 1136 q 747 1003 729 1069 q 781 1004 764 1003 q 818 1007 799 1005 q 741 1138 785 1076 m 635 1219 q 689 1152 662 1192 q 725 1154 714 1152 q 637 1219 691 1192 q 635 1219 635 1219 q 635 1219 635 1219 m 338 1155 q 370 1154 359 1155 q 436 1211 397 1190 l 432 1211 q 338 1155 376 1186 m 214 1013 q 282 1009 257 1009 q 357 1138 311 1082 q 337 1139 345 1138 q 318 1142 328 1140 q 259 1081 285 1115 q 214 1013 233 1047 m 150 860 q 194 859 172 860 q 239 858 216 858 q 276 993 251 932 q 204 997 251 993 q 173 931 185 966 q 150 860 160 895 m 131 704 l 224 704 q 235 841 224 774 q 191 842 212 841 q 147 845 170 843 q 131 704 131 770 m 147 546 q 190 548 168 546 q 235 550 212 550 q 227 619 230 584 q 224 689 224 654 l 131 689 q 147 546 131 619 m 204 394 q 276 399 251 397 q 237 534 253 455 q 193 532 214 534 q 150 530 172 530 q 204 394 172 453 m 318 251 q 336 252 326 251 q 357 253 345 253 q 282 384 314 305 q 247 380 264 382 q 212 378 230 378 q 318 251 251 309 m 434 179 q 429 181 432 179 q 426 185 426 183 q 368 237 386 216 q 336 235 347 237 q 337 234 336 235 q 338 233 338 233 q 383 202 359 216 q 434 179 407 187 m 781 235 q 762 236 775 235 q 747 237 748 237 q 681 179 714 201 q 682 179 681 179 q 685 179 683 179 q 781 235 737 203 m 903 378 q 835 384 882 380 q 760 253 801 307 q 778 252 770 253 q 799 251 787 251 q 856 310 831 276 q 903 378 882 343 m 965 530 q 920 532 941 530 q 878 534 899 534 q 845 409 866 475 q 842 403 843 405 q 841 399 841 401 q 877 395 858 397 q 912 394 895 394 q 965 530 949 463 m 986 689 l 891 689 q 882 550 891 627 q 924 548 903 550 q 968 546 945 546 q 977 592 974 569 q 984 640 980 615 q 985 664 984 652 q 986 689 986 675 m 968 845 q 924 842 945 843 q 882 841 903 841 q 891 704 891 764 l 986 704 q 980 774 986 739 q 968 845 974 810 m 912 997 q 841 993 862 993 q 878 858 868 914 q 920 859 899 858 q 965 860 941 860 q 912 997 941 939 m 799 1142 q 777 1139 787 1140 q 760 1138 768 1138 q 801 1076 783 1109 q 835 1009 818 1044 q 869 1010 853 1009 q 903 1013 885 1011 q 855 1081 882 1049 q 799 1142 828 1113 m 681 1211 q 747 1154 725 1181 q 779 1155 758 1155 q 732 1187 764 1171 q 681 1211 700 1204 m 313 1157 q 380 1204 341 1181 q 285 1159 338 1188 q 313 1157 305 1159 m 195 1015 q 293 1140 230 1080 q 294 1141 293 1140 q 295 1144 295 1142 q 279 1145 287 1144 q 264 1146 270 1146 q 197 1094 239 1128 q 129 1020 160 1059 q 195 1015 152 1019 m 135 862 q 187 999 154 941 q 153 1001 170 999 q 120 1005 137 1003 q 75 930 95 968 q 61 897 68 912 q 48 866 54 882 q 91 863 69 864 q 135 862 112 862 m 114 704 q 131 847 116 774 q 87 848 108 847 q 44 851 66 849 q 21 704 21 770 l 114 704 m 131 546 q 118 616 122 581 q 114 689 114 652 l 21 689 q 44 540 23 611 q 87 543 66 542 q 131 546 108 544 m 187 394 q 135 530 150 461 q 91 527 112 529 q 48 525 69 525 q 120 388 75 448 q 187 394 141 390 m 295 249 q 195 378 237 299 q 161 374 177 376 q 129 372 145 372 q 262 245 181 303 q 295 249 282 249 m 313 233 q 285 231 293 233 q 380 187 338 201 q 313 233 341 208 m 804 233 q 735 187 764 201 q 831 231 781 203 q 804 233 822 233 m 922 378 q 904 349 912 363 q 887 322 895 336 q 855 285 870 303 q 822 249 839 266 q 853 247 831 247 q 986 372 928 295 q 953 374 968 372 q 922 378 938 376 m 982 530 q 930 394 963 461 q 997 386 972 390 q 1067 525 1044 453 q 1023 527 1044 525 q 982 530 1003 529 m 1001 689 q 986 546 1001 619 q 1028 542 1007 544 q 1073 540 1049 540 q 1094 689 1094 615 l 1001 689 m 984 847 q 1001 704 1001 774 l 1094 704 q 1073 851 1094 774 q 1028 848 1049 849 q 984 847 1007 847 m 930 999 q 982 862 965 928 q 1022 863 1001 862 q 1067 866 1044 864 q 997 1005 1040 941 q 930 999 951 1001 m 820 1144 q 874 1083 849 1117 q 920 1015 899 1049 q 952 1017 936 1015 q 986 1020 968 1019 q 853 1146 928 1096 q 835 1145 843 1146 q 820 1144 828 1144 m 802 1157 q 829 1159 812 1159 q 735 1204 783 1184 q 802 1157 766 1186 m 594 1227 q 613 1188 606 1209 q 627 1150 621 1167 q 669 1152 656 1150 q 637 1193 656 1171 q 594 1227 617 1215 z "},"G":{"ha":1165,"x_min":-8,"x_max":1111,"o":"m 586 1250 q 696 1233 639 1244 q 866 1155 783 1206 q 984 1047 928 1111 q 1044 959 1017 1005 q 1100 806 1084 876 q 1111 666 1111 737 q 1094 556 1105 610 q 1067 478 1078 505 q 845 220 995 318 q 721 164 785 185 q 557 139 642 141 q 502 142 529 139 q 448 150 475 145 q 272 220 355 170 q 100 384 164 289 q 79 419 89 401 q 60 453 69 436 q 31 530 41 492 q 17 806 -8 664 q 131 1047 48 938 q 167 1086 149 1067 q 206 1123 185 1105 q 295 1182 247 1155 q 502 1246 394 1231 q 543 1249 523 1248 q 586 1250 563 1250 m 505 1150 q 550 1148 521 1148 l 550 1233 q 533 1215 540 1227 q 523 1196 527 1204 q 513 1173 517 1184 q 505 1150 509 1161 m 475 986 q 466 918 469 951 q 461 853 463 885 q 505 853 484 853 q 550 853 527 853 l 550 984 q 475 986 500 984 m 461 837 q 458 770 459 802 q 457 704 457 737 l 550 704 l 550 837 q 504 837 527 837 q 461 837 482 837 m 457 689 q 458 621 457 654 q 461 556 459 588 q 504 556 482 556 q 550 556 527 556 l 550 689 l 457 689 m 473 407 q 511 407 492 407 q 550 407 530 407 l 550 540 q 505 540 527 540 q 461 540 484 540 q 462 536 461 538 q 463 534 463 534 q 466 470 463 502 q 473 407 469 438 m 550 158 l 550 243 q 528 243 538 243 q 505 243 517 243 q 522 195 511 222 q 550 158 532 168 m 559 156 q 557 156 561 156 q 554 156 552 156 q 556 156 554 156 q 559 156 557 156 m 610 243 q 587 243 598 243 q 565 243 577 243 l 565 158 q 593 196 583 168 q 610 243 604 224 m 654 538 q 610 539 631 538 q 565 540 588 540 l 565 407 q 604 407 584 407 q 642 407 623 407 q 654 538 650 473 m 658 704 q 657 770 658 737 q 654 837 656 802 q 610 837 631 837 q 565 837 588 837 l 565 704 l 658 704 m 642 986 q 565 984 617 984 l 565 853 q 610 853 588 853 q 654 853 631 853 q 642 986 650 918 m 565 1233 l 565 1148 q 610 1150 596 1148 q 593 1195 604 1169 q 565 1233 583 1221 m 490 1150 q 521 1225 500 1196 q 478 1193 498 1213 q 446 1150 459 1173 q 468 1150 457 1150 q 490 1150 478 1150 m 457 986 q 419 987 438 986 q 382 988 399 988 q 357 855 367 928 q 400 853 378 853 q 446 853 422 853 q 449 918 446 885 q 457 986 453 951 m 446 837 q 400 837 422 837 q 355 839 378 837 q 349 704 349 770 l 442 704 q 442 770 442 737 q 446 837 442 802 m 442 689 l 349 689 q 357 554 349 611 q 400 555 378 554 q 446 556 422 556 q 442 621 442 588 q 442 689 442 654 m 457 407 q 457 408 457 407 q 457 411 457 409 q 449 474 451 442 q 446 538 448 505 q 401 538 422 538 q 357 538 380 538 q 382 405 367 459 q 457 407 432 405 m 521 166 q 502 203 509 181 q 488 243 494 224 q 446 241 475 241 q 521 166 480 183 m 627 243 q 613 203 621 224 q 596 166 606 181 q 637 198 619 177 q 669 241 654 218 q 627 243 642 241 m 675 704 l 768 704 q 760 839 768 779 q 715 837 737 837 q 671 837 693 837 q 673 770 671 802 q 675 704 675 737 m 656 1001 q 693 1002 673 1001 q 731 1003 712 1003 q 679 1134 710 1074 q 655 1134 667 1134 q 631 1134 642 1134 q 656 1001 646 1074 m 390 1154 q 428 1152 403 1152 q 452 1186 440 1169 q 482 1219 465 1204 q 390 1154 434 1198 m 299 1007 q 335 1004 316 1005 q 370 1003 353 1003 q 421 1136 388 1078 q 376 1138 392 1136 q 299 1007 332 1086 m 376 255 q 421 257 405 255 q 370 388 390 313 q 335 385 353 386 q 299 384 316 384 q 376 255 330 307 m 482 172 q 428 241 451 199 q 407 240 417 241 q 390 239 397 239 q 482 172 430 193 m 727 239 q 707 240 716 239 q 689 241 698 241 q 688 238 689 239 q 687 237 687 237 q 663 203 675 220 q 635 172 650 185 q 721 233 675 191 q 723 235 721 233 q 727 239 725 237 m 818 386 q 782 387 801 386 q 747 388 764 388 q 696 257 729 322 q 719 256 708 257 q 741 255 729 255 q 818 386 789 316 m 862 534 q 818 535 839 534 q 775 538 797 536 q 750 403 766 463 q 787 402 768 403 q 824 401 806 401 q 845 466 835 432 q 862 534 855 500 q 862 534 862 534 q 862 534 862 534 m 864 552 q 878 689 874 610 l 783 689 q 777 554 783 619 q 820 552 799 552 q 864 552 841 552 m 878 704 q 864 841 874 777 q 820 839 841 839 q 775 839 799 839 q 783 704 783 779 l 878 704 m 824 992 q 786 989 804 990 q 750 988 768 988 q 774 855 768 920 q 818 856 797 855 q 862 856 839 856 q 824 992 845 934 m 741 1138 q 696 1136 725 1136 q 747 1003 729 1069 q 781 1004 764 1003 q 818 1007 799 1005 q 741 1138 785 1076 m 635 1219 q 689 1152 662 1192 q 725 1154 714 1152 q 637 1219 691 1192 q 635 1219 635 1219 q 635 1219 635 1219 m 338 1155 q 370 1154 359 1155 q 436 1211 397 1190 l 432 1211 q 338 1155 376 1186 m 214 1013 q 282 1009 257 1009 q 357 1138 311 1082 q 337 1139 345 1138 q 318 1142 328 1140 q 259 1081 285 1115 q 214 1013 233 1047 m 150 860 q 194 859 172 860 q 239 858 216 858 q 276 993 251 932 q 204 997 251 993 q 173 931 185 966 q 150 860 160 895 m 131 704 l 224 704 q 235 841 224 774 q 191 842 212 841 q 147 845 170 843 q 131 704 131 770 m 147 546 q 190 548 168 546 q 235 550 212 550 q 227 619 230 584 q 224 689 224 654 l 131 689 q 147 546 131 619 m 204 394 q 276 399 251 397 q 237 534 253 455 q 193 532 214 534 q 150 530 172 530 q 204 394 172 453 m 318 251 q 336 252 326 251 q 357 253 345 253 q 282 384 314 305 q 247 380 264 382 q 212 378 230 378 q 318 251 251 309 m 434 179 q 429 181 432 179 q 426 185 426 183 q 368 237 386 216 q 336 235 347 237 q 337 234 336 235 q 338 233 338 233 q 383 202 359 216 q 434 179 407 187 m 781 235 q 762 236 775 235 q 747 237 748 237 q 681 179 714 201 q 682 179 681 179 q 685 179 683 179 q 781 235 737 203 m 903 378 q 835 384 882 380 q 760 253 801 307 q 778 252 770 253 q 799 251 787 251 q 856 310 831 276 q 903 378 882 343 m 965 530 q 920 532 941 530 q 878 534 899 534 q 845 409 866 475 q 842 403 843 405 q 841 399 841 401 q 877 395 858 397 q 912 394 895 394 q 965 530 949 463 m 986 689 l 891 689 q 882 550 891 627 q 924 548 903 550 q 968 546 945 546 q 977 592 974 569 q 984 640 980 615 q 985 664 984 652 q 986 689 986 675 m 968 845 q 924 842 945 843 q 882 841 903 841 q 891 704 891 764 l 986 704 q 980 774 986 739 q 968 845 974 810 m 912 997 q 841 993 862 993 q 878 858 868 914 q 920 859 899 858 q 965 860 941 860 q 912 997 941 939 m 799 1142 q 777 1139 787 1140 q 760 1138 768 1138 q 801 1076 783 1109 q 835 1009 818 1044 q 869 1010 853 1009 q 903 1013 885 1011 q 855 1081 882 1049 q 799 1142 828 1113 m 681 1211 q 747 1154 725 1181 q 779 1155 758 1155 q 732 1187 764 1171 q 681 1211 700 1204 m 313 1157 q 380 1204 341 1181 q 285 1159 338 1188 q 313 1157 305 1159 m 195 1015 q 293 1140 230 1080 q 294 1141 293 1140 q 295 1144 295 1142 q 279 1145 287 1144 q 264 1146 270 1146 q 197 1094 239 1128 q 129 1020 160 1059 q 195 1015 152 1019 m 135 862 q 187 999 154 941 q 153 1001 170 999 q 120 1005 137 1003 q 75 930 95 968 q 61 897 68 912 q 48 866 54 882 q 91 863 69 864 q 135 862 112 862 m 114 704 q 131 847 116 774 q 87 848 108 847 q 44 851 66 849 q 21 704 21 770 l 114 704 m 131 546 q 118 616 122 581 q 114 689 114 652 l 21 689 q 44 540 23 611 q 87 543 66 542 q 131 546 108 544 m 187 394 q 135 530 150 461 q 91 527 112 529 q 48 525 69 525 q 120 388 75 448 q 187 394 141 390 m 295 249 q 195 378 237 299 q 161 374 177 376 q 129 372 145 372 q 262 245 181 303 q 295 249 282 249 m 313 233 q 285 231 293 233 q 380 187 338 201 q 313 233 341 208 m 804 233 q 735 187 764 201 q 831 231 781 203 q 804 233 822 233 m 922 378 q 904 349 912 363 q 887 322 895 336 q 855 285 870 303 q 822 249 839 266 q 853 247 831 247 q 986 372 928 295 q 953 374 968 372 q 922 378 938 376 m 982 530 q 930 394 963 461 q 997 386 972 390 q 1067 525 1044 453 q 1023 527 1044 525 q 982 530 1003 529 m 1001 689 q 986 546 1001 619 q 1028 542 1007 544 q 1073 540 1049 540 q 1094 689 1094 615 l 1001 689 m 984 847 q 1001 704 1001 774 l 1094 704 q 1073 851 1094 774 q 1028 848 1049 849 q 984 847 1007 847 m 930 999 q 982 862 965 928 q 1022 863 1001 862 q 1067 866 1044 864 q 997 1005 1040 941 q 930 999 951 1001 m 820 1144 q 874 1083 849 1117 q 920 1015 899 1049 q 952 1017 936 1015 q 986 1020 968 1019 q 853 1146 928 1096 q 835 1145 843 1146 q 820 1144 828 1144 m 802 1157 q 829 1159 812 1159 q 735 1204 783 1184 q 802 1157 766 1186 m 594 1227 q 613 1188 606 1209 q 627 1150 621 1167 q 669 1152 656 1150 q 637 1193 656 1171 q 594 1227 617 1215 z "},"H":{"ha":1165,"x_min":-8,"x_max":1111,"o":"m 586 1250 q 696 1233 639 1244 q 866 1155 783 1206 q 984 1047 928 1111 q 1044 959 1017 1005 q 1100 806 1084 876 q 1111 666 1111 737 q 1094 556 1105 610 q 1067 478 1078 505 q 845 220 995 318 q 721 164 785 185 q 557 139 642 141 q 502 142 529 139 q 448 150 475 145 q 272 220 355 170 q 100 384 164 289 q 79 419 89 401 q 60 453 69 436 q 31 530 41 492 q 17 806 -8 664 q 131 1047 48 938 q 167 1086 149 1067 q 206 1123 185 1105 q 295 1182 247 1155 q 502 1246 394 1231 q 543 1249 523 1248 q 586 1250 563 1250 m 505 1150 q 550 1148 521 1148 l 550 1233 q 533 1215 540 1227 q 523 1196 527 1204 q 513 1173 517 1184 q 505 1150 509 1161 m 476 1001 q 512 1000 494 1001 q 550 999 530 999 l 550 1132 q 526 1132 538 1132 q 502 1132 513 1132 q 476 1001 486 1074 m 475 986 q 466 918 469 951 q 461 853 463 885 q 505 853 484 853 q 550 853 527 853 l 550 984 q 475 986 500 984 m 457 689 q 458 621 457 654 q 461 556 459 588 q 504 556 482 556 q 550 556 527 556 l 550 689 l 457 689 m 473 407 q 511 407 492 407 q 550 407 530 407 l 550 540 q 505 540 527 540 q 461 540 484 540 q 462 536 461 538 q 463 534 463 534 q 466 470 463 502 q 473 407 469 438 m 476 390 q 502 258 486 314 q 526 258 513 258 q 550 258 538 258 l 550 392 q 476 390 502 392 m 550 158 l 550 243 q 528 243 538 243 q 505 243 517 243 q 522 195 511 222 q 550 158 532 168 m 559 156 q 557 156 561 156 q 554 156 552 156 q 556 156 554 156 q 559 156 557 156 m 610 243 q 587 243 598 243 q 565 243 577 243 l 565 158 q 593 196 583 168 q 610 243 604 224 m 615 258 q 640 392 629 313 q 602 392 621 392 q 565 392 583 392 l 565 258 q 589 258 577 258 q 615 258 602 258 m 654 538 q 610 539 631 538 q 565 540 588 540 l 565 407 q 604 407 584 407 q 642 407 623 407 q 654 538 650 473 m 654 556 q 657 621 656 588 q 658 689 658 654 l 565 689 l 565 556 q 610 556 588 556 q 654 556 631 556 m 642 986 q 565 984 617 984 l 565 853 q 610 853 588 853 q 654 853 631 853 q 642 986 650 918 m 640 1001 q 615 1134 631 1074 q 565 1132 598 1132 l 565 999 q 602 1000 583 999 q 640 1001 621 1001 m 565 1233 l 565 1148 q 610 1150 596 1148 q 593 1195 604 1169 q 565 1233 583 1221 m 490 1150 q 521 1225 500 1196 q 478 1193 498 1213 q 446 1150 459 1173 q 468 1150 457 1150 q 490 1150 478 1150 m 459 390 q 386 388 411 390 q 408 319 395 353 q 438 257 421 285 q 461 258 449 257 q 484 258 473 258 q 469 323 475 289 q 459 390 463 357 m 521 166 q 502 203 509 181 q 488 243 494 224 q 446 241 475 241 q 521 166 480 183 m 627 243 q 613 203 621 224 q 596 166 606 181 q 637 198 619 177 q 669 241 654 218 q 627 243 642 241 m 656 390 q 656 389 656 390 q 656 388 656 388 q 633 258 646 318 q 679 257 664 258 q 708 320 696 287 q 731 388 720 353 q 656 390 706 390 m 390 1154 q 428 1152 403 1152 q 452 1186 440 1169 q 482 1219 465 1204 q 390 1154 434 1198 m 299 1007 q 335 1004 316 1005 q 370 1003 353 1003 q 421 1136 388 1078 q 376 1138 392 1136 q 299 1007 332 1086 m 255 856 q 297 856 276 856 q 341 855 318 855 q 367 988 351 928 q 329 989 347 988 q 293 992 311 990 q 255 856 266 936 m 251 841 q 239 704 241 770 l 332 704 q 334 771 332 737 q 340 839 336 804 q 295 839 316 839 q 251 841 274 839 m 251 550 q 296 551 274 550 q 341 554 318 552 q 334 620 336 586 q 332 689 332 654 l 239 689 q 242 623 239 656 q 249 559 245 590 q 251 550 251 557 m 291 399 q 367 403 341 403 q 341 538 349 463 q 297 535 318 536 q 255 534 276 534 q 291 399 266 459 m 376 255 q 421 257 405 255 q 370 388 390 313 q 335 385 353 386 q 299 384 316 384 q 376 255 330 307 m 482 172 q 428 241 451 199 q 407 240 417 241 q 390 239 397 239 q 482 172 430 193 m 727 239 q 707 240 716 239 q 689 241 698 241 q 688 238 689 239 q 687 237 687 237 q 663 203 675 220 q 635 172 650 185 q 721 233 675 191 q 723 235 721 233 q 727 239 725 237 m 818 386 q 782 387 801 386 q 747 388 764 388 q 696 257 729 322 q 719 256 708 257 q 741 255 729 255 q 818 386 789 316 m 862 534 q 818 535 839 534 q 775 538 797 536 q 750 403 766 463 q 787 402 768 403 q 824 401 806 401 q 845 466 835 432 q 862 534 855 500 q 862 534 862 534 q 862 534 862 534 m 864 552 q 878 689 874 610 l 783 689 q 777 554 783 619 q 820 552 799 552 q 864 552 841 552 m 878 704 q 864 841 874 777 q 820 839 841 839 q 775 839 799 839 q 783 704 783 779 l 878 704 m 824 992 q 786 989 804 990 q 750 988 768 988 q 774 855 768 920 q 818 856 797 855 q 862 856 839 856 q 824 992 845 934 m 741 1138 q 696 1136 725 1136 q 747 1003 729 1069 q 781 1004 764 1003 q 818 1007 799 1005 q 741 1138 785 1076 m 635 1219 q 689 1152 662 1192 q 725 1154 714 1152 q 637 1219 691 1192 q 635 1219 635 1219 q 635 1219 635 1219 m 338 1155 q 370 1154 359 1155 q 436 1211 397 1190 l 432 1211 q 338 1155 376 1186 m 214 1013 q 282 1009 257 1009 q 357 1138 311 1082 q 337 1139 345 1138 q 318 1142 328 1140 q 259 1081 285 1115 q 214 1013 233 1047 m 150 860 q 194 859 172 860 q 239 858 216 858 q 276 993 251 932 q 204 997 251 993 q 173 931 185 966 q 150 860 160 895 m 131 704 l 224 704 q 235 841 224 774 q 191 842 212 841 q 147 845 170 843 q 131 704 131 770 m 147 546 q 190 548 168 546 q 235 550 212 550 q 227 619 230 584 q 224 689 224 654 l 131 689 q 147 546 131 619 m 204 394 q 276 399 251 397 q 237 534 253 455 q 193 532 214 534 q 150 530 172 530 q 204 394 172 453 m 318 251 q 336 252 326 251 q 357 253 345 253 q 282 384 314 305 q 247 380 264 382 q 212 378 230 378 q 318 251 251 309 m 434 179 q 429 181 432 179 q 426 185 426 183 q 368 237 386 216 q 336 235 347 237 q 337 234 336 235 q 338 233 338 233 q 383 202 359 216 q 434 179 407 187 m 781 235 q 762 236 775 235 q 747 237 748 237 q 681 179 714 201 q 682 179 681 179 q 685 179 683 179 q 781 235 737 203 m 903 378 q 835 384 882 380 q 760 253 801 307 q 778 252 770 253 q 799 251 787 251 q 856 310 831 276 q 903 378 882 343 m 965 530 q 920 532 941 530 q 878 534 899 534 q 845 409 866 475 q 842 403 843 405 q 841 399 841 401 q 877 395 858 397 q 912 394 895 394 q 965 530 949 463 m 986 689 l 891 689 q 882 550 891 627 q 924 548 903 550 q 968 546 945 546 q 977 592 974 569 q 984 640 980 615 q 985 664 984 652 q 986 689 986 675 m 968 845 q 924 842 945 843 q 882 841 903 841 q 891 704 891 764 l 986 704 q 980 774 986 739 q 968 845 974 810 m 912 997 q 841 993 862 993 q 878 858 868 914 q 920 859 899 858 q 965 860 941 860 q 912 997 941 939 m 799 1142 q 777 1139 787 1140 q 760 1138 768 1138 q 801 1076 783 1109 q 835 1009 818 1044 q 869 1010 853 1009 q 903 1013 885 1011 q 855 1081 882 1049 q 799 1142 828 1113 m 681 1211 q 747 1154 725 1181 q 779 1155 758 1155 q 732 1187 764 1171 q 681 1211 700 1204 m 313 1157 q 380 1204 341 1181 q 285 1159 338 1188 q 313 1157 305 1159 m 195 1015 q 293 1140 230 1080 q 294 1141 293 1140 q 295 1144 295 1142 q 279 1145 287 1144 q 264 1146 270 1146 q 197 1094 239 1128 q 129 1020 160 1059 q 195 1015 152 1019 m 135 862 q 187 999 154 941 q 153 1001 170 999 q 120 1005 137 1003 q 75 930 95 968 q 61 897 68 912 q 48 866 54 882 q 91 863 69 864 q 135 862 112 862 m 114 704 q 131 847 116 774 q 87 848 108 847 q 44 851 66 849 q 21 704 21 770 l 114 704 m 131 546 q 118 616 122 581 q 114 689 114 652 l 21 689 q 44 540 23 611 q 87 543 66 542 q 131 546 108 544 m 187 394 q 135 530 150 461 q 91 527 112 529 q 48 525 69 525 q 120 388 75 448 q 187 394 141 390 m 295 249 q 195 378 237 299 q 161 374 177 376 q 129 372 145 372 q 262 245 181 303 q 295 249 282 249 m 313 233 q 285 231 293 233 q 380 187 338 201 q 313 233 341 208 m 804 233 q 735 187 764 201 q 831 231 781 203 q 804 233 822 233 m 922 378 q 904 349 912 363 q 887 322 895 336 q 855 285 870 303 q 822 249 839 266 q 853 247 831 247 q 986 372 928 295 q 953 374 968 372 q 922 378 938 376 m 982 530 q 930 394 963 461 q 997 386 972 390 q 1067 525 1044 453 q 1023 527 1044 525 q 982 530 1003 529 m 1001 689 q 986 546 1001 619 q 1028 542 1007 544 q 1073 540 1049 540 q 1094 689 1094 615 l 1001 689 m 984 847 q 1001 704 1001 774 l 1094 704 q 1073 851 1094 774 q 1028 848 1049 849 q 984 847 1007 847 m 930 999 q 982 862 965 928 q 1022 863 1001 862 q 1067 866 1044 864 q 997 1005 1040 941 q 930 999 951 1001 m 820 1144 q 874 1083 849 1117 q 920 1015 899 1049 q 952 1017 936 1015 q 986 1020 968 1019 q 853 1146 928 1096 q 835 1145 843 1146 q 820 1144 828 1144 m 802 1157 q 829 1159 812 1159 q 735 1204 783 1184 q 802 1157 766 1186 m 594 1227 q 613 1188 606 1209 q 627 1150 621 1167 q 669 1152 656 1150 q 637 1193 656 1171 q 594 1227 617 1215 z "},"I":{"ha":1165,"x_min":-8,"x_max":1111,"o":"m 586 1250 q 696 1233 639 1244 q 866 1155 783 1206 q 984 1047 928 1111 q 1044 959 1017 1005 q 1100 806 1084 876 q 1111 666 1111 737 q 1094 556 1105 610 q 1067 478 1078 505 q 845 220 995 318 q 721 164 785 185 q 557 139 642 141 q 502 142 529 139 q 448 150 475 145 q 272 220 355 170 q 100 384 164 289 q 79 419 89 401 q 60 453 69 436 q 31 530 41 492 q 17 806 -8 664 q 131 1047 48 938 q 167 1086 149 1067 q 206 1123 185 1105 q 295 1182 247 1155 q 502 1246 394 1231 q 543 1249 523 1248 q 586 1250 563 1250 m 505 1150 q 550 1148 521 1148 l 550 1233 q 533 1215 540 1227 q 523 1196 527 1204 q 513 1173 517 1184 q 505 1150 509 1161 m 475 986 q 466 918 469 951 q 461 853 463 885 q 505 853 484 853 q 550 853 527 853 l 550 984 q 475 986 500 984 m 461 837 q 458 770 459 802 q 457 704 457 737 l 550 704 l 550 837 q 504 837 527 837 q 461 837 482 837 m 457 689 q 458 621 457 654 q 461 556 459 588 q 504 556 482 556 q 550 556 527 556 l 550 689 l 457 689 m 473 407 q 511 407 492 407 q 550 407 530 407 l 550 540 q 505 540 527 540 q 461 540 484 540 q 462 536 461 538 q 463 534 463 534 q 466 470 463 502 q 473 407 469 438 m 550 158 l 550 243 q 528 243 538 243 q 505 243 517 243 q 522 195 511 222 q 550 158 532 168 m 559 156 q 557 156 561 156 q 554 156 552 156 q 556 156 554 156 q 559 156 557 156 m 610 243 q 587 243 598 243 q 565 243 577 243 l 565 158 q 593 196 583 168 q 610 243 604 224 m 615 258 q 640 392 629 313 q 602 392 621 392 q 565 392 583 392 l 565 258 q 589 258 577 258 q 615 258 602 258 m 654 538 q 610 539 631 538 q 565 540 588 540 l 565 407 q 604 407 584 407 q 642 407 623 407 q 654 538 650 473 m 654 556 q 657 621 656 588 q 658 689 658 654 l 565 689 l 565 556 q 610 556 588 556 q 654 556 631 556 m 658 704 q 657 770 658 737 q 654 837 656 802 q 610 837 631 837 q 565 837 588 837 l 565 704 l 658 704 m 642 986 q 565 984 617 984 l 565 853 q 610 853 588 853 q 654 853 631 853 q 642 986 650 918 m 640 1001 q 615 1134 631 1074 q 565 1132 598 1132 l 565 999 q 602 1000 583 999 q 640 1001 621 1001 m 565 1233 l 565 1148 q 610 1150 596 1148 q 593 1195 604 1169 q 565 1233 583 1221 m 490 1150 q 521 1225 500 1196 q 478 1193 498 1213 q 446 1150 459 1173 q 468 1150 457 1150 q 490 1150 478 1150 m 521 166 q 502 203 509 181 q 488 243 494 224 q 446 241 475 241 q 521 166 480 183 m 627 243 q 613 203 621 224 q 596 166 606 181 q 637 198 619 177 q 669 241 654 218 q 627 243 642 241 m 656 390 q 656 389 656 390 q 656 388 656 388 q 633 258 646 318 q 679 257 664 258 q 708 320 696 287 q 731 388 720 353 q 656 390 706 390 m 658 407 q 696 406 677 407 q 735 405 716 405 q 758 538 748 463 q 714 538 735 538 q 669 538 693 538 q 658 407 666 473 m 671 556 q 715 555 693 556 q 760 554 737 554 q 768 689 768 610 l 675 689 q 673 621 675 654 q 671 556 671 588 m 675 704 l 768 704 q 760 839 768 779 q 715 837 737 837 q 671 837 693 837 q 673 770 671 802 q 675 704 675 737 m 658 986 q 669 853 666 918 q 714 853 693 853 q 758 855 735 853 q 735 988 748 920 q 695 986 716 986 q 658 986 675 986 m 656 1001 q 693 1002 673 1001 q 731 1003 712 1003 q 679 1134 710 1074 q 655 1134 667 1134 q 631 1134 642 1134 q 656 1001 646 1074 m 390 1154 q 428 1152 403 1152 q 452 1186 440 1169 q 482 1219 465 1204 q 390 1154 434 1198 m 255 856 q 297 856 276 856 q 341 855 318 855 q 367 988 351 928 q 329 989 347 988 q 293 992 311 990 q 255 856 266 936 m 251 841 q 239 704 241 770 l 332 704 q 334 771 332 737 q 340 839 336 804 q 295 839 316 839 q 251 841 274 839 m 251 550 q 296 551 274 550 q 341 554 318 552 q 334 620 336 586 q 332 689 332 654 l 239 689 q 242 623 239 656 q 249 559 245 590 q 251 550 251 557 m 291 399 q 367 403 341 403 q 341 538 349 463 q 297 535 318 536 q 255 534 276 534 q 291 399 266 459 m 482 172 q 428 241 451 199 q 407 240 417 241 q 390 239 397 239 q 482 172 430 193 m 727 239 q 707 240 716 239 q 689 241 698 241 q 688 238 689 239 q 687 237 687 237 q 663 203 675 220 q 635 172 650 185 q 721 233 675 191 q 723 235 721 233 q 727 239 725 237 m 818 386 q 782 387 801 386 q 747 388 764 388 q 696 257 729 322 q 719 256 708 257 q 741 255 729 255 q 818 386 789 316 m 862 534 q 818 535 839 534 q 775 538 797 536 q 750 403 766 463 q 787 402 768 403 q 824 401 806 401 q 845 466 835 432 q 862 534 855 500 q 862 534 862 534 q 862 534 862 534 m 864 552 q 878 689 874 610 l 783 689 q 777 554 783 619 q 820 552 799 552 q 864 552 841 552 m 878 704 q 864 841 874 777 q 820 839 841 839 q 775 839 799 839 q 783 704 783 779 l 878 704 m 824 992 q 786 989 804 990 q 750 988 768 988 q 774 855 768 920 q 818 856 797 855 q 862 856 839 856 q 824 992 845 934 m 741 1138 q 696 1136 725 1136 q 747 1003 729 1069 q 781 1004 764 1003 q 818 1007 799 1005 q 741 1138 785 1076 m 635 1219 q 689 1152 662 1192 q 725 1154 714 1152 q 637 1219 691 1192 q 635 1219 635 1219 q 635 1219 635 1219 m 338 1155 q 370 1154 359 1155 q 436 1211 397 1190 l 432 1211 q 338 1155 376 1186 m 214 1013 q 282 1009 257 1009 q 357 1138 311 1082 q 337 1139 345 1138 q 318 1142 328 1140 q 259 1081 285 1115 q 214 1013 233 1047 m 150 860 q 194 859 172 860 q 239 858 216 858 q 276 993 251 932 q 204 997 251 993 q 173 931 185 966 q 150 860 160 895 m 131 704 l 224 704 q 235 841 224 774 q 191 842 212 841 q 147 845 170 843 q 131 704 131 770 m 147 546 q 190 548 168 546 q 235 550 212 550 q 227 619 230 584 q 224 689 224 654 l 131 689 q 147 546 131 619 m 204 394 q 276 399 251 397 q 237 534 253 455 q 193 532 214 534 q 150 530 172 530 q 204 394 172 453 m 318 251 q 336 252 326 251 q 357 253 345 253 q 282 384 314 305 q 247 380 264 382 q 212 378 230 378 q 318 251 251 309 m 434 179 q 429 181 432 179 q 426 185 426 183 q 368 237 386 216 q 336 235 347 237 q 337 234 336 235 q 338 233 338 233 q 383 202 359 216 q 434 179 407 187 m 781 235 q 762 236 775 235 q 747 237 748 237 q 681 179 714 201 q 682 179 681 179 q 685 179 683 179 q 781 235 737 203 m 903 378 q 835 384 882 380 q 760 253 801 307 q 778 252 770 253 q 799 251 787 251 q 856 310 831 276 q 903 378 882 343 m 965 530 q 920 532 941 530 q 878 534 899 534 q 845 409 866 475 q 842 403 843 405 q 841 399 841 401 q 877 395 858 397 q 912 394 895 394 q 965 530 949 463 m 986 689 l 891 689 q 882 550 891 627 q 924 548 903 550 q 968 546 945 546 q 977 592 974 569 q 984 640 980 615 q 985 664 984 652 q 986 689 986 675 m 968 845 q 924 842 945 843 q 882 841 903 841 q 891 704 891 764 l 986 704 q 980 774 986 739 q 968 845 974 810 m 912 997 q 841 993 862 993 q 878 858 868 914 q 920 859 899 858 q 965 860 941 860 q 912 997 941 939 m 799 1142 q 777 1139 787 1140 q 760 1138 768 1138 q 801 1076 783 1109 q 835 1009 818 1044 q 869 1010 853 1009 q 903 1013 885 1011 q 855 1081 882 1049 q 799 1142 828 1113 m 681 1211 q 747 1154 725 1181 q 779 1155 758 1155 q 732 1187 764 1171 q 681 1211 700 1204 m 313 1157 q 380 1204 341 1181 q 285 1159 338 1188 q 313 1157 305 1159 m 195 1015 q 293 1140 230 1080 q 294 1141 293 1140 q 295 1144 295 1142 q 279 1145 287 1144 q 264 1146 270 1146 q 197 1094 239 1128 q 129 1020 160 1059 q 195 1015 152 1019 m 135 862 q 187 999 154 941 q 153 1001 170 999 q 120 1005 137 1003 q 75 930 95 968 q 61 897 68 912 q 48 866 54 882 q 91 863 69 864 q 135 862 112 862 m 114 704 q 131 847 116 774 q 87 848 108 847 q 44 851 66 849 q 21 704 21 770 l 114 704 m 131 546 q 118 616 122 581 q 114 689 114 652 l 21 689 q 44 540 23 611 q 87 543 66 542 q 131 546 108 544 m 187 394 q 135 530 150 461 q 91 527 112 529 q 48 525 69 525 q 120 388 75 448 q 187 394 141 390 m 295 249 q 195 378 237 299 q 161 374 177 376 q 129 372 145 372 q 262 245 181 303 q 295 249 282 249 m 313 233 q 285 231 293 233 q 380 187 338 201 q 313 233 341 208 m 804 233 q 735 187 764 201 q 831 231 781 203 q 804 233 822 233 m 922 378 q 904 349 912 363 q 887 322 895 336 q 855 285 870 303 q 822 249 839 266 q 853 247 831 247 q 986 372 928 295 q 953 374 968 372 q 922 378 938 376 m 982 530 q 930 394 963 461 q 997 386 972 390 q 1067 525 1044 453 q 1023 527 1044 525 q 982 530 1003 529 m 1001 689 q 986 546 1001 619 q 1028 542 1007 544 q 1073 540 1049 540 q 1094 689 1094 615 l 1001 689 m 984 847 q 1001 704 1001 774 l 1094 704 q 1073 851 1094 774 q 1028 848 1049 849 q 984 847 1007 847 m 930 999 q 982 862 965 928 q 1022 863 1001 862 q 1067 866 1044 864 q 997 1005 1040 941 q 930 999 951 1001 m 820 1144 q 874 1083 849 1117 q 920 1015 899 1049 q 952 1017 936 1015 q 986 1020 968 1019 q 853 1146 928 1096 q 835 1145 843 1146 q 820 1144 828 1144 m 802 1157 q 829 1159 812 1159 q 735 1204 783 1184 q 802 1157 766 1186 m 594 1227 q 613 1188 606 1209 q 627 1150 621 1167 q 669 1152 656 1150 q 637 1193 656 1171 q 594 1227 617 1215 z "},"J":{"ha":1165,"x_min":-8,"x_max":1111,"o":"m 586 1250 q 696 1233 639 1244 q 866 1155 783 1206 q 984 1047 928 1111 q 1044 959 1017 1005 q 1100 806 1084 876 q 1111 666 1111 737 q 1094 556 1105 610 q 1067 478 1078 505 q 845 220 995 318 q 721 164 785 185 q 557 139 642 141 q 502 142 529 139 q 448 150 475 145 q 272 220 355 170 q 100 384 164 289 q 79 419 89 401 q 60 453 69 436 q 31 530 41 492 q 17 806 -8 664 q 131 1047 48 938 q 167 1086 149 1067 q 206 1123 185 1105 q 295 1182 247 1155 q 502 1246 394 1231 q 543 1249 523 1248 q 586 1250 563 1250 m 505 1150 q 550 1148 521 1148 l 550 1233 q 533 1215 540 1227 q 523 1196 527 1204 q 513 1173 517 1184 q 505 1150 509 1161 m 475 986 q 466 918 469 951 q 461 853 463 885 q 505 853 484 853 q 550 853 527 853 l 550 984 q 475 986 500 984 m 461 837 q 458 770 459 802 q 457 704 457 737 l 550 704 l 550 837 q 504 837 527 837 q 461 837 482 837 m 457 689 q 458 621 457 654 q 461 556 459 588 q 504 556 482 556 q 550 556 527 556 l 550 689 l 457 689 m 473 407 q 511 407 492 407 q 550 407 530 407 l 550 540 q 505 540 527 540 q 461 540 484 540 q 462 536 461 538 q 463 534 463 534 q 466 470 463 502 q 473 407 469 438 m 550 158 l 550 243 q 528 243 538 243 q 505 243 517 243 q 522 195 511 222 q 550 158 532 168 m 559 156 q 557 156 561 156 q 554 156 552 156 q 556 156 554 156 q 559 156 557 156 m 610 243 q 587 243 598 243 q 565 243 577 243 l 565 158 q 593 196 583 168 q 610 243 604 224 m 615 258 q 640 392 629 313 q 602 392 621 392 q 565 392 583 392 l 565 258 q 589 258 577 258 q 615 258 602 258 m 565 1233 l 565 1148 q 610 1150 596 1148 q 593 1195 604 1169 q 565 1233 583 1221 m 490 1150 q 521 1225 500 1196 q 478 1193 498 1213 q 446 1150 459 1173 q 468 1150 457 1150 q 490 1150 478 1150 m 457 986 q 419 987 438 986 q 382 988 399 988 q 357 855 367 928 q 400 853 378 853 q 446 853 422 853 q 449 918 446 885 q 457 986 453 951 m 446 837 q 400 837 422 837 q 355 839 378 837 q 349 704 349 770 l 442 704 q 442 770 442 737 q 446 837 442 802 m 442 689 l 349 689 q 357 554 349 611 q 400 555 378 554 q 446 556 422 556 q 442 621 442 588 q 442 689 442 654 m 457 407 q 457 408 457 407 q 457 411 457 409 q 449 474 451 442 q 446 538 448 505 q 401 538 422 538 q 357 538 380 538 q 382 405 367 459 q 457 407 432 405 m 521 166 q 502 203 509 181 q 488 243 494 224 q 446 241 475 241 q 521 166 480 183 m 627 243 q 613 203 621 224 q 596 166 606 181 q 637 198 619 177 q 669 241 654 218 q 627 243 642 241 m 656 390 q 656 389 656 390 q 656 388 656 388 q 633 258 646 318 q 679 257 664 258 q 708 320 696 287 q 731 388 720 353 q 656 390 706 390 m 658 407 q 696 406 677 407 q 735 405 716 405 q 758 538 748 463 q 714 538 735 538 q 669 538 693 538 q 658 407 666 473 m 671 556 q 715 555 693 556 q 760 554 737 554 q 768 689 768 610 l 675 689 q 673 621 675 654 q 671 556 671 588 m 675 704 l 768 704 q 760 839 768 779 q 715 837 737 837 q 671 837 693 837 q 673 770 671 802 q 675 704 675 737 m 658 986 q 669 853 666 918 q 714 853 693 853 q 758 855 735 853 q 735 988 748 920 q 695 986 716 986 q 658 986 675 986 m 390 1154 q 428 1152 403 1152 q 452 1186 440 1169 q 482 1219 465 1204 q 390 1154 434 1198 m 299 1007 q 335 1004 316 1005 q 370 1003 353 1003 q 421 1136 388 1078 q 376 1138 392 1136 q 299 1007 332 1086 m 255 856 q 297 856 276 856 q 341 855 318 855 q 367 988 351 928 q 329 989 347 988 q 293 992 311 990 q 255 856 266 936 m 251 841 q 239 704 241 770 l 332 704 q 334 771 332 737 q 340 839 336 804 q 295 839 316 839 q 251 841 274 839 m 251 550 q 296 551 274 550 q 341 554 318 552 q 334 620 336 586 q 332 689 332 654 l 239 689 q 242 623 239 656 q 249 559 245 590 q 251 550 251 557 m 291 399 q 367 403 341 403 q 341 538 349 463 q 297 535 318 536 q 255 534 276 534 q 291 399 266 459 m 482 172 q 428 241 451 199 q 407 240 417 241 q 390 239 397 239 q 482 172 430 193 m 727 239 q 707 240 716 239 q 689 241 698 241 q 688 238 689 239 q 687 237 687 237 q 663 203 675 220 q 635 172 650 185 q 721 233 675 191 q 723 235 721 233 q 727 239 725 237 m 818 386 q 782 387 801 386 q 747 388 764 388 q 696 257 729 322 q 719 256 708 257 q 741 255 729 255 q 818 386 789 316 m 862 534 q 818 535 839 534 q 775 538 797 536 q 750 403 766 463 q 787 402 768 403 q 824 401 806 401 q 845 466 835 432 q 862 534 855 500 q 862 534 862 534 q 862 534 862 534 m 864 552 q 878 689 874 610 l 783 689 q 777 554 783 619 q 820 552 799 552 q 864 552 841 552 m 878 704 q 864 841 874 777 q 820 839 841 839 q 775 839 799 839 q 783 704 783 779 l 878 704 m 824 992 q 786 989 804 990 q 750 988 768 988 q 774 855 768 920 q 818 856 797 855 q 862 856 839 856 q 824 992 845 934 m 741 1138 q 696 1136 725 1136 q 747 1003 729 1069 q 781 1004 764 1003 q 818 1007 799 1005 q 741 1138 785 1076 m 635 1219 q 689 1152 662 1192 q 725 1154 714 1152 q 637 1219 691 1192 q 635 1219 635 1219 q 635 1219 635 1219 m 338 1155 q 370 1154 359 1155 q 436 1211 397 1190 l 432 1211 q 338 1155 376 1186 m 214 1013 q 282 1009 257 1009 q 357 1138 311 1082 q 337 1139 345 1138 q 318 1142 328 1140 q 259 1081 285 1115 q 214 1013 233 1047 m 150 860 q 194 859 172 860 q 239 858 216 858 q 276 993 251 932 q 204 997 251 993 q 173 931 185 966 q 150 860 160 895 m 131 704 l 224 704 q 235 841 224 774 q 191 842 212 841 q 147 845 170 843 q 131 704 131 770 m 147 546 q 190 548 168 546 q 235 550 212 550 q 227 619 230 584 q 224 689 224 654 l 131 689 q 147 546 131 619 m 434 179 q 429 181 432 179 q 426 185 426 183 q 368 237 386 216 q 336 235 347 237 q 337 234 336 235 q 338 233 338 233 q 383 202 359 216 q 434 179 407 187 m 781 235 q 762 236 775 235 q 747 237 748 237 q 681 179 714 201 q 682 179 681 179 q 685 179 683 179 q 781 235 737 203 m 903 378 q 835 384 882 380 q 760 253 801 307 q 778 252 770 253 q 799 251 787 251 q 856 310 831 276 q 903 378 882 343 m 965 530 q 920 532 941 530 q 878 534 899 534 q 845 409 866 475 q 842 403 843 405 q 841 399 841 401 q 877 395 858 397 q 912 394 895 394 q 965 530 949 463 m 986 689 l 891 689 q 882 550 891 627 q 924 548 903 550 q 968 546 945 546 q 977 592 974 569 q 984 640 980 615 q 985 664 984 652 q 986 689 986 675 m 968 845 q 924 842 945 843 q 882 841 903 841 q 891 704 891 764 l 986 704 q 980 774 986 739 q 968 845 974 810 m 912 997 q 841 993 862 993 q 878 858 868 914 q 920 859 899 858 q 965 860 941 860 q 912 997 941 939 m 799 1142 q 777 1139 787 1140 q 760 1138 768 1138 q 801 1076 783 1109 q 835 1009 818 1044 q 869 1010 853 1009 q 903 1013 885 1011 q 855 1081 882 1049 q 799 1142 828 1113 m 681 1211 q 747 1154 725 1181 q 779 1155 758 1155 q 732 1187 764 1171 q 681 1211 700 1204 m 313 1157 q 380 1204 341 1181 q 285 1159 338 1188 q 313 1157 305 1159 m 195 1015 q 293 1140 230 1080 q 294 1141 293 1140 q 295 1144 295 1142 q 279 1145 287 1144 q 264 1146 270 1146 q 197 1094 239 1128 q 129 1020 160 1059 q 195 1015 152 1019 m 135 862 q 187 999 154 941 q 153 1001 170 999 q 120 1005 137 1003 q 75 930 95 968 q 61 897 68 912 q 48 866 54 882 q 91 863 69 864 q 135 862 112 862 m 114 704 q 131 847 116 774 q 87 848 108 847 q 44 851 66 849 q 21 704 21 770 l 114 704 m 131 546 q 118 616 122 581 q 114 689 114 652 l 21 689 q 44 540 23 611 q 87 543 66 542 q 131 546 108 544 m 187 394 q 135 530 150 461 q 91 527 112 529 q 48 525 69 525 q 120 388 75 448 q 187 394 141 390 m 295 249 q 195 378 237 299 q 161 374 177 376 q 129 372 145 372 q 262 245 181 303 q 295 249 282 249 m 313 233 q 285 231 293 233 q 380 187 338 201 q 313 233 341 208 m 804 233 q 735 187 764 201 q 831 231 781 203 q 804 233 822 233 m 922 378 q 904 349 912 363 q 887 322 895 336 q 855 285 870 303 q 822 249 839 266 q 853 247 831 247 q 986 372 928 295 q 953 374 968 372 q 922 378 938 376 m 982 530 q 930 394 963 461 q 997 386 972 390 q 1067 525 1044 453 q 1023 527 1044 525 q 982 530 1003 529 m 1001 689 q 986 546 1001 619 q 1028 542 1007 544 q 1073 540 1049 540 q 1094 689 1094 615 l 1001 689 m 984 847 q 1001 704 1001 774 l 1094 704 q 1073 851 1094 774 q 1028 848 1049 849 q 984 847 1007 847 m 930 999 q 982 862 965 928 q 1022 863 1001 862 q 1067 866 1044 864 q 997 1005 1040 941 q 930 999 951 1001 m 820 1144 q 874 1083 849 1117 q 920 1015 899 1049 q 952 1017 936 1015 q 986 1020 968 1019 q 853 1146 928 1096 q 835 1145 843 1146 q 820 1144 828 1144 m 802 1157 q 829 1159 812 1159 q 735 1204 783 1184 q 802 1157 766 1186 m 594 1227 q 613 1188 606 1209 q 627 1150 621 1167 q 669 1152 656 1150 q 637 1193 656 1171 q 594 1227 617 1215 z "},"K":{"ha":1165,"x_min":-8,"x_max":1111,"o":"m 586 1250 q 696 1233 639 1244 q 866 1155 783 1206 q 984 1047 928 1111 q 1044 959 1017 1005 q 1100 806 1084 876 q 1111 666 1111 737 q 1094 556 1105 610 q 1067 478 1078 505 q 845 220 995 318 q 721 164 785 185 q 557 139 642 141 q 502 142 529 139 q 448 150 475 145 q 272 220 355 170 q 100 384 164 289 q 79 419 89 401 q 60 453 69 436 q 31 530 41 492 q 17 806 -8 664 q 131 1047 48 938 q 167 1086 149 1067 q 206 1123 185 1105 q 295 1182 247 1155 q 502 1246 394 1231 q 543 1249 523 1248 q 586 1250 563 1250 m 505 1150 q 550 1148 521 1148 l 550 1233 q 533 1215 540 1227 q 523 1196 527 1204 q 513 1173 517 1184 q 505 1150 509 1161 m 476 1001 q 512 1000 494 1001 q 550 999 530 999 l 550 1132 q 526 1132 538 1132 q 502 1132 513 1132 q 476 1001 486 1074 m 475 986 q 466 918 469 951 q 461 853 463 885 q 505 853 484 853 q 550 853 527 853 l 550 984 q 475 986 500 984 m 461 837 q 458 770 459 802 q 457 704 457 737 l 550 704 l 550 837 q 504 837 527 837 q 461 837 482 837 m 457 689 q 458 621 457 654 q 461 556 459 588 q 504 556 482 556 q 550 556 527 556 l 550 689 l 457 689 m 473 407 q 511 407 492 407 q 550 407 530 407 l 550 540 q 505 540 527 540 q 461 540 484 540 q 462 536 461 538 q 463 534 463 534 q 466 470 463 502 q 473 407 469 438 m 476 390 q 502 258 486 314 q 526 258 513 258 q 550 258 538 258 l 550 392 q 476 390 502 392 m 550 158 l 550 243 q 528 243 538 243 q 505 243 517 243 q 522 195 511 222 q 550 158 532 168 m 559 156 q 557 156 561 156 q 554 156 552 156 q 556 156 554 156 q 559 156 557 156 m 610 243 q 587 243 598 243 q 565 243 577 243 l 565 158 q 593 196 583 168 q 610 243 604 224 m 565 1233 l 565 1148 q 610 1150 596 1148 q 593 1195 604 1169 q 565 1233 583 1221 m 490 1150 q 521 1225 500 1196 q 478 1193 498 1213 q 446 1150 459 1173 q 468 1150 457 1150 q 490 1150 478 1150 m 459 1001 q 459 1001 459 1001 q 459 1003 459 1001 q 470 1067 465 1034 q 484 1134 475 1100 q 461 1134 473 1134 q 438 1134 449 1134 q 386 1003 409 1084 q 459 1001 411 1001 m 457 986 q 419 987 438 986 q 382 988 399 988 q 357 855 367 928 q 400 853 378 853 q 446 853 422 853 q 449 918 446 885 q 457 986 453 951 m 446 837 q 400 837 422 837 q 355 839 378 837 q 349 704 349 770 l 442 704 q 442 770 442 737 q 446 837 442 802 m 442 689 l 349 689 q 357 554 349 611 q 400 555 378 554 q 446 556 422 556 q 442 621 442 588 q 442 689 442 654 m 457 407 q 457 408 457 407 q 457 411 457 409 q 449 474 451 442 q 446 538 448 505 q 401 538 422 538 q 357 538 380 538 q 382 405 367 459 q 457 407 432 405 m 459 390 q 386 388 411 390 q 408 319 395 353 q 438 257 421 285 q 461 258 449 257 q 484 258 473 258 q 469 323 475 289 q 459 390 463 357 m 521 166 q 502 203 509 181 q 488 243 494 224 q 446 241 475 241 q 521 166 480 183 m 627 243 q 613 203 621 224 q 596 166 606 181 q 637 198 619 177 q 669 241 654 218 q 627 243 642 241 m 656 390 q 656 389 656 390 q 656 388 656 388 q 633 258 646 318 q 679 257 664 258 q 708 320 696 287 q 731 388 720 353 q 656 390 706 390 m 658 407 q 696 406 677 407 q 735 405 716 405 q 758 538 748 463 q 714 538 735 538 q 669 538 693 538 q 658 407 666 473 m 675 704 l 768 704 q 760 839 768 779 q 715 837 737 837 q 671 837 693 837 q 673 770 671 802 q 675 704 675 737 m 658 986 q 669 853 666 918 q 714 853 693 853 q 758 855 735 853 q 735 988 748 920 q 695 986 716 986 q 658 986 675 986 m 656 1001 q 693 1002 673 1001 q 731 1003 712 1003 q 679 1134 710 1074 q 655 1134 667 1134 q 631 1134 642 1134 q 656 1001 646 1074 m 390 1154 q 428 1152 403 1152 q 452 1186 440 1169 q 482 1219 465 1204 q 390 1154 434 1198 m 299 1007 q 335 1004 316 1005 q 370 1003 353 1003 q 421 1136 388 1078 q 376 1138 392 1136 q 299 1007 332 1086 m 255 856 q 297 856 276 856 q 341 855 318 855 q 367 988 351 928 q 329 989 347 988 q 293 992 311 990 q 255 856 266 936 m 251 841 q 239 704 241 770 l 332 704 q 334 771 332 737 q 340 839 336 804 q 295 839 316 839 q 251 841 274 839 m 251 550 q 296 551 274 550 q 341 554 318 552 q 334 620 336 586 q 332 689 332 654 l 239 689 q 242 623 239 656 q 249 559 245 590 q 251 550 251 557 m 291 399 q 367 403 341 403 q 341 538 349 463 q 297 535 318 536 q 255 534 276 534 q 291 399 266 459 m 376 255 q 421 257 405 255 q 370 388 390 313 q 335 385 353 386 q 299 384 316 384 q 376 255 330 307 m 482 172 q 428 241 451 199 q 407 240 417 241 q 390 239 397 239 q 482 172 430 193 m 727 239 q 707 240 716 239 q 689 241 698 241 q 688 238 689 239 q 687 237 687 237 q 663 203 675 220 q 635 172 650 185 q 721 233 675 191 q 723 235 721 233 q 727 239 725 237 m 818 386 q 782 387 801 386 q 747 388 764 388 q 696 257 729 322 q 719 256 708 257 q 741 255 729 255 q 818 386 789 316 m 864 552 q 878 689 874 610 l 783 689 q 777 554 783 619 q 820 552 799 552 q 864 552 841 552 m 824 992 q 786 989 804 990 q 750 988 768 988 q 774 855 768 920 q 818 856 797 855 q 862 856 839 856 q 824 992 845 934 m 741 1138 q 696 1136 725 1136 q 747 1003 729 1069 q 781 1004 764 1003 q 818 1007 799 1005 q 741 1138 785 1076 m 635 1219 q 689 1152 662 1192 q 725 1154 714 1152 q 637 1219 691 1192 q 635 1219 635 1219 q 635 1219 635 1219 m 338 1155 q 370 1154 359 1155 q 436 1211 397 1190 l 432 1211 q 338 1155 376 1186 m 214 1013 q 282 1009 257 1009 q 357 1138 311 1082 q 337 1139 345 1138 q 318 1142 328 1140 q 259 1081 285 1115 q 214 1013 233 1047 m 150 860 q 194 859 172 860 q 239 858 216 858 q 276 993 251 932 q 204 997 251 993 q 173 931 185 966 q 150 860 160 895 m 131 704 l 224 704 q 235 841 224 774 q 191 842 212 841 q 147 845 170 843 q 131 704 131 770 m 147 546 q 190 548 168 546 q 235 550 212 550 q 227 619 230 584 q 224 689 224 654 l 131 689 q 147 546 131 619 m 204 394 q 276 399 251 397 q 237 534 253 455 q 193 532 214 534 q 150 530 172 530 q 204 394 172 453 m 318 251 q 336 252 326 251 q 357 253 345 253 q 282 384 314 305 q 247 380 264 382 q 212 378 230 378 q 318 251 251 309 m 434 179 q 429 181 432 179 q 426 185 426 183 q 368 237 386 216 q 336 235 347 237 q 337 234 336 235 q 338 233 338 233 q 383 202 359 216 q 434 179 407 187 m 781 235 q 762 236 775 235 q 747 237 748 237 q 681 179 714 201 q 682 179 681 179 q 685 179 683 179 q 781 235 737 203 m 965 530 q 920 532 941 530 q 878 534 899 534 q 845 409 866 475 q 842 403 843 405 q 841 399 841 401 q 877 395 858 397 q 912 394 895 394 q 965 530 949 463 m 986 689 l 891 689 q 882 550 891 627 q 924 548 903 550 q 968 546 945 546 q 977 592 974 569 q 984 640 980 615 q 985 664 984 652 q 986 689 986 675 m 968 845 q 924 842 945 843 q 882 841 903 841 q 891 704 891 764 l 986 704 q 980 774 986 739 q 968 845 974 810 m 799 1142 q 777 1139 787 1140 q 760 1138 768 1138 q 801 1076 783 1109 q 835 1009 818 1044 q 869 1010 853 1009 q 903 1013 885 1011 q 855 1081 882 1049 q 799 1142 828 1113 m 681 1211 q 747 1154 725 1181 q 779 1155 758 1155 q 732 1187 764 1171 q 681 1211 700 1204 m 313 1157 q 380 1204 341 1181 q 285 1159 338 1188 q 313 1157 305 1159 m 195 1015 q 293 1140 230 1080 q 294 1141 293 1140 q 295 1144 295 1142 q 279 1145 287 1144 q 264 1146 270 1146 q 197 1094 239 1128 q 129 1020 160 1059 q 195 1015 152 1019 m 135 862 q 187 999 154 941 q 153 1001 170 999 q 120 1005 137 1003 q 75 930 95 968 q 61 897 68 912 q 48 866 54 882 q 91 863 69 864 q 135 862 112 862 m 114 704 q 131 847 116 774 q 87 848 108 847 q 44 851 66 849 q 21 704 21 770 l 114 704 m 131 546 q 118 616 122 581 q 114 689 114 652 l 21 689 q 44 540 23 611 q 87 543 66 542 q 131 546 108 544 m 187 394 q 135 530 150 461 q 91 527 112 529 q 48 525 69 525 q 120 388 75 448 q 187 394 141 390 m 295 249 q 195 378 237 299 q 161 374 177 376 q 129 372 145 372 q 262 245 181 303 q 295 249 282 249 m 313 233 q 285 231 293 233 q 380 187 338 201 q 313 233 341 208 m 804 233 q 735 187 764 201 q 831 231 781 203 q 804 233 822 233 m 922 378 q 904 349 912 363 q 887 322 895 336 q 855 285 870 303 q 822 249 839 266 q 853 247 831 247 q 986 372 928 295 q 953 374 968 372 q 922 378 938 376 m 982 530 q 930 394 963 461 q 997 386 972 390 q 1067 525 1044 453 q 1023 527 1044 525 q 982 530 1003 529 m 1001 689 q 986 546 1001 619 q 1028 542 1007 544 q 1073 540 1049 540 q 1094 689 1094 615 l 1001 689 m 984 847 q 1001 704 1001 774 l 1094 704 q 1073 851 1094 774 q 1028 848 1049 849 q 984 847 1007 847 m 930 999 q 982 862 965 928 q 1022 863 1001 862 q 1067 866 1044 864 q 997 1005 1040 941 q 930 999 951 1001 m 802 1157 q 829 1159 812 1159 q 735 1204 783 1184 q 802 1157 766 1186 m 594 1227 q 613 1188 606 1209 q 627 1150 621 1167 q 669 1152 656 1150 q 637 1193 656 1171 q 594 1227 617 1215 z "},"L":{"ha":1165,"x_min":-8,"x_max":1111,"o":"m 586 1250 q 696 1233 639 1244 q 866 1155 783 1206 q 984 1047 928 1111 q 1044 959 1017 1005 q 1100 806 1084 876 q 1111 666 1111 737 q 1094 556 1105 610 q 1067 478 1078 505 q 845 220 995 318 q 721 164 785 185 q 557 139 642 141 q 502 142 529 139 q 448 150 475 145 q 272 220 355 170 q 100 384 164 289 q 79 419 89 401 q 60 453 69 436 q 31 530 41 492 q 17 806 -8 664 q 131 1047 48 938 q 167 1086 149 1067 q 206 1123 185 1105 q 295 1182 247 1155 q 502 1246 394 1231 q 543 1249 523 1248 q 586 1250 563 1250 m 505 1150 q 550 1148 521 1148 l 550 1233 q 533 1215 540 1227 q 523 1196 527 1204 q 513 1173 517 1184 q 505 1150 509 1161 m 476 1001 q 512 1000 494 1001 q 550 999 530 999 l 550 1132 q 526 1132 538 1132 q 502 1132 513 1132 q 476 1001 486 1074 m 475 986 q 466 918 469 951 q 461 853 463 885 q 505 853 484 853 q 550 853 527 853 l 550 984 q 475 986 500 984 m 461 837 q 458 770 459 802 q 457 704 457 737 l 550 704 l 550 837 q 504 837 527 837 q 461 837 482 837 m 457 689 q 458 621 457 654 q 461 556 459 588 q 504 556 482 556 q 550 556 527 556 l 550 689 l 457 689 m 473 407 q 511 407 492 407 q 550 407 530 407 l 550 540 q 505 540 527 540 q 461 540 484 540 q 462 536 461 538 q 463 534 463 534 q 466 470 463 502 q 473 407 469 438 m 476 390 q 502 258 486 314 q 526 258 513 258 q 550 258 538 258 l 550 392 q 476 390 502 392 m 550 158 l 550 243 q 528 243 538 243 q 505 243 517 243 q 522 195 511 222 q 550 158 532 168 m 559 156 q 557 156 561 156 q 554 156 552 156 q 556 156 554 156 q 559 156 557 156 m 610 243 q 587 243 598 243 q 565 243 577 243 l 565 158 q 593 196 583 168 q 610 243 604 224 m 615 258 q 640 392 629 313 q 602 392 621 392 q 565 392 583 392 l 565 258 q 589 258 577 258 q 615 258 602 258 m 654 538 q 610 539 631 538 q 565 540 588 540 l 565 407 q 604 407 584 407 q 642 407 623 407 q 654 538 650 473 m 654 556 q 657 621 656 588 q 658 689 658 654 l 565 689 l 565 556 q 610 556 588 556 q 654 556 631 556 m 658 704 q 657 770 658 737 q 654 837 656 802 q 610 837 631 837 q 565 837 588 837 l 565 704 l 658 704 m 642 986 q 565 984 617 984 l 565 853 q 610 853 588 853 q 654 853 631 853 q 642 986 650 918 m 640 1001 q 615 1134 631 1074 q 565 1132 598 1132 l 565 999 q 602 1000 583 999 q 640 1001 621 1001 m 565 1233 l 565 1148 q 610 1150 596 1148 q 593 1195 604 1169 q 565 1233 583 1221 m 490 1150 q 521 1225 500 1196 q 478 1193 498 1213 q 446 1150 459 1173 q 468 1150 457 1150 q 490 1150 478 1150 m 459 1001 q 459 1001 459 1001 q 459 1003 459 1001 q 470 1067 465 1034 q 484 1134 475 1100 q 461 1134 473 1134 q 438 1134 449 1134 q 386 1003 409 1084 q 459 1001 411 1001 m 457 986 q 419 987 438 986 q 382 988 399 988 q 357 855 367 928 q 400 853 378 853 q 446 853 422 853 q 449 918 446 885 q 457 986 453 951 m 446 837 q 400 837 422 837 q 355 839 378 837 q 349 704 349 770 l 442 704 q 442 770 442 737 q 446 837 442 802 m 442 689 l 349 689 q 357 554 349 611 q 400 555 378 554 q 446 556 422 556 q 442 621 442 588 q 442 689 442 654 m 457 407 q 457 408 457 407 q 457 411 457 409 q 449 474 451 442 q 446 538 448 505 q 401 538 422 538 q 357 538 380 538 q 382 405 367 459 q 457 407 432 405 m 459 390 q 386 388 411 390 q 408 319 395 353 q 438 257 421 285 q 461 258 449 257 q 484 258 473 258 q 469 323 475 289 q 459 390 463 357 m 521 166 q 502 203 509 181 q 488 243 494 224 q 446 241 475 241 q 521 166 480 183 m 627 243 q 613 203 621 224 q 596 166 606 181 q 637 198 619 177 q 669 241 654 218 q 627 243 642 241 m 656 390 q 656 389 656 390 q 656 388 656 388 q 633 258 646 318 q 679 257 664 258 q 708 320 696 287 q 731 388 720 353 q 656 390 706 390 m 658 407 q 696 406 677 407 q 735 405 716 405 q 758 538 748 463 q 714 538 735 538 q 669 538 693 538 q 658 407 666 473 m 390 1154 q 428 1152 403 1152 q 452 1186 440 1169 q 482 1219 465 1204 q 390 1154 434 1198 m 299 1007 q 335 1004 316 1005 q 370 1003 353 1003 q 421 1136 388 1078 q 376 1138 392 1136 q 299 1007 332 1086 m 255 856 q 297 856 276 856 q 341 855 318 855 q 367 988 351 928 q 329 989 347 988 q 293 992 311 990 q 255 856 266 936 m 251 841 q 239 704 241 770 l 332 704 q 334 771 332 737 q 340 839 336 804 q 295 839 316 839 q 251 841 274 839 m 251 550 q 296 551 274 550 q 341 554 318 552 q 334 620 336 586 q 332 689 332 654 l 239 689 q 242 623 239 656 q 249 559 245 590 q 251 550 251 557 m 291 399 q 367 403 341 403 q 341 538 349 463 q 297 535 318 536 q 255 534 276 534 q 291 399 266 459 m 376 255 q 421 257 405 255 q 370 388 390 313 q 335 385 353 386 q 299 384 316 384 q 376 255 330 307 m 482 172 q 428 241 451 199 q 407 240 417 241 q 390 239 397 239 q 482 172 430 193 m 727 239 q 707 240 716 239 q 689 241 698 241 q 688 238 689 239 q 687 237 687 237 q 663 203 675 220 q 635 172 650 185 q 721 233 675 191 q 723 235 721 233 q 727 239 725 237 m 818 386 q 782 387 801 386 q 747 388 764 388 q 696 257 729 322 q 719 256 708 257 q 741 255 729 255 q 818 386 789 316 m 862 534 q 818 535 839 534 q 775 538 797 536 q 750 403 766 463 q 787 402 768 403 q 824 401 806 401 q 845 466 835 432 q 862 534 855 500 q 862 534 862 534 q 862 534 862 534 m 878 704 q 864 841 874 777 q 820 839 841 839 q 775 839 799 839 q 783 704 783 779 l 878 704 m 824 992 q 786 989 804 990 q 750 988 768 988 q 774 855 768 920 q 818 856 797 855 q 862 856 839 856 q 824 992 845 934 m 741 1138 q 696 1136 725 1136 q 747 1003 729 1069 q 781 1004 764 1003 q 818 1007 799 1005 q 741 1138 785 1076 m 635 1219 q 689 1152 662 1192 q 725 1154 714 1152 q 637 1219 691 1192 q 635 1219 635 1219 q 635 1219 635 1219 m 338 1155 q 370 1154 359 1155 q 436 1211 397 1190 l 432 1211 q 338 1155 376 1186 m 214 1013 q 282 1009 257 1009 q 357 1138 311 1082 q 337 1139 345 1138 q 318 1142 328 1140 q 259 1081 285 1115 q 214 1013 233 1047 m 150 860 q 194 859 172 860 q 239 858 216 858 q 276 993 251 932 q 204 997 251 993 q 173 931 185 966 q 150 860 160 895 m 131 704 l 224 704 q 235 841 224 774 q 191 842 212 841 q 147 845 170 843 q 131 704 131 770 m 147 546 q 190 548 168 546 q 235 550 212 550 q 227 619 230 584 q 224 689 224 654 l 131 689 q 147 546 131 619 m 204 394 q 276 399 251 397 q 237 534 253 455 q 193 532 214 534 q 150 530 172 530 q 204 394 172 453 m 318 251 q 336 252 326 251 q 357 253 345 253 q 282 384 314 305 q 247 380 264 382 q 212 378 230 378 q 318 251 251 309 m 434 179 q 429 181 432 179 q 426 185 426 183 q 368 237 386 216 q 336 235 347 237 q 337 234 336 235 q 338 233 338 233 q 383 202 359 216 q 434 179 407 187 m 781 235 q 762 236 775 235 q 747 237 748 237 q 681 179 714 201 q 682 179 681 179 q 685 179 683 179 q 781 235 737 203 m 903 378 q 835 384 882 380 q 760 253 801 307 q 778 252 770 253 q 799 251 787 251 q 856 310 831 276 q 903 378 882 343 m 965 530 q 920 532 941 530 q 878 534 899 534 q 845 409 866 475 q 842 403 843 405 q 841 399 841 401 q 877 395 858 397 q 912 394 895 394 q 965 530 949 463 m 968 845 q 924 842 945 843 q 882 841 903 841 q 891 704 891 764 l 986 704 q 980 774 986 739 q 968 845 974 810 m 912 997 q 841 993 862 993 q 878 858 868 914 q 920 859 899 858 q 965 860 941 860 q 912 997 941 939 m 799 1142 q 777 1139 787 1140 q 760 1138 768 1138 q 801 1076 783 1109 q 835 1009 818 1044 q 869 1010 853 1009 q 903 1013 885 1011 q 855 1081 882 1049 q 799 1142 828 1113 m 681 1211 q 747 1154 725 1181 q 779 1155 758 1155 q 732 1187 764 1171 q 681 1211 700 1204 m 313 1157 q 380 1204 341 1181 q 285 1159 338 1188 q 313 1157 305 1159 m 195 1015 q 293 1140 230 1080 q 294 1141 293 1140 q 295 1144 295 1142 q 279 1145 287 1144 q 264 1146 270 1146 q 197 1094 239 1128 q 129 1020 160 1059 q 195 1015 152 1019 m 135 862 q 187 999 154 941 q 153 1001 170 999 q 120 1005 137 1003 q 75 930 95 968 q 61 897 68 912 q 48 866 54 882 q 91 863 69 864 q 135 862 112 862 m 114 704 q 131 847 116 774 q 87 848 108 847 q 44 851 66 849 q 21 704 21 770 l 114 704 m 131 546 q 118 616 122 581 q 114 689 114 652 l 21 689 q 44 540 23 611 q 87 543 66 542 q 131 546 108 544 m 187 394 q 135 530 150 461 q 91 527 112 529 q 48 525 69 525 q 120 388 75 448 q 187 394 141 390 m 295 249 q 195 378 237 299 q 161 374 177 376 q 129 372 145 372 q 262 245 181 303 q 295 249 282 249 m 313 233 q 285 231 293 233 q 380 187 338 201 q 313 233 341 208 m 804 233 q 735 187 764 201 q 831 231 781 203 q 804 233 822 233 m 922 378 q 904 349 912 363 q 887 322 895 336 q 855 285 870 303 q 822 249 839 266 q 853 247 831 247 q 986 372 928 295 q 953 374 968 372 q 922 378 938 376 m 982 530 q 930 394 963 461 q 997 386 972 390 q 1067 525 1044 453 q 1023 527 1044 525 q 982 530 1003 529 m 984 847 q 1001 704 1001 774 l 1094 704 q 1073 851 1094 774 q 1028 848 1049 849 q 984 847 1007 847 m 930 999 q 982 862 965 928 q 1022 863 1001 862 q 1067 866 1044 864 q 997 1005 1040 941 q 930 999 951 1001 m 820 1144 q 874 1083 849 1117 q 920 1015 899 1049 q 952 1017 936 1015 q 986 1020 968 1019 q 853 1146 928 1096 q 835 1145 843 1146 q 820 1144 828 1144 m 802 1157 q 829 1159 812 1159 q 735 1204 783 1184 q 802 1157 766 1186 z "},"M":{"ha":1165,"x_min":-8,"x_max":1111,"o":"m 586 1250 q 696 1233 639 1244 q 866 1155 783 1206 q 984 1047 928 1111 q 1044 959 1017 1005 q 1100 806 1084 876 q 1111 666 1111 737 q 1094 556 1105 610 q 1067 478 1078 505 q 845 220 995 318 q 721 164 785 185 q 557 139 642 141 q 502 142 529 139 q 448 150 475 145 q 272 220 355 170 q 100 384 164 289 q 79 419 89 401 q 60 453 69 436 q 31 530 41 492 q 17 806 -8 664 q 131 1047 48 938 q 167 1086 149 1067 q 206 1123 185 1105 q 295 1182 247 1155 q 502 1246 394 1231 q 543 1249 523 1248 q 586 1250 563 1250 m 505 1150 q 550 1148 521 1148 l 550 1233 q 533 1215 540 1227 q 523 1196 527 1204 q 513 1173 517 1184 q 505 1150 509 1161 m 476 1001 q 512 1000 494 1001 q 550 999 530 999 l 550 1132 q 526 1132 538 1132 q 502 1132 513 1132 q 476 1001 486 1074 m 461 837 q 458 770 459 802 q 457 704 457 737 l 550 704 l 550 837 q 504 837 527 837 q 461 837 482 837 m 457 689 q 458 621 457 654 q 461 556 459 588 q 504 556 482 556 q 550 556 527 556 l 550 689 l 457 689 m 473 407 q 511 407 492 407 q 550 407 530 407 l 550 540 q 505 540 527 540 q 461 540 484 540 q 462 536 461 538 q 463 534 463 534 q 466 470 463 502 q 473 407 469 438 m 476 390 q 502 258 486 314 q 526 258 513 258 q 550 258 538 258 l 550 392 q 476 390 502 392 m 550 158 l 550 243 q 528 243 538 243 q 505 243 517 243 q 522 195 511 222 q 550 158 532 168 m 559 156 q 557 156 561 156 q 554 156 552 156 q 556 156 554 156 q 559 156 557 156 m 610 243 q 587 243 598 243 q 565 243 577 243 l 565 158 q 593 196 583 168 q 610 243 604 224 m 615 258 q 640 392 629 313 q 602 392 621 392 q 565 392 583 392 l 565 258 q 589 258 577 258 q 615 258 602 258 m 565 1233 l 565 1148 q 610 1150 596 1148 q 593 1195 604 1169 q 565 1233 583 1221 m 490 1150 q 521 1225 500 1196 q 478 1193 498 1213 q 446 1150 459 1173 q 468 1150 457 1150 q 490 1150 478 1150 m 459 1001 q 459 1001 459 1001 q 459 1003 459 1001 q 470 1067 465 1034 q 484 1134 475 1100 q 461 1134 473 1134 q 438 1134 449 1134 q 386 1003 409 1084 q 459 1001 411 1001 m 457 986 q 419 987 438 986 q 382 988 399 988 q 357 855 367 928 q 400 853 378 853 q 446 853 422 853 q 449 918 446 885 q 457 986 453 951 m 442 689 l 349 689 q 357 554 349 611 q 400 555 378 554 q 446 556 422 556 q 442 621 442 588 q 442 689 442 654 m 457 407 q 457 408 457 407 q 457 411 457 409 q 449 474 451 442 q 446 538 448 505 q 401 538 422 538 q 357 538 380 538 q 382 405 367 459 q 457 407 432 405 m 459 390 q 386 388 411 390 q 408 319 395 353 q 438 257 421 285 q 461 258 449 257 q 484 258 473 258 q 469 323 475 289 q 459 390 463 357 m 521 166 q 502 203 509 181 q 488 243 494 224 q 446 241 475 241 q 521 166 480 183 m 627 243 q 613 203 621 224 q 596 166 606 181 q 637 198 619 177 q 669 241 654 218 q 627 243 642 241 m 656 390 q 656 389 656 390 q 656 388 656 388 q 633 258 646 318 q 679 257 664 258 q 708 320 696 287 q 731 388 720 353 q 656 390 706 390 m 658 407 q 696 406 677 407 q 735 405 716 405 q 758 538 748 463 q 714 538 735 538 q 669 538 693 538 q 658 407 666 473 m 671 556 q 715 555 693 556 q 760 554 737 554 q 768 689 768 610 l 675 689 q 673 621 675 654 q 671 556 671 588 m 675 704 l 768 704 q 760 839 768 779 q 715 837 737 837 q 671 837 693 837 q 673 770 671 802 q 675 704 675 737 m 658 986 q 669 853 666 918 q 714 853 693 853 q 758 855 735 853 q 735 988 748 920 q 695 986 716 986 q 658 986 675 986 m 656 1001 q 693 1002 673 1001 q 731 1003 712 1003 q 679 1134 710 1074 q 655 1134 667 1134 q 631 1134 642 1134 q 656 1001 646 1074 m 390 1154 q 428 1152 403 1152 q 452 1186 440 1169 q 482 1219 465 1204 q 390 1154 434 1198 m 299 1007 q 335 1004 316 1005 q 370 1003 353 1003 q 421 1136 388 1078 q 376 1138 392 1136 q 299 1007 332 1086 m 251 841 q 239 704 241 770 l 332 704 q 334 771 332 737 q 340 839 336 804 q 295 839 316 839 q 251 841 274 839 m 251 550 q 296 551 274 550 q 341 554 318 552 q 334 620 336 586 q 332 689 332 654 l 239 689 q 242 623 239 656 q 249 559 245 590 q 251 550 251 557 m 291 399 q 367 403 341 403 q 341 538 349 463 q 297 535 318 536 q 255 534 276 534 q 291 399 266 459 m 376 255 q 421 257 405 255 q 370 388 390 313 q 335 385 353 386 q 299 384 316 384 q 376 255 330 307 m 482 172 q 428 241 451 199 q 407 240 417 241 q 390 239 397 239 q 482 172 430 193 m 727 239 q 707 240 716 239 q 689 241 698 241 q 688 238 689 239 q 687 237 687 237 q 663 203 675 220 q 635 172 650 185 q 721 233 675 191 q 723 235 721 233 q 727 239 725 237 m 818 386 q 782 387 801 386 q 747 388 764 388 q 696 257 729 322 q 719 256 708 257 q 741 255 729 255 q 818 386 789 316 m 862 534 q 818 535 839 534 q 775 538 797 536 q 750 403 766 463 q 787 402 768 403 q 824 401 806 401 q 845 466 835 432 q 862 534 855 500 q 862 534 862 534 q 862 534 862 534 m 864 552 q 878 689 874 610 l 783 689 q 777 554 783 619 q 820 552 799 552 q 864 552 841 552 m 878 704 q 864 841 874 777 q 820 839 841 839 q 775 839 799 839 q 783 704 783 779 l 878 704 m 824 992 q 786 989 804 990 q 750 988 768 988 q 774 855 768 920 q 818 856 797 855 q 862 856 839 856 q 824 992 845 934 m 741 1138 q 696 1136 725 1136 q 747 1003 729 1069 q 781 1004 764 1003 q 818 1007 799 1005 q 741 1138 785 1076 m 635 1219 q 689 1152 662 1192 q 725 1154 714 1152 q 637 1219 691 1192 q 635 1219 635 1219 q 635 1219 635 1219 m 338 1155 q 370 1154 359 1155 q 436 1211 397 1190 l 432 1211 q 338 1155 376 1186 m 318 251 q 336 252 326 251 q 357 253 345 253 q 282 384 314 305 q 247 380 264 382 q 212 378 230 378 q 318 251 251 309 m 434 179 q 429 181 432 179 q 426 185 426 183 q 368 237 386 216 q 336 235 347 237 q 337 234 336 235 q 338 233 338 233 q 383 202 359 216 q 434 179 407 187 m 781 235 q 762 236 775 235 q 747 237 748 237 q 681 179 714 201 q 682 179 681 179 q 685 179 683 179 q 781 235 737 203 m 903 378 q 835 384 882 380 q 760 253 801 307 q 778 252 770 253 q 799 251 787 251 q 856 310 831 276 q 903 378 882 343 m 965 530 q 920 532 941 530 q 878 534 899 534 q 845 409 866 475 q 842 403 843 405 q 841 399 841 401 q 877 395 858 397 q 912 394 895 394 q 965 530 949 463 m 986 689 l 891 689 q 882 550 891 627 q 924 548 903 550 q 968 546 945 546 q 977 592 974 569 q 984 640 980 615 q 985 664 984 652 q 986 689 986 675 m 968 845 q 924 842 945 843 q 882 841 903 841 q 891 704 891 764 l 986 704 q 980 774 986 739 q 968 845 974 810 m 912 997 q 841 993 862 993 q 878 858 868 914 q 920 859 899 858 q 965 860 941 860 q 912 997 941 939 m 799 1142 q 777 1139 787 1140 q 760 1138 768 1138 q 801 1076 783 1109 q 835 1009 818 1044 q 869 1010 853 1009 q 903 1013 885 1011 q 855 1081 882 1049 q 799 1142 828 1113 m 681 1211 q 747 1154 725 1181 q 779 1155 758 1155 q 732 1187 764 1171 q 681 1211 700 1204 m 313 1157 q 380 1204 341 1181 q 285 1159 338 1188 q 313 1157 305 1159 m 195 1015 q 293 1140 230 1080 q 294 1141 293 1140 q 295 1144 295 1142 q 279 1145 287 1144 q 264 1146 270 1146 q 197 1094 239 1128 q 129 1020 160 1059 q 195 1015 152 1019 m 135 862 q 187 999 154 941 q 153 1001 170 999 q 120 1005 137 1003 q 75 930 95 968 q 61 897 68 912 q 48 866 54 882 q 91 863 69 864 q 135 862 112 862 m 114 704 q 131 847 116 774 q 87 848 108 847 q 44 851 66 849 q 21 704 21 770 l 114 704 m 131 546 q 118 616 122 581 q 114 689 114 652 l 21 689 q 44 540 23 611 q 87 543 66 542 q 131 546 108 544 m 187 394 q 135 530 150 461 q 91 527 112 529 q 48 525 69 525 q 120 388 75 448 q 187 394 141 390 m 295 249 q 195 378 237 299 q 161 374 177 376 q 129 372 145 372 q 262 245 181 303 q 295 249 282 249 m 313 233 q 285 231 293 233 q 380 187 338 201 q 313 233 341 208 m 804 233 q 735 187 764 201 q 831 231 781 203 q 804 233 822 233 m 922 378 q 904 349 912 363 q 887 322 895 336 q 855 285 870 303 q 822 249 839 266 q 853 247 831 247 q 986 372 928 295 q 953 374 968 372 q 922 378 938 376 m 982 530 q 930 394 963 461 q 997 386 972 390 q 1067 525 1044 453 q 1023 527 1044 525 q 982 530 1003 529 m 1001 689 q 986 546 1001 619 q 1028 542 1007 544 q 1073 540 1049 540 q 1094 689 1094 615 l 1001 689 m 984 847 q 1001 704 1001 774 l 1094 704 q 1073 851 1094 774 q 1028 848 1049 849 q 984 847 1007 847 m 930 999 q 982 862 965 928 q 1022 863 1001 862 q 1067 866 1044 864 q 997 1005 1040 941 q 930 999 951 1001 m 820 1144 q 874 1083 849 1117 q 920 1015 899 1049 q 952 1017 936 1015 q 986 1020 968 1019 q 853 1146 928 1096 q 835 1145 843 1146 q 820 1144 828 1144 m 802 1157 q 829 1159 812 1159 q 735 1204 783 1184 q 802 1157 766 1186 m 594 1227 q 613 1188 606 1209 q 627 1150 621 1167 q 669 1152 656 1150 q 637 1193 656 1171 q 594 1227 617 1215 z "},"N":{"ha":1165,"x_min":-8,"x_max":1111,"o":"m 586 1250 q 696 1233 639 1244 q 866 1155 783 1206 q 984 1047 928 1111 q 1044 959 1017 1005 q 1100 806 1084 876 q 1111 666 1111 737 q 1094 556 1105 610 q 1067 478 1078 505 q 845 220 995 318 q 721 164 785 185 q 557 139 642 141 q 502 142 529 139 q 448 150 475 145 q 272 220 355 170 q 100 384 164 289 q 79 419 89 401 q 60 453 69 436 q 31 530 41 492 q 17 806 -8 664 q 131 1047 48 938 q 167 1086 149 1067 q 206 1123 185 1105 q 295 1182 247 1155 q 502 1246 394 1231 q 543 1249 523 1248 q 586 1250 563 1250 m 473 407 q 511 407 492 407 q 550 407 530 407 l 550 540 q 505 540 527 540 q 461 540 484 540 q 462 536 461 538 q 463 534 463 534 q 466 470 463 502 q 473 407 469 438 m 476 390 q 502 258 486 314 q 526 258 513 258 q 550 258 538 258 l 550 392 q 476 390 502 392 m 550 158 l 550 243 q 528 243 538 243 q 505 243 517 243 q 522 195 511 222 q 550 158 532 168 m 559 156 q 557 156 561 156 q 554 156 552 156 q 556 156 554 156 q 559 156 557 156 m 610 243 q 587 243 598 243 q 565 243 577 243 l 565 158 q 593 196 583 168 q 610 243 604 224 m 615 258 q 640 392 629 313 q 602 392 621 392 q 565 392 583 392 l 565 258 q 589 258 577 258 q 615 258 602 258 m 654 538 q 610 539 631 538 q 565 540 588 540 l 565 407 q 604 407 584 407 q 642 407 623 407 q 654 538 650 473 m 654 556 q 657 621 656 588 q 658 689 658 654 l 565 689 l 565 556 q 610 556 588 556 q 654 556 631 556 m 658 704 q 657 770 658 737 q 654 837 656 802 q 610 837 631 837 q 565 837 588 837 l 565 704 l 658 704 m 642 986 q 565 984 617 984 l 565 853 q 610 853 588 853 q 654 853 631 853 q 642 986 650 918 m 565 1233 l 565 1148 q 610 1150 596 1148 q 593 1195 604 1169 q 565 1233 583 1221 m 490 1150 q 521 1225 500 1196 q 478 1193 498 1213 q 446 1150 459 1173 q 468 1150 457 1150 q 490 1150 478 1150 m 459 1001 q 459 1001 459 1001 q 459 1003 459 1001 q 470 1067 465 1034 q 484 1134 475 1100 q 461 1134 473 1134 q 438 1134 449 1134 q 386 1003 409 1084 q 459 1001 411 1001 m 457 986 q 419 987 438 986 q 382 988 399 988 q 357 855 367 928 q 400 853 378 853 q 446 853 422 853 q 449 918 446 885 q 457 986 453 951 m 446 837 q 400 837 422 837 q 355 839 378 837 q 349 704 349 770 l 442 704 q 442 770 442 737 q 446 837 442 802 m 442 689 l 349 689 q 357 554 349 611 q 400 555 378 554 q 446 556 422 556 q 442 621 442 588 q 442 689 442 654 m 457 407 q 457 408 457 407 q 457 411 457 409 q 449 474 451 442 q 446 538 448 505 q 401 538 422 538 q 357 538 380 538 q 382 405 367 459 q 457 407 432 405 m 459 390 q 386 388 411 390 q 408 319 395 353 q 438 257 421 285 q 461 258 449 257 q 484 258 473 258 q 469 323 475 289 q 459 390 463 357 m 521 166 q 502 203 509 181 q 488 243 494 224 q 446 241 475 241 q 521 166 480 183 m 627 243 q 613 203 621 224 q 596 166 606 181 q 637 198 619 177 q 669 241 654 218 q 627 243 642 241 m 656 390 q 656 389 656 390 q 656 388 656 388 q 633 258 646 318 q 679 257 664 258 q 708 320 696 287 q 731 388 720 353 q 656 390 706 390 m 658 407 q 696 406 677 407 q 735 405 716 405 q 758 538 748 463 q 714 538 735 538 q 669 538 693 538 q 658 407 666 473 m 671 556 q 715 555 693 556 q 760 554 737 554 q 768 689 768 610 l 675 689 q 673 621 675 654 q 671 556 671 588 m 675 704 l 768 704 q 760 839 768 779 q 715 837 737 837 q 671 837 693 837 q 673 770 671 802 q 675 704 675 737 m 656 1001 q 693 1002 673 1001 q 731 1003 712 1003 q 679 1134 710 1074 q 655 1134 667 1134 q 631 1134 642 1134 q 656 1001 646 1074 m 390 1154 q 428 1152 403 1152 q 452 1186 440 1169 q 482 1219 465 1204 q 390 1154 434 1198 m 299 1007 q 335 1004 316 1005 q 370 1003 353 1003 q 421 1136 388 1078 q 376 1138 392 1136 q 299 1007 332 1086 m 255 856 q 297 856 276 856 q 341 855 318 855 q 367 988 351 928 q 329 989 347 988 q 293 992 311 990 q 255 856 266 936 m 251 841 q 239 704 241 770 l 332 704 q 334 771 332 737 q 340 839 336 804 q 295 839 316 839 q 251 841 274 839 m 251 550 q 296 551 274 550 q 341 554 318 552 q 334 620 336 586 q 332 689 332 654 l 239 689 q 242 623 239 656 q 249 559 245 590 q 251 550 251 557 m 291 399 q 367 403 341 403 q 341 538 349 463 q 297 535 318 536 q 255 534 276 534 q 291 399 266 459 m 376 255 q 421 257 405 255 q 370 388 390 313 q 335 385 353 386 q 299 384 316 384 q 376 255 330 307 m 482 172 q 428 241 451 199 q 407 240 417 241 q 390 239 397 239 q 482 172 430 193 m 727 239 q 707 240 716 239 q 689 241 698 241 q 688 238 689 239 q 687 237 687 237 q 663 203 675 220 q 635 172 650 185 q 721 233 675 191 q 723 235 721 233 q 727 239 725 237 m 818 386 q 782 387 801 386 q 747 388 764 388 q 696 257 729 322 q 719 256 708 257 q 741 255 729 255 q 818 386 789 316 m 862 534 q 818 535 839 534 q 775 538 797 536 q 750 403 766 463 q 787 402 768 403 q 824 401 806 401 q 845 466 835 432 q 862 534 855 500 q 862 534 862 534 q 862 534 862 534 m 864 552 q 878 689 874 610 l 783 689 q 777 554 783 619 q 820 552 799 552 q 864 552 841 552 m 824 992 q 786 989 804 990 q 750 988 768 988 q 774 855 768 920 q 818 856 797 855 q 862 856 839 856 q 824 992 845 934 m 741 1138 q 696 1136 725 1136 q 747 1003 729 1069 q 781 1004 764 1003 q 818 1007 799 1005 q 741 1138 785 1076 m 635 1219 q 689 1152 662 1192 q 725 1154 714 1152 q 637 1219 691 1192 q 635 1219 635 1219 q 635 1219 635 1219 m 338 1155 q 370 1154 359 1155 q 436 1211 397 1190 l 432 1211 q 338 1155 376 1186 m 214 1013 q 282 1009 257 1009 q 357 1138 311 1082 q 337 1139 345 1138 q 318 1142 328 1140 q 259 1081 285 1115 q 214 1013 233 1047 m 150 860 q 194 859 172 860 q 239 858 216 858 q 276 993 251 932 q 204 997 251 993 q 173 931 185 966 q 150 860 160 895 m 131 704 l 224 704 q 235 841 224 774 q 191 842 212 841 q 147 845 170 843 q 131 704 131 770 m 147 546 q 190 548 168 546 q 235 550 212 550 q 227 619 230 584 q 224 689 224 654 l 131 689 q 147 546 131 619 m 204 394 q 276 399 251 397 q 237 534 253 455 q 193 532 214 534 q 150 530 172 530 q 204 394 172 453 m 318 251 q 336 252 326 251 q 357 253 345 253 q 282 384 314 305 q 247 380 264 382 q 212 378 230 378 q 318 251 251 309 m 434 179 q 429 181 432 179 q 426 185 426 183 q 368 237 386 216 q 336 235 347 237 q 337 234 336 235 q 338 233 338 233 q 383 202 359 216 q 434 179 407 187 m 781 235 q 762 236 775 235 q 747 237 748 237 q 681 179 714 201 q 682 179 681 179 q 685 179 683 179 q 781 235 737 203 m 903 378 q 835 384 882 380 q 760 253 801 307 q 778 252 770 253 q 799 251 787 251 q 856 310 831 276 q 903 378 882 343 m 965 530 q 920 532 941 530 q 878 534 899 534 q 845 409 866 475 q 842 403 843 405 q 841 399 841 401 q 877 395 858 397 q 912 394 895 394 q 965 530 949 463 m 313 1157 q 380 1204 341 1181 q 285 1159 338 1188 q 313 1157 305 1159 m 195 1015 q 293 1140 230 1080 q 294 1141 293 1140 q 295 1144 295 1142 q 279 1145 287 1144 q 264 1146 270 1146 q 197 1094 239 1128 q 129 1020 160 1059 q 195 1015 152 1019 m 135 862 q 187 999 154 941 q 153 1001 170 999 q 120 1005 137 1003 q 75 930 95 968 q 61 897 68 912 q 48 866 54 882 q 91 863 69 864 q 135 862 112 862 m 114 704 q 131 847 116 774 q 87 848 108 847 q 44 851 66 849 q 21 704 21 770 l 114 704 m 131 546 q 118 616 122 581 q 114 689 114 652 l 21 689 q 44 540 23 611 q 87 543 66 542 q 131 546 108 544 m 187 394 q 135 530 150 461 q 91 527 112 529 q 48 525 69 525 q 120 388 75 448 q 187 394 141 390 m 295 249 q 195 378 237 299 q 161 374 177 376 q 129 372 145 372 q 262 245 181 303 q 295 249 282 249 m 313 233 q 285 231 293 233 q 380 187 338 201 q 313 233 341 208 m 804 233 q 735 187 764 201 q 831 231 781 203 q 804 233 822 233 m 922 378 q 904 349 912 363 q 887 322 895 336 q 855 285 870 303 q 822 249 839 266 q 853 247 831 247 q 986 372 928 295 q 953 374 968 372 q 922 378 938 376 m 982 530 q 930 394 963 461 q 997 386 972 390 q 1067 525 1044 453 q 1023 527 1044 525 q 982 530 1003 529 m 1001 689 q 986 546 1001 619 q 1028 542 1007 544 q 1073 540 1049 540 q 1094 689 1094 615 l 1001 689 m 984 847 q 1001 704 1001 774 l 1094 704 q 1073 851 1094 774 q 1028 848 1049 849 q 984 847 1007 847 m 930 999 q 982 862 965 928 q 1022 863 1001 862 q 1067 866 1044 864 q 997 1005 1040 941 q 930 999 951 1001 m 820 1144 q 874 1083 849 1117 q 920 1015 899 1049 q 952 1017 936 1015 q 986 1020 968 1019 q 853 1146 928 1096 q 835 1145 843 1146 q 820 1144 828 1144 m 802 1157 q 829 1159 812 1159 q 735 1204 783 1184 q 802 1157 766 1186 m 594 1227 q 613 1188 606 1209 q 627 1150 621 1167 q 669 1152 656 1150 q 637 1193 656 1171 q 594 1227 617 1215 z "},"O":{"ha":1165,"x_min":-8,"x_max":1111,"o":"m 586 1250 q 696 1233 639 1244 q 866 1155 783 1206 q 984 1047 928 1111 q 1044 959 1017 1005 q 1100 806 1084 876 q 1111 666 1111 737 q 1094 556 1105 610 q 1067 478 1078 505 q 845 220 995 318 q 721 164 785 185 q 557 139 642 141 q 502 142 529 139 q 448 150 475 145 q 272 220 355 170 q 100 384 164 289 q 79 419 89 401 q 60 453 69 436 q 31 530 41 492 q 17 806 -8 664 q 131 1047 48 938 q 167 1086 149 1067 q 206 1123 185 1105 q 295 1182 247 1155 q 502 1246 394 1231 q 543 1249 523 1248 q 586 1250 563 1250 m 505 1150 q 550 1148 521 1148 l 550 1233 q 533 1215 540 1227 q 523 1196 527 1204 q 513 1173 517 1184 q 505 1150 509 1161 m 475 986 q 466 918 469 951 q 461 853 463 885 q 505 853 484 853 q 550 853 527 853 l 550 984 q 475 986 500 984 m 461 837 q 458 770 459 802 q 457 704 457 737 l 550 704 l 550 837 q 504 837 527 837 q 461 837 482 837 m 457 689 q 458 621 457 654 q 461 556 459 588 q 504 556 482 556 q 550 556 527 556 l 550 689 l 457 689 m 476 390 q 502 258 486 314 q 526 258 513 258 q 550 258 538 258 l 550 392 q 476 390 502 392 m 550 158 l 550 243 q 528 243 538 243 q 505 243 517 243 q 522 195 511 222 q 550 158 532 168 m 559 156 q 557 156 561 156 q 554 156 552 156 q 556 156 554 156 q 559 156 557 156 m 610 243 q 587 243 598 243 q 565 243 577 243 l 565 158 q 593 196 583 168 q 610 243 604 224 m 615 258 q 640 392 629 313 q 602 392 621 392 q 565 392 583 392 l 565 258 q 589 258 577 258 q 615 258 602 258 m 654 556 q 657 621 656 588 q 658 689 658 654 l 565 689 l 565 556 q 610 556 588 556 q 654 556 631 556 m 658 704 q 657 770 658 737 q 654 837 656 802 q 610 837 631 837 q 565 837 588 837 l 565 704 l 658 704 m 642 986 q 565 984 617 984 l 565 853 q 610 853 588 853 q 654 853 631 853 q 642 986 650 918 m 565 1233 l 565 1148 q 610 1150 596 1148 q 593 1195 604 1169 q 565 1233 583 1221 m 490 1150 q 521 1225 500 1196 q 478 1193 498 1213 q 446 1150 459 1173 q 468 1150 457 1150 q 490 1150 478 1150 m 457 986 q 419 987 438 986 q 382 988 399 988 q 357 855 367 928 q 400 853 378 853 q 446 853 422 853 q 449 918 446 885 q 457 986 453 951 m 446 837 q 400 837 422 837 q 355 839 378 837 q 349 704 349 770 l 442 704 q 442 770 442 737 q 446 837 442 802 m 442 689 l 349 689 q 357 554 349 611 q 400 555 378 554 q 446 556 422 556 q 442 621 442 588 q 442 689 442 654 m 459 390 q 386 388 411 390 q 408 319 395 353 q 438 257 421 285 q 461 258 449 257 q 484 258 473 258 q 469 323 475 289 q 459 390 463 357 m 521 166 q 502 203 509 181 q 488 243 494 224 q 446 241 475 241 q 521 166 480 183 m 627 243 q 613 203 621 224 q 596 166 606 181 q 637 198 619 177 q 669 241 654 218 q 627 243 642 241 m 656 390 q 656 389 656 390 q 656 388 656 388 q 633 258 646 318 q 679 257 664 258 q 708 320 696 287 q 731 388 720 353 q 656 390 706 390 m 658 407 q 696 406 677 407 q 735 405 716 405 q 758 538 748 463 q 714 538 735 538 q 669 538 693 538 q 658 407 666 473 m 656 1001 q 693 1002 673 1001 q 731 1003 712 1003 q 679 1134 710 1074 q 655 1134 667 1134 q 631 1134 642 1134 q 656 1001 646 1074 m 390 1154 q 428 1152 403 1152 q 452 1186 440 1169 q 482 1219 465 1204 q 390 1154 434 1198 m 299 1007 q 335 1004 316 1005 q 370 1003 353 1003 q 421 1136 388 1078 q 376 1138 392 1136 q 299 1007 332 1086 m 291 399 q 367 403 341 403 q 341 538 349 463 q 297 535 318 536 q 255 534 276 534 q 291 399 266 459 m 376 255 q 421 257 405 255 q 370 388 390 313 q 335 385 353 386 q 299 384 316 384 q 376 255 330 307 m 482 172 q 428 241 451 199 q 407 240 417 241 q 390 239 397 239 q 482 172 430 193 m 727 239 q 707 240 716 239 q 689 241 698 241 q 688 238 689 239 q 687 237 687 237 q 663 203 675 220 q 635 172 650 185 q 721 233 675 191 q 723 235 721 233 q 727 239 725 237 m 818 386 q 782 387 801 386 q 747 388 764 388 q 696 257 729 322 q 719 256 708 257 q 741 255 729 255 q 818 386 789 316 m 862 534 q 818 535 839 534 q 775 538 797 536 q 750 403 766 463 q 787 402 768 403 q 824 401 806 401 q 845 466 835 432 q 862 534 855 500 q 862 534 862 534 q 862 534 862 534 m 864 552 q 878 689 874 610 l 783 689 q 777 554 783 619 q 820 552 799 552 q 864 552 841 552 m 878 704 q 864 841 874 777 q 820 839 841 839 q 775 839 799 839 q 783 704 783 779 l 878 704 m 824 992 q 786 989 804 990 q 750 988 768 988 q 774 855 768 920 q 818 856 797 855 q 862 856 839 856 q 824 992 845 934 m 741 1138 q 696 1136 725 1136 q 747 1003 729 1069 q 781 1004 764 1003 q 818 1007 799 1005 q 741 1138 785 1076 m 635 1219 q 689 1152 662 1192 q 725 1154 714 1152 q 637 1219 691 1192 q 635 1219 635 1219 q 635 1219 635 1219 m 338 1155 q 370 1154 359 1155 q 436 1211 397 1190 l 432 1211 q 338 1155 376 1186 m 214 1013 q 282 1009 257 1009 q 357 1138 311 1082 q 337 1139 345 1138 q 318 1142 328 1140 q 259 1081 285 1115 q 214 1013 233 1047 m 150 860 q 194 859 172 860 q 239 858 216 858 q 276 993 251 932 q 204 997 251 993 q 173 931 185 966 q 150 860 160 895 m 131 704 l 224 704 q 235 841 224 774 q 191 842 212 841 q 147 845 170 843 q 131 704 131 770 m 147 546 q 190 548 168 546 q 235 550 212 550 q 227 619 230 584 q 224 689 224 654 l 131 689 q 147 546 131 619 m 204 394 q 276 399 251 397 q 237 534 253 455 q 193 532 214 534 q 150 530 172 530 q 204 394 172 453 m 318 251 q 336 252 326 251 q 357 253 345 253 q 282 384 314 305 q 247 380 264 382 q 212 378 230 378 q 318 251 251 309 m 434 179 q 429 181 432 179 q 426 185 426 183 q 368 237 386 216 q 336 235 347 237 q 337 234 336 235 q 338 233 338 233 q 383 202 359 216 q 434 179 407 187 m 781 235 q 762 236 775 235 q 747 237 748 237 q 681 179 714 201 q 682 179 681 179 q 685 179 683 179 q 781 235 737 203 m 903 378 q 835 384 882 380 q 760 253 801 307 q 778 252 770 253 q 799 251 787 251 q 856 310 831 276 q 903 378 882 343 m 965 530 q 920 532 941 530 q 878 534 899 534 q 845 409 866 475 q 842 403 843 405 q 841 399 841 401 q 877 395 858 397 q 912 394 895 394 q 965 530 949 463 m 986 689 l 891 689 q 882 550 891 627 q 924 548 903 550 q 968 546 945 546 q 977 592 974 569 q 984 640 980 615 q 985 664 984 652 q 986 689 986 675 m 968 845 q 924 842 945 843 q 882 841 903 841 q 891 704 891 764 l 986 704 q 980 774 986 739 q 968 845 974 810 m 912 997 q 841 993 862 993 q 878 858 868 914 q 920 859 899 858 q 965 860 941 860 q 912 997 941 939 m 799 1142 q 777 1139 787 1140 q 760 1138 768 1138 q 801 1076 783 1109 q 835 1009 818 1044 q 869 1010 853 1009 q 903 1013 885 1011 q 855 1081 882 1049 q 799 1142 828 1113 m 681 1211 q 747 1154 725 1181 q 779 1155 758 1155 q 732 1187 764 1171 q 681 1211 700 1204 m 313 1157 q 380 1204 341 1181 q 285 1159 338 1188 q 313 1157 305 1159 m 195 1015 q 293 1140 230 1080 q 294 1141 293 1140 q 295 1144 295 1142 q 279 1145 287 1144 q 264 1146 270 1146 q 197 1094 239 1128 q 129 1020 160 1059 q 195 1015 152 1019 m 135 862 q 187 999 154 941 q 153 1001 170 999 q 120 1005 137 1003 q 75 930 95 968 q 61 897 68 912 q 48 866 54 882 q 91 863 69 864 q 135 862 112 862 m 114 704 q 131 847 116 774 q 87 848 108 847 q 44 851 66 849 q 21 704 21 770 l 114 704 m 131 546 q 118 616 122 581 q 114 689 114 652 l 21 689 q 44 540 23 611 q 87 543 66 542 q 131 546 108 544 m 187 394 q 135 530 150 461 q 91 527 112 529 q 48 525 69 525 q 120 388 75 448 q 187 394 141 390 m 295 249 q 195 378 237 299 q 161 374 177 376 q 129 372 145 372 q 262 245 181 303 q 295 249 282 249 m 313 233 q 285 231 293 233 q 380 187 338 201 q 313 233 341 208 m 804 233 q 735 187 764 201 q 831 231 781 203 q 804 233 822 233 m 922 378 q 904 349 912 363 q 887 322 895 336 q 855 285 870 303 q 822 249 839 266 q 853 247 831 247 q 986 372 928 295 q 953 374 968 372 q 922 378 938 376 m 982 530 q 930 394 963 461 q 997 386 972 390 q 1067 525 1044 453 q 1023 527 1044 525 q 982 530 1003 529 m 1001 689 q 986 546 1001 619 q 1028 542 1007 544 q 1073 540 1049 540 q 1094 689 1094 615 l 1001 689 m 984 847 q 1001 704 1001 774 l 1094 704 q 1073 851 1094 774 q 1028 848 1049 849 q 984 847 1007 847 m 930 999 q 982 862 965 928 q 1022 863 1001 862 q 1067 866 1044 864 q 997 1005 1040 941 q 930 999 951 1001 m 820 1144 q 874 1083 849 1117 q 920 1015 899 1049 q 952 1017 936 1015 q 986 1020 968 1019 q 853 1146 928 1096 q 835 1145 843 1146 q 820 1144 828 1144 m 802 1157 q 829 1159 812 1159 q 735 1204 783 1184 q 802 1157 766 1186 m 594 1227 q 613 1188 606 1209 q 627 1150 621 1167 q 669 1152 656 1150 q 637 1193 656 1171 q 594 1227 617 1215 z "},"P":{"ha":1165,"x_min":-8,"x_max":1111,"o":"m 586 1250 q 696 1233 639 1244 q 866 1155 783 1206 q 984 1047 928 1111 q 1044 959 1017 1005 q 1100 806 1084 876 q 1111 666 1111 737 q 1094 556 1105 610 q 1067 478 1078 505 q 845 220 995 318 q 721 164 785 185 q 557 139 642 141 q 502 142 529 139 q 448 150 475 145 q 272 220 355 170 q 100 384 164 289 q 79 419 89 401 q 60 453 69 436 q 31 530 41 492 q 17 806 -8 664 q 131 1047 48 938 q 167 1086 149 1067 q 206 1123 185 1105 q 295 1182 247 1155 q 502 1246 394 1231 q 543 1249 523 1248 q 586 1250 563 1250 m 505 1150 q 550 1148 521 1148 l 550 1233 q 533 1215 540 1227 q 523 1196 527 1204 q 513 1173 517 1184 q 505 1150 509 1161 m 475 986 q 466 918 469 951 q 461 853 463 885 q 505 853 484 853 q 550 853 527 853 l 550 984 q 475 986 500 984 m 461 837 q 458 770 459 802 q 457 704 457 737 l 550 704 l 550 837 q 504 837 527 837 q 461 837 482 837 m 473 407 q 511 407 492 407 q 550 407 530 407 l 550 540 q 505 540 527 540 q 461 540 484 540 q 462 536 461 538 q 463 534 463 534 q 466 470 463 502 q 473 407 469 438 m 476 390 q 502 258 486 314 q 526 258 513 258 q 550 258 538 258 l 550 392 q 476 390 502 392 m 550 158 l 550 243 q 528 243 538 243 q 505 243 517 243 q 522 195 511 222 q 550 158 532 168 m 559 156 q 557 156 561 156 q 554 156 552 156 q 556 156 554 156 q 559 156 557 156 m 610 243 q 587 243 598 243 q 565 243 577 243 l 565 158 q 593 196 583 168 q 610 243 604 224 m 615 258 q 640 392 629 313 q 602 392 621 392 q 565 392 583 392 l 565 258 q 589 258 577 258 q 615 258 602 258 m 654 538 q 610 539 631 538 q 565 540 588 540 l 565 407 q 604 407 584 407 q 642 407 623 407 q 654 538 650 473 m 658 704 q 657 770 658 737 q 654 837 656 802 q 610 837 631 837 q 565 837 588 837 l 565 704 l 658 704 m 642 986 q 565 984 617 984 l 565 853 q 610 853 588 853 q 654 853 631 853 q 642 986 650 918 m 565 1233 l 565 1148 q 610 1150 596 1148 q 593 1195 604 1169 q 565 1233 583 1221 m 490 1150 q 521 1225 500 1196 q 478 1193 498 1213 q 446 1150 459 1173 q 468 1150 457 1150 q 490 1150 478 1150 m 521 166 q 502 203 509 181 q 488 243 494 224 q 446 241 475 241 q 521 166 480 183 m 627 243 q 613 203 621 224 q 596 166 606 181 q 637 198 619 177 q 669 241 654 218 q 627 243 642 241 m 656 390 q 656 389 656 390 q 656 388 656 388 q 633 258 646 318 q 679 257 664 258 q 708 320 696 287 q 731 388 720 353 q 656 390 706 390 m 658 407 q 696 406 677 407 q 735 405 716 405 q 758 538 748 463 q 714 538 735 538 q 669 538 693 538 q 658 407 666 473 m 671 556 q 715 555 693 556 q 760 554 737 554 q 768 689 768 610 l 675 689 q 673 621 675 654 q 671 556 671 588 m 656 1001 q 693 1002 673 1001 q 731 1003 712 1003 q 679 1134 710 1074 q 655 1134 667 1134 q 631 1134 642 1134 q 656 1001 646 1074 m 390 1154 q 428 1152 403 1152 q 452 1186 440 1169 q 482 1219 465 1204 q 390 1154 434 1198 m 299 1007 q 335 1004 316 1005 q 370 1003 353 1003 q 421 1136 388 1078 q 376 1138 392 1136 q 299 1007 332 1086 m 255 856 q 297 856 276 856 q 341 855 318 855 q 367 988 351 928 q 329 989 347 988 q 293 992 311 990 q 255 856 266 936 m 251 841 q 239 704 241 770 l 332 704 q 334 771 332 737 q 340 839 336 804 q 295 839 316 839 q 251 841 274 839 m 251 550 q 296 551 274 550 q 341 554 318 552 q 334 620 336 586 q 332 689 332 654 l 239 689 q 242 623 239 656 q 249 559 245 590 q 251 550 251 557 m 291 399 q 367 403 341 403 q 341 538 349 463 q 297 535 318 536 q 255 534 276 534 q 291 399 266 459 m 376 255 q 421 257 405 255 q 370 388 390 313 q 335 385 353 386 q 299 384 316 384 q 376 255 330 307 m 482 172 q 428 241 451 199 q 407 240 417 241 q 390 239 397 239 q 482 172 430 193 m 727 239 q 707 240 716 239 q 689 241 698 241 q 688 238 689 239 q 687 237 687 237 q 663 203 675 220 q 635 172 650 185 q 721 233 675 191 q 723 235 721 233 q 727 239 725 237 m 818 386 q 782 387 801 386 q 747 388 764 388 q 696 257 729 322 q 719 256 708 257 q 741 255 729 255 q 818 386 789 316 m 862 534 q 818 535 839 534 q 775 538 797 536 q 750 403 766 463 q 787 402 768 403 q 824 401 806 401 q 845 466 835 432 q 862 534 855 500 q 862 534 862 534 q 862 534 862 534 m 864 552 q 878 689 874 610 l 783 689 q 777 554 783 619 q 820 552 799 552 q 864 552 841 552 m 878 704 q 864 841 874 777 q 820 839 841 839 q 775 839 799 839 q 783 704 783 779 l 878 704 m 824 992 q 786 989 804 990 q 750 988 768 988 q 774 855 768 920 q 818 856 797 855 q 862 856 839 856 q 824 992 845 934 m 741 1138 q 696 1136 725 1136 q 747 1003 729 1069 q 781 1004 764 1003 q 818 1007 799 1005 q 741 1138 785 1076 m 635 1219 q 689 1152 662 1192 q 725 1154 714 1152 q 637 1219 691 1192 q 635 1219 635 1219 q 635 1219 635 1219 m 338 1155 q 370 1154 359 1155 q 436 1211 397 1190 l 432 1211 q 338 1155 376 1186 m 214 1013 q 282 1009 257 1009 q 357 1138 311 1082 q 337 1139 345 1138 q 318 1142 328 1140 q 259 1081 285 1115 q 214 1013 233 1047 m 150 860 q 194 859 172 860 q 239 858 216 858 q 276 993 251 932 q 204 997 251 993 q 173 931 185 966 q 150 860 160 895 m 131 704 l 224 704 q 235 841 224 774 q 191 842 212 841 q 147 845 170 843 q 131 704 131 770 m 147 546 q 190 548 168 546 q 235 550 212 550 q 227 619 230 584 q 224 689 224 654 l 131 689 q 147 546 131 619 m 204 394 q 276 399 251 397 q 237 534 253 455 q 193 532 214 534 q 150 530 172 530 q 204 394 172 453 m 318 251 q 336 252 326 251 q 357 253 345 253 q 282 384 314 305 q 247 380 264 382 q 212 378 230 378 q 318 251 251 309 m 434 179 q 429 181 432 179 q 426 185 426 183 q 368 237 386 216 q 336 235 347 237 q 337 234 336 235 q 338 233 338 233 q 383 202 359 216 q 434 179 407 187 m 781 235 q 762 236 775 235 q 747 237 748 237 q 681 179 714 201 q 682 179 681 179 q 685 179 683 179 q 781 235 737 203 m 903 378 q 835 384 882 380 q 760 253 801 307 q 778 252 770 253 q 799 251 787 251 q 856 310 831 276 q 903 378 882 343 m 965 530 q 920 532 941 530 q 878 534 899 534 q 845 409 866 475 q 842 403 843 405 q 841 399 841 401 q 877 395 858 397 q 912 394 895 394 q 965 530 949 463 m 986 689 l 891 689 q 882 550 891 627 q 924 548 903 550 q 968 546 945 546 q 977 592 974 569 q 984 640 980 615 q 985 664 984 652 q 986 689 986 675 m 968 845 q 924 842 945 843 q 882 841 903 841 q 891 704 891 764 l 986 704 q 980 774 986 739 q 968 845 974 810 m 912 997 q 841 993 862 993 q 878 858 868 914 q 920 859 899 858 q 965 860 941 860 q 912 997 941 939 m 799 1142 q 777 1139 787 1140 q 760 1138 768 1138 q 801 1076 783 1109 q 835 1009 818 1044 q 869 1010 853 1009 q 903 1013 885 1011 q 855 1081 882 1049 q 799 1142 828 1113 m 681 1211 q 747 1154 725 1181 q 779 1155 758 1155 q 732 1187 764 1171 q 681 1211 700 1204 m 313 1157 q 380 1204 341 1181 q 285 1159 338 1188 q 313 1157 305 1159 m 195 1015 q 293 1140 230 1080 q 294 1141 293 1140 q 295 1144 295 1142 q 279 1145 287 1144 q 264 1146 270 1146 q 197 1094 239 1128 q 129 1020 160 1059 q 195 1015 152 1019 m 135 862 q 187 999 154 941 q 153 1001 170 999 q 120 1005 137 1003 q 75 930 95 968 q 61 897 68 912 q 48 866 54 882 q 91 863 69 864 q 135 862 112 862 m 114 704 q 131 847 116 774 q 87 848 108 847 q 44 851 66 849 q 21 704 21 770 l 114 704 m 131 546 q 118 616 122 581 q 114 689 114 652 l 21 689 q 44 540 23 611 q 87 543 66 542 q 131 546 108 544 m 187 394 q 135 530 150 461 q 91 527 112 529 q 48 525 69 525 q 120 388 75 448 q 187 394 141 390 m 295 249 q 195 378 237 299 q 161 374 177 376 q 129 372 145 372 q 262 245 181 303 q 295 249 282 249 m 313 233 q 285 231 293 233 q 380 187 338 201 q 313 233 341 208 m 804 233 q 735 187 764 201 q 831 231 781 203 q 804 233 822 233 m 922 378 q 904 349 912 363 q 887 322 895 336 q 855 285 870 303 q 822 249 839 266 q 853 247 831 247 q 986 372 928 295 q 953 374 968 372 q 922 378 938 376 m 982 530 q 930 394 963 461 q 997 386 972 390 q 1067 525 1044 453 q 1023 527 1044 525 q 982 530 1003 529 m 1001 689 q 986 546 1001 619 q 1028 542 1007 544 q 1073 540 1049 540 q 1094 689 1094 615 l 1001 689 m 984 847 q 1001 704 1001 774 l 1094 704 q 1073 851 1094 774 q 1028 848 1049 849 q 984 847 1007 847 m 930 999 q 982 862 965 928 q 1022 863 1001 862 q 1067 866 1044 864 q 997 1005 1040 941 q 930 999 951 1001 m 820 1144 q 874 1083 849 1117 q 920 1015 899 1049 q 952 1017 936 1015 q 986 1020 968 1019 q 853 1146 928 1096 q 835 1145 843 1146 q 820 1144 828 1144 m 802 1157 q 829 1159 812 1159 q 735 1204 783 1184 q 802 1157 766 1186 m 594 1227 q 613 1188 606 1209 q 627 1150 621 1167 q 669 1152 656 1150 q 637 1193 656 1171 q 594 1227 617 1215 z "},"Q":{"ha":1165,"x_min":-8,"x_max":1111,"o":"m 586 1250 q 696 1233 639 1244 q 866 1155 783 1206 q 984 1047 928 1111 q 1044 959 1017 1005 q 1100 806 1084 876 q 1111 666 1111 737 q 1094 556 1105 610 q 1067 478 1078 505 q 845 220 995 318 q 721 164 785 185 q 557 139 642 141 q 502 142 529 139 q 448 150 475 145 q 272 220 355 170 q 100 384 164 289 q 79 419 89 401 q 60 453 69 436 q 31 530 41 492 q 17 806 -8 664 q 131 1047 48 938 q 167 1086 149 1067 q 206 1123 185 1105 q 295 1182 247 1155 q 502 1246 394 1231 q 543 1249 523 1248 q 586 1250 563 1250 m 505 1150 q 550 1148 521 1148 l 550 1233 q 533 1215 540 1227 q 523 1196 527 1204 q 513 1173 517 1184 q 505 1150 509 1161 m 475 986 q 466 918 469 951 q 461 853 463 885 q 505 853 484 853 q 550 853 527 853 l 550 984 q 475 986 500 984 m 461 837 q 458 770 459 802 q 457 704 457 737 l 550 704 l 550 837 q 504 837 527 837 q 461 837 482 837 m 473 407 q 511 407 492 407 q 550 407 530 407 l 550 540 q 505 540 527 540 q 461 540 484 540 q 462 536 461 538 q 463 534 463 534 q 466 470 463 502 q 473 407 469 438 m 550 158 l 550 243 q 528 243 538 243 q 505 243 517 243 q 522 195 511 222 q 550 158 532 168 m 559 156 q 557 156 561 156 q 554 156 552 156 q 556 156 554 156 q 559 156 557 156 m 610 243 q 587 243 598 243 q 565 243 577 243 l 565 158 q 593 196 583 168 q 610 243 604 224 m 615 258 q 640 392 629 313 q 602 392 621 392 q 565 392 583 392 l 565 258 q 589 258 577 258 q 615 258 602 258 m 654 556 q 657 621 656 588 q 658 689 658 654 l 565 689 l 565 556 q 610 556 588 556 q 654 556 631 556 m 658 704 q 657 770 658 737 q 654 837 656 802 q 610 837 631 837 q 565 837 588 837 l 565 704 l 658 704 m 642 986 q 565 984 617 984 l 565 853 q 610 853 588 853 q 654 853 631 853 q 642 986 650 918 m 565 1233 l 565 1148 q 610 1150 596 1148 q 593 1195 604 1169 q 565 1233 583 1221 m 490 1150 q 521 1225 500 1196 q 478 1193 498 1213 q 446 1150 459 1173 q 468 1150 457 1150 q 490 1150 478 1150 m 457 986 q 419 987 438 986 q 382 988 399 988 q 357 855 367 928 q 400 853 378 853 q 446 853 422 853 q 449 918 446 885 q 457 986 453 951 m 446 837 q 400 837 422 837 q 355 839 378 837 q 349 704 349 770 l 442 704 q 442 770 442 737 q 446 837 442 802 m 442 689 l 349 689 q 357 554 349 611 q 400 555 378 554 q 446 556 422 556 q 442 621 442 588 q 442 689 442 654 m 457 407 q 457 408 457 407 q 457 411 457 409 q 449 474 451 442 q 446 538 448 505 q 401 538 422 538 q 357 538 380 538 q 382 405 367 459 q 457 407 432 405 m 521 166 q 502 203 509 181 q 488 243 494 224 q 446 241 475 241 q 521 166 480 183 m 627 243 q 613 203 621 224 q 596 166 606 181 q 637 198 619 177 q 669 241 654 218 q 627 243 642 241 m 658 407 q 696 406 677 407 q 735 405 716 405 q 758 538 748 463 q 714 538 735 538 q 669 538 693 538 q 658 407 666 473 m 656 1001 q 693 1002 673 1001 q 731 1003 712 1003 q 679 1134 710 1074 q 655 1134 667 1134 q 631 1134 642 1134 q 656 1001 646 1074 m 390 1154 q 428 1152 403 1152 q 452 1186 440 1169 q 482 1219 465 1204 q 390 1154 434 1198 m 299 1007 q 335 1004 316 1005 q 370 1003 353 1003 q 421 1136 388 1078 q 376 1138 392 1136 q 299 1007 332 1086 m 376 255 q 421 257 405 255 q 370 388 390 313 q 335 385 353 386 q 299 384 316 384 q 376 255 330 307 m 482 172 q 428 241 451 199 q 407 240 417 241 q 390 239 397 239 q 482 172 430 193 m 727 239 q 707 240 716 239 q 689 241 698 241 q 688 238 689 239 q 687 237 687 237 q 663 203 675 220 q 635 172 650 185 q 721 233 675 191 q 723 235 721 233 q 727 239 725 237 m 818 386 q 782 387 801 386 q 747 388 764 388 q 696 257 729 322 q 719 256 708 257 q 741 255 729 255 q 818 386 789 316 m 862 534 q 818 535 839 534 q 775 538 797 536 q 750 403 766 463 q 787 402 768 403 q 824 401 806 401 q 845 466 835 432 q 862 534 855 500 q 862 534 862 534 q 862 534 862 534 m 864 552 q 878 689 874 610 l 783 689 q 777 554 783 619 q 820 552 799 552 q 864 552 841 552 m 878 704 q 864 841 874 777 q 820 839 841 839 q 775 839 799 839 q 783 704 783 779 l 878 704 m 824 992 q 786 989 804 990 q 750 988 768 988 q 774 855 768 920 q 818 856 797 855 q 862 856 839 856 q 824 992 845 934 m 741 1138 q 696 1136 725 1136 q 747 1003 729 1069 q 781 1004 764 1003 q 818 1007 799 1005 q 741 1138 785 1076 m 635 1219 q 689 1152 662 1192 q 725 1154 714 1152 q 637 1219 691 1192 q 635 1219 635 1219 q 635 1219 635 1219 m 338 1155 q 370 1154 359 1155 q 436 1211 397 1190 l 432 1211 q 338 1155 376 1186 m 214 1013 q 282 1009 257 1009 q 357 1138 311 1082 q 337 1139 345 1138 q 318 1142 328 1140 q 259 1081 285 1115 q 214 1013 233 1047 m 150 860 q 194 859 172 860 q 239 858 216 858 q 276 993 251 932 q 204 997 251 993 q 173 931 185 966 q 150 860 160 895 m 131 704 l 224 704 q 235 841 224 774 q 191 842 212 841 q 147 845 170 843 q 131 704 131 770 m 147 546 q 190 548 168 546 q 235 550 212 550 q 227 619 230 584 q 224 689 224 654 l 131 689 q 147 546 131 619 m 204 394 q 276 399 251 397 q 237 534 253 455 q 193 532 214 534 q 150 530 172 530 q 204 394 172 453 m 318 251 q 336 252 326 251 q 357 253 345 253 q 282 384 314 305 q 247 380 264 382 q 212 378 230 378 q 318 251 251 309 m 434 179 q 429 181 432 179 q 426 185 426 183 q 368 237 386 216 q 336 235 347 237 q 337 234 336 235 q 338 233 338 233 q 383 202 359 216 q 434 179 407 187 m 781 235 q 762 236 775 235 q 747 237 748 237 q 681 179 714 201 q 682 179 681 179 q 685 179 683 179 q 781 235 737 203 m 903 378 q 835 384 882 380 q 760 253 801 307 q 778 252 770 253 q 799 251 787 251 q 856 310 831 276 q 903 378 882 343 m 965 530 q 920 532 941 530 q 878 534 899 534 q 845 409 866 475 q 842 403 843 405 q 841 399 841 401 q 877 395 858 397 q 912 394 895 394 q 965 530 949 463 m 986 689 l 891 689 q 882 550 891 627 q 924 548 903 550 q 968 546 945 546 q 977 592 974 569 q 984 640 980 615 q 985 664 984 652 q 986 689 986 675 m 968 845 q 924 842 945 843 q 882 841 903 841 q 891 704 891 764 l 986 704 q 980 774 986 739 q 968 845 974 810 m 912 997 q 841 993 862 993 q 878 858 868 914 q 920 859 899 858 q 965 860 941 860 q 912 997 941 939 m 799 1142 q 777 1139 787 1140 q 760 1138 768 1138 q 801 1076 783 1109 q 835 1009 818 1044 q 869 1010 853 1009 q 903 1013 885 1011 q 855 1081 882 1049 q 799 1142 828 1113 m 681 1211 q 747 1154 725 1181 q 779 1155 758 1155 q 732 1187 764 1171 q 681 1211 700 1204 m 313 1157 q 380 1204 341 1181 q 285 1159 338 1188 q 313 1157 305 1159 m 195 1015 q 293 1140 230 1080 q 294 1141 293 1140 q 295 1144 295 1142 q 279 1145 287 1144 q 264 1146 270 1146 q 197 1094 239 1128 q 129 1020 160 1059 q 195 1015 152 1019 m 135 862 q 187 999 154 941 q 153 1001 170 999 q 120 1005 137 1003 q 75 930 95 968 q 61 897 68 912 q 48 866 54 882 q 91 863 69 864 q 135 862 112 862 m 114 704 q 131 847 116 774 q 87 848 108 847 q 44 851 66 849 q 21 704 21 770 l 114 704 m 131 546 q 118 616 122 581 q 114 689 114 652 l 21 689 q 44 540 23 611 q 87 543 66 542 q 131 546 108 544 m 187 394 q 135 530 150 461 q 91 527 112 529 q 48 525 69 525 q 120 388 75 448 q 187 394 141 390 m 295 249 q 195 378 237 299 q 161 374 177 376 q 129 372 145 372 q 262 245 181 303 q 295 249 282 249 m 313 233 q 285 231 293 233 q 380 187 338 201 q 313 233 341 208 m 804 233 q 735 187 764 201 q 831 231 781 203 q 804 233 822 233 m 922 378 q 904 349 912 363 q 887 322 895 336 q 855 285 870 303 q 822 249 839 266 q 853 247 831 247 q 986 372 928 295 q 953 374 968 372 q 922 378 938 376 m 982 530 q 930 394 963 461 q 997 386 972 390 q 1067 525 1044 453 q 1023 527 1044 525 q 982 530 1003 529 m 1001 689 q 986 546 1001 619 q 1028 542 1007 544 q 1073 540 1049 540 q 1094 689 1094 615 l 1001 689 m 984 847 q 1001 704 1001 774 l 1094 704 q 1073 851 1094 774 q 1028 848 1049 849 q 984 847 1007 847 m 930 999 q 982 862 965 928 q 1022 863 1001 862 q 1067 866 1044 864 q 997 1005 1040 941 q 930 999 951 1001 m 820 1144 q 874 1083 849 1117 q 920 1015 899 1049 q 952 1017 936 1015 q 986 1020 968 1019 q 853 1146 928 1096 q 835 1145 843 1146 q 820 1144 828 1144 m 802 1157 q 829 1159 812 1159 q 735 1204 783 1184 q 802 1157 766 1186 m 594 1227 q 613 1188 606 1209 q 627 1150 621 1167 q 669 1152 656 1150 q 637 1193 656 1171 q 594 1227 617 1215 z "},"R":{"ha":1165,"x_min":-8,"x_max":1111,"o":"m 586 1250 q 696 1233 639 1244 q 866 1155 783 1206 q 984 1047 928 1111 q 1044 959 1017 1005 q 1100 806 1084 876 q 1111 666 1111 737 q 1094 556 1105 610 q 1067 478 1078 505 q 845 220 995 318 q 721 164 785 185 q 557 139 642 141 q 502 142 529 139 q 448 150 475 145 q 272 220 355 170 q 100 384 164 289 q 79 419 89 401 q 60 453 69 436 q 31 530 41 492 q 17 806 -8 664 q 131 1047 48 938 q 167 1086 149 1067 q 206 1123 185 1105 q 295 1182 247 1155 q 502 1246 394 1231 q 543 1249 523 1248 q 586 1250 563 1250 m 505 1150 q 550 1148 521 1148 l 550 1233 q 533 1215 540 1227 q 523 1196 527 1204 q 513 1173 517 1184 q 505 1150 509 1161 m 475 986 q 466 918 469 951 q 461 853 463 885 q 505 853 484 853 q 550 853 527 853 l 550 984 q 475 986 500 984 m 461 837 q 458 770 459 802 q 457 704 457 737 l 550 704 l 550 837 q 504 837 527 837 q 461 837 482 837 m 473 407 q 511 407 492 407 q 550 407 530 407 l 550 540 q 505 540 527 540 q 461 540 484 540 q 462 536 461 538 q 463 534 463 534 q 466 470 463 502 q 473 407 469 438 m 476 390 q 502 258 486 314 q 526 258 513 258 q 550 258 538 258 l 550 392 q 476 390 502 392 m 550 158 l 550 243 q 528 243 538 243 q 505 243 517 243 q 522 195 511 222 q 550 158 532 168 m 559 156 q 557 156 561 156 q 554 156 552 156 q 556 156 554 156 q 559 156 557 156 m 610 243 q 587 243 598 243 q 565 243 577 243 l 565 158 q 593 196 583 168 q 610 243 604 224 m 615 258 q 640 392 629 313 q 602 392 621 392 q 565 392 583 392 l 565 258 q 589 258 577 258 q 615 258 602 258 m 654 538 q 610 539 631 538 q 565 540 588 540 l 565 407 q 604 407 584 407 q 642 407 623 407 q 654 538 650 473 m 658 704 q 657 770 658 737 q 654 837 656 802 q 610 837 631 837 q 565 837 588 837 l 565 704 l 658 704 m 642 986 q 565 984 617 984 l 565 853 q 610 853 588 853 q 654 853 631 853 q 642 986 650 918 m 565 1233 l 565 1148 q 610 1150 596 1148 q 593 1195 604 1169 q 565 1233 583 1221 m 490 1150 q 521 1225 500 1196 q 478 1193 498 1213 q 446 1150 459 1173 q 468 1150 457 1150 q 490 1150 478 1150 m 521 166 q 502 203 509 181 q 488 243 494 224 q 446 241 475 241 q 521 166 480 183 m 627 243 q 613 203 621 224 q 596 166 606 181 q 637 198 619 177 q 669 241 654 218 q 627 243 642 241 m 671 556 q 715 555 693 556 q 760 554 737 554 q 768 689 768 610 l 675 689 q 673 621 675 654 q 671 556 671 588 m 656 1001 q 693 1002 673 1001 q 731 1003 712 1003 q 679 1134 710 1074 q 655 1134 667 1134 q 631 1134 642 1134 q 656 1001 646 1074 m 390 1154 q 428 1152 403 1152 q 452 1186 440 1169 q 482 1219 465 1204 q 390 1154 434 1198 m 299 1007 q 335 1004 316 1005 q 370 1003 353 1003 q 421 1136 388 1078 q 376 1138 392 1136 q 299 1007 332 1086 m 255 856 q 297 856 276 856 q 341 855 318 855 q 367 988 351 928 q 329 989 347 988 q 293 992 311 990 q 255 856 266 936 m 251 841 q 239 704 241 770 l 332 704 q 334 771 332 737 q 340 839 336 804 q 295 839 316 839 q 251 841 274 839 m 251 550 q 296 551 274 550 q 341 554 318 552 q 334 620 336 586 q 332 689 332 654 l 239 689 q 242 623 239 656 q 249 559 245 590 q 251 550 251 557 m 291 399 q 367 403 341 403 q 341 538 349 463 q 297 535 318 536 q 255 534 276 534 q 291 399 266 459 m 376 255 q 421 257 405 255 q 370 388 390 313 q 335 385 353 386 q 299 384 316 384 q 376 255 330 307 m 482 172 q 428 241 451 199 q 407 240 417 241 q 390 239 397 239 q 482 172 430 193 m 727 239 q 707 240 716 239 q 689 241 698 241 q 688 238 689 239 q 687 237 687 237 q 663 203 675 220 q 635 172 650 185 q 721 233 675 191 q 723 235 721 233 q 727 239 725 237 m 818 386 q 782 387 801 386 q 747 388 764 388 q 696 257 729 322 q 719 256 708 257 q 741 255 729 255 q 818 386 789 316 m 862 534 q 818 535 839 534 q 775 538 797 536 q 750 403 766 463 q 787 402 768 403 q 824 401 806 401 q 845 466 835 432 q 862 534 855 500 q 862 534 862 534 q 862 534 862 534 m 864 552 q 878 689 874 610 l 783 689 q 777 554 783 619 q 820 552 799 552 q 864 552 841 552 m 878 704 q 864 841 874 777 q 820 839 841 839 q 775 839 799 839 q 783 704 783 779 l 878 704 m 824 992 q 786 989 804 990 q 750 988 768 988 q 774 855 768 920 q 818 856 797 855 q 862 856 839 856 q 824 992 845 934 m 741 1138 q 696 1136 725 1136 q 747 1003 729 1069 q 781 1004 764 1003 q 818 1007 799 1005 q 741 1138 785 1076 m 635 1219 q 689 1152 662 1192 q 725 1154 714 1152 q 637 1219 691 1192 q 635 1219 635 1219 q 635 1219 635 1219 m 338 1155 q 370 1154 359 1155 q 436 1211 397 1190 l 432 1211 q 338 1155 376 1186 m 214 1013 q 282 1009 257 1009 q 357 1138 311 1082 q 337 1139 345 1138 q 318 1142 328 1140 q 259 1081 285 1115 q 214 1013 233 1047 m 150 860 q 194 859 172 860 q 239 858 216 858 q 276 993 251 932 q 204 997 251 993 q 173 931 185 966 q 150 860 160 895 m 131 704 l 224 704 q 235 841 224 774 q 191 842 212 841 q 147 845 170 843 q 131 704 131 770 m 147 546 q 190 548 168 546 q 235 550 212 550 q 227 619 230 584 q 224 689 224 654 l 131 689 q 147 546 131 619 m 204 394 q 276 399 251 397 q 237 534 253 455 q 193 532 214 534 q 150 530 172 530 q 204 394 172 453 m 318 251 q 336 252 326 251 q 357 253 345 253 q 282 384 314 305 q 247 380 264 382 q 212 378 230 378 q 318 251 251 309 m 434 179 q 429 181 432 179 q 426 185 426 183 q 368 237 386 216 q 336 235 347 237 q 337 234 336 235 q 338 233 338 233 q 383 202 359 216 q 434 179 407 187 m 781 235 q 762 236 775 235 q 747 237 748 237 q 681 179 714 201 q 682 179 681 179 q 685 179 683 179 q 781 235 737 203 m 903 378 q 835 384 882 380 q 760 253 801 307 q 778 252 770 253 q 799 251 787 251 q 856 310 831 276 q 903 378 882 343 m 965 530 q 920 532 941 530 q 878 534 899 534 q 845 409 866 475 q 842 403 843 405 q 841 399 841 401 q 877 395 858 397 q 912 394 895 394 q 965 530 949 463 m 986 689 l 891 689 q 882 550 891 627 q 924 548 903 550 q 968 546 945 546 q 977 592 974 569 q 984 640 980 615 q 985 664 984 652 q 986 689 986 675 m 968 845 q 924 842 945 843 q 882 841 903 841 q 891 704 891 764 l 986 704 q 980 774 986 739 q 968 845 974 810 m 912 997 q 841 993 862 993 q 878 858 868 914 q 920 859 899 858 q 965 860 941 860 q 912 997 941 939 m 799 1142 q 777 1139 787 1140 q 760 1138 768 1138 q 801 1076 783 1109 q 835 1009 818 1044 q 869 1010 853 1009 q 903 1013 885 1011 q 855 1081 882 1049 q 799 1142 828 1113 m 681 1211 q 747 1154 725 1181 q 779 1155 758 1155 q 732 1187 764 1171 q 681 1211 700 1204 m 313 1157 q 380 1204 341 1181 q 285 1159 338 1188 q 313 1157 305 1159 m 195 1015 q 293 1140 230 1080 q 294 1141 293 1140 q 295 1144 295 1142 q 279 1145 287 1144 q 264 1146 270 1146 q 197 1094 239 1128 q 129 1020 160 1059 q 195 1015 152 1019 m 135 862 q 187 999 154 941 q 153 1001 170 999 q 120 1005 137 1003 q 75 930 95 968 q 61 897 68 912 q 48 866 54 882 q 91 863 69 864 q 135 862 112 862 m 114 704 q 131 847 116 774 q 87 848 108 847 q 44 851 66 849 q 21 704 21 770 l 114 704 m 131 546 q 118 616 122 581 q 114 689 114 652 l 21 689 q 44 540 23 611 q 87 543 66 542 q 131 546 108 544 m 187 394 q 135 530 150 461 q 91 527 112 529 q 48 525 69 525 q 120 388 75 448 q 187 394 141 390 m 295 249 q 195 378 237 299 q 161 374 177 376 q 129 372 145 372 q 262 245 181 303 q 295 249 282 249 m 313 233 q 285 231 293 233 q 380 187 338 201 q 313 233 341 208 m 804 233 q 735 187 764 201 q 831 231 781 203 q 804 233 822 233 m 922 378 q 904 349 912 363 q 887 322 895 336 q 855 285 870 303 q 822 249 839 266 q 853 247 831 247 q 986 372 928 295 q 953 374 968 372 q 922 378 938 376 m 982 530 q 930 394 963 461 q 997 386 972 390 q 1067 525 1044 453 q 1023 527 1044 525 q 982 530 1003 529 m 1001 689 q 986 546 1001 619 q 1028 542 1007 544 q 1073 540 1049 540 q 1094 689 1094 615 l 1001 689 m 984 847 q 1001 704 1001 774 l 1094 704 q 1073 851 1094 774 q 1028 848 1049 849 q 984 847 1007 847 m 930 999 q 982 862 965 928 q 1022 863 1001 862 q 1067 866 1044 864 q 997 1005 1040 941 q 930 999 951 1001 m 820 1144 q 874 1083 849 1117 q 920 1015 899 1049 q 952 1017 936 1015 q 986 1020 968 1019 q 853 1146 928 1096 q 835 1145 843 1146 q 820 1144 828 1144 m 802 1157 q 829 1159 812 1159 q 735 1204 783 1184 q 802 1157 766 1186 m 594 1227 q 613 1188 606 1209 q 627 1150 621 1167 q 669 1152 656 1150 q 637 1193 656 1171 q 594 1227 617 1215 z "},"S":{"ha":1165,"x_min":-8,"x_max":1111,"o":"m 586 1250 q 696 1233 639 1244 q 866 1155 783 1206 q 984 1047 928 1111 q 1044 959 1017 1005 q 1100 806 1084 876 q 1111 666 1111 737 q 1094 556 1105 610 q 1067 478 1078 505 q 845 220 995 318 q 721 164 785 185 q 557 139 642 141 q 502 142 529 139 q 448 150 475 145 q 272 220 355 170 q 100 384 164 289 q 79 419 89 401 q 60 453 69 436 q 31 530 41 492 q 17 806 -8 664 q 131 1047 48 938 q 167 1086 149 1067 q 206 1123 185 1105 q 295 1182 247 1155 q 502 1246 394 1231 q 543 1249 523 1248 q 586 1250 563 1250 m 505 1150 q 550 1148 521 1148 l 550 1233 q 533 1215 540 1227 q 523 1196 527 1204 q 513 1173 517 1184 q 505 1150 509 1161 m 475 986 q 466 918 469 951 q 461 853 463 885 q 505 853 484 853 q 550 853 527 853 l 550 984 q 475 986 500 984 m 461 837 q 458 770 459 802 q 457 704 457 737 l 550 704 l 550 837 q 504 837 527 837 q 461 837 482 837 m 473 407 q 511 407 492 407 q 550 407 530 407 l 550 540 q 505 540 527 540 q 461 540 484 540 q 462 536 461 538 q 463 534 463 534 q 466 470 463 502 q 473 407 469 438 m 476 390 q 502 258 486 314 q 526 258 513 258 q 550 258 538 258 l 550 392 q 476 390 502 392 m 550 158 l 550 243 q 528 243 538 243 q 505 243 517 243 q 522 195 511 222 q 550 158 532 168 m 559 156 q 557 156 561 156 q 554 156 552 156 q 556 156 554 156 q 559 156 557 156 m 610 243 q 587 243 598 243 q 565 243 577 243 l 565 158 q 593 196 583 168 q 610 243 604 224 m 615 258 q 640 392 629 313 q 602 392 621 392 q 565 392 583 392 l 565 258 q 589 258 577 258 q 615 258 602 258 m 654 538 q 610 539 631 538 q 565 540 588 540 l 565 407 q 604 407 584 407 q 642 407 623 407 q 654 538 650 473 m 654 556 q 657 621 656 588 q 658 689 658 654 l 565 689 l 565 556 q 610 556 588 556 q 654 556 631 556 m 658 704 q 657 770 658 737 q 654 837 656 802 q 610 837 631 837 q 565 837 588 837 l 565 704 l 658 704 m 642 986 q 565 984 617 984 l 565 853 q 610 853 588 853 q 654 853 631 853 q 642 986 650 918 m 640 1001 q 615 1134 631 1074 q 565 1132 598 1132 l 565 999 q 602 1000 583 999 q 640 1001 621 1001 m 565 1233 l 565 1148 q 610 1150 596 1148 q 593 1195 604 1169 q 565 1233 583 1221 m 490 1150 q 521 1225 500 1196 q 478 1193 498 1213 q 446 1150 459 1173 q 468 1150 457 1150 q 490 1150 478 1150 m 457 986 q 419 987 438 986 q 382 988 399 988 q 357 855 367 928 q 400 853 378 853 q 446 853 422 853 q 449 918 446 885 q 457 986 453 951 m 442 689 l 349 689 q 357 554 349 611 q 400 555 378 554 q 446 556 422 556 q 442 621 442 588 q 442 689 442 654 m 459 390 q 386 388 411 390 q 408 319 395 353 q 438 257 421 285 q 461 258 449 257 q 484 258 473 258 q 469 323 475 289 q 459 390 463 357 m 521 166 q 502 203 509 181 q 488 243 494 224 q 446 241 475 241 q 521 166 480 183 m 627 243 q 613 203 621 224 q 596 166 606 181 q 637 198 619 177 q 669 241 654 218 q 627 243 642 241 m 656 390 q 656 389 656 390 q 656 388 656 388 q 633 258 646 318 q 679 257 664 258 q 708 320 696 287 q 731 388 720 353 q 656 390 706 390 m 658 407 q 696 406 677 407 q 735 405 716 405 q 758 538 748 463 q 714 538 735 538 q 669 538 693 538 q 658 407 666 473 m 671 556 q 715 555 693 556 q 760 554 737 554 q 768 689 768 610 l 675 689 q 673 621 675 654 q 671 556 671 588 m 675 704 l 768 704 q 760 839 768 779 q 715 837 737 837 q 671 837 693 837 q 673 770 671 802 q 675 704 675 737 m 658 986 q 669 853 666 918 q 714 853 693 853 q 758 855 735 853 q 735 988 748 920 q 695 986 716 986 q 658 986 675 986 m 656 1001 q 693 1002 673 1001 q 731 1003 712 1003 q 679 1134 710 1074 q 655 1134 667 1134 q 631 1134 642 1134 q 656 1001 646 1074 m 390 1154 q 428 1152 403 1152 q 452 1186 440 1169 q 482 1219 465 1204 q 390 1154 434 1198 m 255 856 q 297 856 276 856 q 341 855 318 855 q 367 988 351 928 q 329 989 347 988 q 293 992 311 990 q 255 856 266 936 m 251 550 q 296 551 274 550 q 341 554 318 552 q 334 620 336 586 q 332 689 332 654 l 239 689 q 242 623 239 656 q 249 559 245 590 q 251 550 251 557 m 376 255 q 421 257 405 255 q 370 388 390 313 q 335 385 353 386 q 299 384 316 384 q 376 255 330 307 m 482 172 q 428 241 451 199 q 407 240 417 241 q 390 239 397 239 q 482 172 430 193 m 727 239 q 707 240 716 239 q 689 241 698 241 q 688 238 689 239 q 687 237 687 237 q 663 203 675 220 q 635 172 650 185 q 721 233 675 191 q 723 235 721 233 q 727 239 725 237 m 818 386 q 782 387 801 386 q 747 388 764 388 q 696 257 729 322 q 719 256 708 257 q 741 255 729 255 q 818 386 789 316 m 862 534 q 818 535 839 534 q 775 538 797 536 q 750 403 766 463 q 787 402 768 403 q 824 401 806 401 q 845 466 835 432 q 862 534 855 500 q 862 534 862 534 q 862 534 862 534 m 864 552 q 878 689 874 610 l 783 689 q 777 554 783 619 q 820 552 799 552 q 864 552 841 552 m 878 704 q 864 841 874 777 q 820 839 841 839 q 775 839 799 839 q 783 704 783 779 l 878 704 m 824 992 q 786 989 804 990 q 750 988 768 988 q 774 855 768 920 q 818 856 797 855 q 862 856 839 856 q 824 992 845 934 m 741 1138 q 696 1136 725 1136 q 747 1003 729 1069 q 781 1004 764 1003 q 818 1007 799 1005 q 741 1138 785 1076 m 635 1219 q 689 1152 662 1192 q 725 1154 714 1152 q 637 1219 691 1192 q 635 1219 635 1219 q 635 1219 635 1219 m 338 1155 q 370 1154 359 1155 q 436 1211 397 1190 l 432 1211 q 338 1155 376 1186 m 214 1013 q 282 1009 257 1009 q 357 1138 311 1082 q 337 1139 345 1138 q 318 1142 328 1140 q 259 1081 285 1115 q 214 1013 233 1047 m 131 704 l 224 704 q 235 841 224 774 q 191 842 212 841 q 147 845 170 843 q 131 704 131 770 m 147 546 q 190 548 168 546 q 235 550 212 550 q 227 619 230 584 q 224 689 224 654 l 131 689 q 147 546 131 619 m 318 251 q 336 252 326 251 q 357 253 345 253 q 282 384 314 305 q 247 380 264 382 q 212 378 230 378 q 318 251 251 309 m 434 179 q 429 181 432 179 q 426 185 426 183 q 368 237 386 216 q 336 235 347 237 q 337 234 336 235 q 338 233 338 233 q 383 202 359 216 q 434 179 407 187 m 781 235 q 762 236 775 235 q 747 237 748 237 q 681 179 714 201 q 682 179 681 179 q 685 179 683 179 q 781 235 737 203 m 903 378 q 835 384 882 380 q 760 253 801 307 q 778 252 770 253 q 799 251 787 251 q 856 310 831 276 q 903 378 882 343 m 965 530 q 920 532 941 530 q 878 534 899 534 q 845 409 866 475 q 842 403 843 405 q 841 399 841 401 q 877 395 858 397 q 912 394 895 394 q 965 530 949 463 m 986 689 l 891 689 q 882 550 891 627 q 924 548 903 550 q 968 546 945 546 q 977 592 974 569 q 984 640 980 615 q 985 664 984 652 q 986 689 986 675 m 968 845 q 924 842 945 843 q 882 841 903 841 q 891 704 891 764 l 986 704 q 980 774 986 739 q 968 845 974 810 m 912 997 q 841 993 862 993 q 878 858 868 914 q 920 859 899 858 q 965 860 941 860 q 912 997 941 939 m 799 1142 q 777 1139 787 1140 q 760 1138 768 1138 q 801 1076 783 1109 q 835 1009 818 1044 q 869 1010 853 1009 q 903 1013 885 1011 q 855 1081 882 1049 q 799 1142 828 1113 m 681 1211 q 747 1154 725 1181 q 779 1155 758 1155 q 732 1187 764 1171 q 681 1211 700 1204 m 313 1157 q 380 1204 341 1181 q 285 1159 338 1188 q 313 1157 305 1159 m 195 1015 q 293 1140 230 1080 q 294 1141 293 1140 q 295 1144 295 1142 q 279 1145 287 1144 q 264 1146 270 1146 q 197 1094 239 1128 q 129 1020 160 1059 q 195 1015 152 1019 m 135 862 q 187 999 154 941 q 153 1001 170 999 q 120 1005 137 1003 q 75 930 95 968 q 61 897 68 912 q 48 866 54 882 q 91 863 69 864 q 135 862 112 862 m 114 704 q 131 847 116 774 q 87 848 108 847 q 44 851 66 849 q 21 704 21 770 l 114 704 m 131 546 q 118 616 122 581 q 114 689 114 652 l 21 689 q 44 540 23 611 q 87 543 66 542 q 131 546 108 544 m 187 394 q 135 530 150 461 q 91 527 112 529 q 48 525 69 525 q 120 388 75 448 q 187 394 141 390 m 295 249 q 195 378 237 299 q 161 374 177 376 q 129 372 145 372 q 262 245 181 303 q 295 249 282 249 m 313 233 q 285 231 293 233 q 380 187 338 201 q 313 233 341 208 m 804 233 q 735 187 764 201 q 831 231 781 203 q 804 233 822 233 m 922 378 q 904 349 912 363 q 887 322 895 336 q 855 285 870 303 q 822 249 839 266 q 853 247 831 247 q 986 372 928 295 q 953 374 968 372 q 922 378 938 376 m 982 530 q 930 394 963 461 q 997 386 972 390 q 1067 525 1044 453 q 1023 527 1044 525 q 982 530 1003 529 m 1001 689 q 986 546 1001 619 q 1028 542 1007 544 q 1073 540 1049 540 q 1094 689 1094 615 l 1001 689 m 984 847 q 1001 704 1001 774 l 1094 704 q 1073 851 1094 774 q 1028 848 1049 849 q 984 847 1007 847 m 930 999 q 982 862 965 928 q 1022 863 1001 862 q 1067 866 1044 864 q 997 1005 1040 941 q 930 999 951 1001 m 820 1144 q 874 1083 849 1117 q 920 1015 899 1049 q 952 1017 936 1015 q 986 1020 968 1019 q 853 1146 928 1096 q 835 1145 843 1146 q 820 1144 828 1144 m 802 1157 q 829 1159 812 1159 q 735 1204 783 1184 q 802 1157 766 1186 m 594 1227 q 613 1188 606 1209 q 627 1150 621 1167 q 669 1152 656 1150 q 637 1193 656 1171 q 594 1227 617 1215 z "},"T":{"ha":1165,"x_min":-8,"x_max":1111,"o":"m 586 1250 q 696 1233 639 1244 q 866 1155 783 1206 q 984 1047 928 1111 q 1044 959 1017 1005 q 1100 806 1084 876 q 1111 666 1111 737 q 1094 556 1105 610 q 1067 478 1078 505 q 845 220 995 318 q 721 164 785 185 q 557 139 642 141 q 502 142 529 139 q 448 150 475 145 q 272 220 355 170 q 100 384 164 289 q 79 419 89 401 q 60 453 69 436 q 31 530 41 492 q 17 806 -8 664 q 131 1047 48 938 q 167 1086 149 1067 q 206 1123 185 1105 q 295 1182 247 1155 q 502 1246 394 1231 q 543 1249 523 1248 q 586 1250 563 1250 m 505 1150 q 550 1148 521 1148 l 550 1233 q 533 1215 540 1227 q 523 1196 527 1204 q 513 1173 517 1184 q 505 1150 509 1161 m 476 390 q 502 258 486 314 q 526 258 513 258 q 550 258 538 258 l 550 392 q 476 390 502 392 m 550 158 l 550 243 q 528 243 538 243 q 505 243 517 243 q 522 195 511 222 q 550 158 532 168 m 559 156 q 557 156 561 156 q 554 156 552 156 q 556 156 554 156 q 559 156 557 156 m 610 243 q 587 243 598 243 q 565 243 577 243 l 565 158 q 593 196 583 168 q 610 243 604 224 m 615 258 q 640 392 629 313 q 602 392 621 392 q 565 392 583 392 l 565 258 q 589 258 577 258 q 615 258 602 258 m 654 538 q 610 539 631 538 q 565 540 588 540 l 565 407 q 604 407 584 407 q 642 407 623 407 q 654 538 650 473 m 654 556 q 657 621 656 588 q 658 689 658 654 l 565 689 l 565 556 q 610 556 588 556 q 654 556 631 556 m 658 704 q 657 770 658 737 q 654 837 656 802 q 610 837 631 837 q 565 837 588 837 l 565 704 l 658 704 m 642 986 q 565 984 617 984 l 565 853 q 610 853 588 853 q 654 853 631 853 q 642 986 650 918 m 565 1233 l 565 1148 q 610 1150 596 1148 q 593 1195 604 1169 q 565 1233 583 1221 m 490 1150 q 521 1225 500 1196 q 478 1193 498 1213 q 446 1150 459 1173 q 468 1150 457 1150 q 490 1150 478 1150 m 457 986 q 419 987 438 986 q 382 988 399 988 q 357 855 367 928 q 400 853 378 853 q 446 853 422 853 q 449 918 446 885 q 457 986 453 951 m 446 837 q 400 837 422 837 q 355 839 378 837 q 349 704 349 770 l 442 704 q 442 770 442 737 q 446 837 442 802 m 442 689 l 349 689 q 357 554 349 611 q 400 555 378 554 q 446 556 422 556 q 442 621 442 588 q 442 689 442 654 m 457 407 q 457 408 457 407 q 457 411 457 409 q 449 474 451 442 q 446 538 448 505 q 401 538 422 538 q 357 538 380 538 q 382 405 367 459 q 457 407 432 405 m 459 390 q 386 388 411 390 q 408 319 395 353 q 438 257 421 285 q 461 258 449 257 q 484 258 473 258 q 469 323 475 289 q 459 390 463 357 m 521 166 q 502 203 509 181 q 488 243 494 224 q 446 241 475 241 q 521 166 480 183 m 627 243 q 613 203 621 224 q 596 166 606 181 q 637 198 619 177 q 669 241 654 218 q 627 243 642 241 m 656 390 q 656 389 656 390 q 656 388 656 388 q 633 258 646 318 q 679 257 664 258 q 708 320 696 287 q 731 388 720 353 q 656 390 706 390 m 658 407 q 696 406 677 407 q 735 405 716 405 q 758 538 748 463 q 714 538 735 538 q 669 538 693 538 q 658 407 666 473 m 671 556 q 715 555 693 556 q 760 554 737 554 q 768 689 768 610 l 675 689 q 673 621 675 654 q 671 556 671 588 m 675 704 l 768 704 q 760 839 768 779 q 715 837 737 837 q 671 837 693 837 q 673 770 671 802 q 675 704 675 737 m 658 986 q 669 853 666 918 q 714 853 693 853 q 758 855 735 853 q 735 988 748 920 q 695 986 716 986 q 658 986 675 986 m 390 1154 q 428 1152 403 1152 q 452 1186 440 1169 q 482 1219 465 1204 q 390 1154 434 1198 m 255 856 q 297 856 276 856 q 341 855 318 855 q 367 988 351 928 q 329 989 347 988 q 293 992 311 990 q 255 856 266 936 m 251 841 q 239 704 241 770 l 332 704 q 334 771 332 737 q 340 839 336 804 q 295 839 316 839 q 251 841 274 839 m 251 550 q 296 551 274 550 q 341 554 318 552 q 334 620 336 586 q 332 689 332 654 l 239 689 q 242 623 239 656 q 249 559 245 590 q 251 550 251 557 m 291 399 q 367 403 341 403 q 341 538 349 463 q 297 535 318 536 q 255 534 276 534 q 291 399 266 459 m 376 255 q 421 257 405 255 q 370 388 390 313 q 335 385 353 386 q 299 384 316 384 q 376 255 330 307 m 482 172 q 428 241 451 199 q 407 240 417 241 q 390 239 397 239 q 482 172 430 193 m 727 239 q 707 240 716 239 q 689 241 698 241 q 688 238 689 239 q 687 237 687 237 q 663 203 675 220 q 635 172 650 185 q 721 233 675 191 q 723 235 721 233 q 727 239 725 237 m 818 386 q 782 387 801 386 q 747 388 764 388 q 696 257 729 322 q 719 256 708 257 q 741 255 729 255 q 818 386 789 316 m 862 534 q 818 535 839 534 q 775 538 797 536 q 750 403 766 463 q 787 402 768 403 q 824 401 806 401 q 845 466 835 432 q 862 534 855 500 q 862 534 862 534 q 862 534 862 534 m 864 552 q 878 689 874 610 l 783 689 q 777 554 783 619 q 820 552 799 552 q 864 552 841 552 m 878 704 q 864 841 874 777 q 820 839 841 839 q 775 839 799 839 q 783 704 783 779 l 878 704 m 824 992 q 786 989 804 990 q 750 988 768 988 q 774 855 768 920 q 818 856 797 855 q 862 856 839 856 q 824 992 845 934 m 741 1138 q 696 1136 725 1136 q 747 1003 729 1069 q 781 1004 764 1003 q 818 1007 799 1005 q 741 1138 785 1076 m 635 1219 q 689 1152 662 1192 q 725 1154 714 1152 q 637 1219 691 1192 q 635 1219 635 1219 q 635 1219 635 1219 m 338 1155 q 370 1154 359 1155 q 436 1211 397 1190 l 432 1211 q 338 1155 376 1186 m 214 1013 q 282 1009 257 1009 q 357 1138 311 1082 q 337 1139 345 1138 q 318 1142 328 1140 q 259 1081 285 1115 q 214 1013 233 1047 m 150 860 q 194 859 172 860 q 239 858 216 858 q 276 993 251 932 q 204 997 251 993 q 173 931 185 966 q 150 860 160 895 m 131 704 l 224 704 q 235 841 224 774 q 191 842 212 841 q 147 845 170 843 q 131 704 131 770 m 147 546 q 190 548 168 546 q 235 550 212 550 q 227 619 230 584 q 224 689 224 654 l 131 689 q 147 546 131 619 m 204 394 q 276 399 251 397 q 237 534 253 455 q 193 532 214 534 q 150 530 172 530 q 204 394 172 453 m 318 251 q 336 252 326 251 q 357 253 345 253 q 282 384 314 305 q 247 380 264 382 q 212 378 230 378 q 318 251 251 309 m 434 179 q 429 181 432 179 q 426 185 426 183 q 368 237 386 216 q 336 235 347 237 q 337 234 336 235 q 338 233 338 233 q 383 202 359 216 q 434 179 407 187 m 781 235 q 762 236 775 235 q 747 237 748 237 q 681 179 714 201 q 682 179 681 179 q 685 179 683 179 q 781 235 737 203 m 903 378 q 835 384 882 380 q 760 253 801 307 q 778 252 770 253 q 799 251 787 251 q 856 310 831 276 q 903 378 882 343 m 965 530 q 920 532 941 530 q 878 534 899 534 q 845 409 866 475 q 842 403 843 405 q 841 399 841 401 q 877 395 858 397 q 912 394 895 394 q 965 530 949 463 m 986 689 l 891 689 q 882 550 891 627 q 924 548 903 550 q 968 546 945 546 q 977 592 974 569 q 984 640 980 615 q 985 664 984 652 q 986 689 986 675 m 968 845 q 924 842 945 843 q 882 841 903 841 q 891 704 891 764 l 986 704 q 980 774 986 739 q 968 845 974 810 m 912 997 q 841 993 862 993 q 878 858 868 914 q 920 859 899 858 q 965 860 941 860 q 912 997 941 939 m 799 1142 q 777 1139 787 1140 q 760 1138 768 1138 q 801 1076 783 1109 q 835 1009 818 1044 q 869 1010 853 1009 q 903 1013 885 1011 q 855 1081 882 1049 q 799 1142 828 1113 m 681 1211 q 747 1154 725 1181 q 779 1155 758 1155 q 732 1187 764 1171 q 681 1211 700 1204 m 313 1157 q 380 1204 341 1181 q 285 1159 338 1188 q 313 1157 305 1159 m 195 1015 q 293 1140 230 1080 q 294 1141 293 1140 q 295 1144 295 1142 q 279 1145 287 1144 q 264 1146 270 1146 q 197 1094 239 1128 q 129 1020 160 1059 q 195 1015 152 1019 m 135 862 q 187 999 154 941 q 153 1001 170 999 q 120 1005 137 1003 q 75 930 95 968 q 61 897 68 912 q 48 866 54 882 q 91 863 69 864 q 135 862 112 862 m 114 704 q 131 847 116 774 q 87 848 108 847 q 44 851 66 849 q 21 704 21 770 l 114 704 m 131 546 q 118 616 122 581 q 114 689 114 652 l 21 689 q 44 540 23 611 q 87 543 66 542 q 131 546 108 544 m 187 394 q 135 530 150 461 q 91 527 112 529 q 48 525 69 525 q 120 388 75 448 q 187 394 141 390 m 295 249 q 195 378 237 299 q 161 374 177 376 q 129 372 145 372 q 262 245 181 303 q 295 249 282 249 m 313 233 q 285 231 293 233 q 380 187 338 201 q 313 233 341 208 m 804 233 q 735 187 764 201 q 831 231 781 203 q 804 233 822 233 m 922 378 q 904 349 912 363 q 887 322 895 336 q 855 285 870 303 q 822 249 839 266 q 853 247 831 247 q 986 372 928 295 q 953 374 968 372 q 922 378 938 376 m 982 530 q 930 394 963 461 q 997 386 972 390 q 1067 525 1044 453 q 1023 527 1044 525 q 982 530 1003 529 m 1001 689 q 986 546 1001 619 q 1028 542 1007 544 q 1073 540 1049 540 q 1094 689 1094 615 l 1001 689 m 984 847 q 1001 704 1001 774 l 1094 704 q 1073 851 1094 774 q 1028 848 1049 849 q 984 847 1007 847 m 930 999 q 982 862 965 928 q 1022 863 1001 862 q 1067 866 1044 864 q 997 1005 1040 941 q 930 999 951 1001 m 820 1144 q 874 1083 849 1117 q 920 1015 899 1049 q 952 1017 936 1015 q 986 1020 968 1019 q 853 1146 928 1096 q 835 1145 843 1146 q 820 1144 828 1144 m 802 1157 q 829 1159 812 1159 q 735 1204 783 1184 q 802 1157 766 1186 m 594 1227 q 613 1188 606 1209 q 627 1150 621 1167 q 669 1152 656 1150 q 637 1193 656 1171 q 594 1227 617 1215 z "},"U":{"ha":1165,"x_min":-8,"x_max":1111,"o":"m 586 1250 q 696 1233 639 1244 q 866 1155 783 1206 q 984 1047 928 1111 q 1044 959 1017 1005 q 1100 806 1084 876 q 1111 666 1111 737 q 1094 556 1105 610 q 1067 478 1078 505 q 845 220 995 318 q 721 164 785 185 q 557 139 642 141 q 502 142 529 139 q 448 150 475 145 q 272 220 355 170 q 100 384 164 289 q 79 419 89 401 q 60 453 69 436 q 31 530 41 492 q 17 806 -8 664 q 131 1047 48 938 q 167 1086 149 1067 q 206 1123 185 1105 q 295 1182 247 1155 q 502 1246 394 1231 q 543 1249 523 1248 q 586 1250 563 1250 m 505 1150 q 550 1148 521 1148 l 550 1233 q 533 1215 540 1227 q 523 1196 527 1204 q 513 1173 517 1184 q 505 1150 509 1161 m 476 1001 q 512 1000 494 1001 q 550 999 530 999 l 550 1132 q 526 1132 538 1132 q 502 1132 513 1132 q 476 1001 486 1074 m 475 986 q 466 918 469 951 q 461 853 463 885 q 505 853 484 853 q 550 853 527 853 l 550 984 q 475 986 500 984 m 461 837 q 458 770 459 802 q 457 704 457 737 l 550 704 l 550 837 q 504 837 527 837 q 461 837 482 837 m 457 689 q 458 621 457 654 q 461 556 459 588 q 504 556 482 556 q 550 556 527 556 l 550 689 l 457 689 m 473 407 q 511 407 492 407 q 550 407 530 407 l 550 540 q 505 540 527 540 q 461 540 484 540 q 462 536 461 538 q 463 534 463 534 q 466 470 463 502 q 473 407 469 438 m 476 390 q 502 258 486 314 q 526 258 513 258 q 550 258 538 258 l 550 392 q 476 390 502 392 m 550 158 l 550 243 q 528 243 538 243 q 505 243 517 243 q 522 195 511 222 q 550 158 532 168 m 559 156 q 557 156 561 156 q 554 156 552 156 q 556 156 554 156 q 559 156 557 156 m 610 243 q 587 243 598 243 q 565 243 577 243 l 565 158 q 593 196 583 168 q 610 243 604 224 m 615 258 q 640 392 629 313 q 602 392 621 392 q 565 392 583 392 l 565 258 q 589 258 577 258 q 615 258 602 258 m 654 538 q 610 539 631 538 q 565 540 588 540 l 565 407 q 604 407 584 407 q 642 407 623 407 q 654 538 650 473 m 654 556 q 657 621 656 588 q 658 689 658 654 l 565 689 l 565 556 q 610 556 588 556 q 654 556 631 556 m 565 1233 l 565 1148 q 610 1150 596 1148 q 593 1195 604 1169 q 565 1233 583 1221 m 490 1150 q 521 1225 500 1196 q 478 1193 498 1213 q 446 1150 459 1173 q 468 1150 457 1150 q 490 1150 478 1150 m 459 1001 q 459 1001 459 1001 q 459 1003 459 1001 q 470 1067 465 1034 q 484 1134 475 1100 q 461 1134 473 1134 q 438 1134 449 1134 q 386 1003 409 1084 q 459 1001 411 1001 m 457 986 q 419 987 438 986 q 382 988 399 988 q 357 855 367 928 q 400 853 378 853 q 446 853 422 853 q 449 918 446 885 q 457 986 453 951 m 446 837 q 400 837 422 837 q 355 839 378 837 q 349 704 349 770 l 442 704 q 442 770 442 737 q 446 837 442 802 m 442 689 l 349 689 q 357 554 349 611 q 400 555 378 554 q 446 556 422 556 q 442 621 442 588 q 442 689 442 654 m 457 407 q 457 408 457 407 q 457 411 457 409 q 449 474 451 442 q 446 538 448 505 q 401 538 422 538 q 357 538 380 538 q 382 405 367 459 q 457 407 432 405 m 459 390 q 386 388 411 390 q 408 319 395 353 q 438 257 421 285 q 461 258 449 257 q 484 258 473 258 q 469 323 475 289 q 459 390 463 357 m 521 166 q 502 203 509 181 q 488 243 494 224 q 446 241 475 241 q 521 166 480 183 m 627 243 q 613 203 621 224 q 596 166 606 181 q 637 198 619 177 q 669 241 654 218 q 627 243 642 241 m 656 390 q 656 389 656 390 q 656 388 656 388 q 633 258 646 318 q 679 257 664 258 q 708 320 696 287 q 731 388 720 353 q 656 390 706 390 m 658 407 q 696 406 677 407 q 735 405 716 405 q 758 538 748 463 q 714 538 735 538 q 669 538 693 538 q 658 407 666 473 m 675 704 l 768 704 q 760 839 768 779 q 715 837 737 837 q 671 837 693 837 q 673 770 671 802 q 675 704 675 737 m 658 986 q 669 853 666 918 q 714 853 693 853 q 758 855 735 853 q 735 988 748 920 q 695 986 716 986 q 658 986 675 986 m 656 1001 q 693 1002 673 1001 q 731 1003 712 1003 q 679 1134 710 1074 q 655 1134 667 1134 q 631 1134 642 1134 q 656 1001 646 1074 m 390 1154 q 428 1152 403 1152 q 452 1186 440 1169 q 482 1219 465 1204 q 390 1154 434 1198 m 299 1007 q 335 1004 316 1005 q 370 1003 353 1003 q 421 1136 388 1078 q 376 1138 392 1136 q 299 1007 332 1086 m 255 856 q 297 856 276 856 q 341 855 318 855 q 367 988 351 928 q 329 989 347 988 q 293 992 311 990 q 255 856 266 936 m 251 841 q 239 704 241 770 l 332 704 q 334 771 332 737 q 340 839 336 804 q 295 839 316 839 q 251 841 274 839 m 251 550 q 296 551 274 550 q 341 554 318 552 q 334 620 336 586 q 332 689 332 654 l 239 689 q 242 623 239 656 q 249 559 245 590 q 251 550 251 557 m 291 399 q 367 403 341 403 q 341 538 349 463 q 297 535 318 536 q 255 534 276 534 q 291 399 266 459 m 376 255 q 421 257 405 255 q 370 388 390 313 q 335 385 353 386 q 299 384 316 384 q 376 255 330 307 m 482 172 q 428 241 451 199 q 407 240 417 241 q 390 239 397 239 q 482 172 430 193 m 727 239 q 707 240 716 239 q 689 241 698 241 q 688 238 689 239 q 687 237 687 237 q 663 203 675 220 q 635 172 650 185 q 721 233 675 191 q 723 235 721 233 q 727 239 725 237 m 818 386 q 782 387 801 386 q 747 388 764 388 q 696 257 729 322 q 719 256 708 257 q 741 255 729 255 q 818 386 789 316 m 862 534 q 818 535 839 534 q 775 538 797 536 q 750 403 766 463 q 787 402 768 403 q 824 401 806 401 q 845 466 835 432 q 862 534 855 500 q 862 534 862 534 q 862 534 862 534 m 878 704 q 864 841 874 777 q 820 839 841 839 q 775 839 799 839 q 783 704 783 779 l 878 704 m 824 992 q 786 989 804 990 q 750 988 768 988 q 774 855 768 920 q 818 856 797 855 q 862 856 839 856 q 824 992 845 934 m 741 1138 q 696 1136 725 1136 q 747 1003 729 1069 q 781 1004 764 1003 q 818 1007 799 1005 q 741 1138 785 1076 m 635 1219 q 689 1152 662 1192 q 725 1154 714 1152 q 637 1219 691 1192 q 635 1219 635 1219 q 635 1219 635 1219 m 338 1155 q 370 1154 359 1155 q 436 1211 397 1190 l 432 1211 q 338 1155 376 1186 m 214 1013 q 282 1009 257 1009 q 357 1138 311 1082 q 337 1139 345 1138 q 318 1142 328 1140 q 259 1081 285 1115 q 214 1013 233 1047 m 150 860 q 194 859 172 860 q 239 858 216 858 q 276 993 251 932 q 204 997 251 993 q 173 931 185 966 q 150 860 160 895 m 131 704 l 224 704 q 235 841 224 774 q 191 842 212 841 q 147 845 170 843 q 131 704 131 770 m 147 546 q 190 548 168 546 q 235 550 212 550 q 227 619 230 584 q 224 689 224 654 l 131 689 q 147 546 131 619 m 204 394 q 276 399 251 397 q 237 534 253 455 q 193 532 214 534 q 150 530 172 530 q 204 394 172 453 m 318 251 q 336 252 326 251 q 357 253 345 253 q 282 384 314 305 q 247 380 264 382 q 212 378 230 378 q 318 251 251 309 m 434 179 q 429 181 432 179 q 426 185 426 183 q 368 237 386 216 q 336 235 347 237 q 337 234 336 235 q 338 233 338 233 q 383 202 359 216 q 434 179 407 187 m 781 235 q 762 236 775 235 q 747 237 748 237 q 681 179 714 201 q 682 179 681 179 q 685 179 683 179 q 781 235 737 203 m 903 378 q 835 384 882 380 q 760 253 801 307 q 778 252 770 253 q 799 251 787 251 q 856 310 831 276 q 903 378 882 343 m 965 530 q 920 532 941 530 q 878 534 899 534 q 845 409 866 475 q 842 403 843 405 q 841 399 841 401 q 877 395 858 397 q 912 394 895 394 q 965 530 949 463 m 986 689 l 891 689 q 882 550 891 627 q 924 548 903 550 q 968 546 945 546 q 977 592 974 569 q 984 640 980 615 q 985 664 984 652 q 986 689 986 675 m 681 1211 q 747 1154 725 1181 q 779 1155 758 1155 q 732 1187 764 1171 q 681 1211 700 1204 m 313 1157 q 380 1204 341 1181 q 285 1159 338 1188 q 313 1157 305 1159 m 195 1015 q 293 1140 230 1080 q 294 1141 293 1140 q 295 1144 295 1142 q 279 1145 287 1144 q 264 1146 270 1146 q 197 1094 239 1128 q 129 1020 160 1059 q 195 1015 152 1019 m 135 862 q 187 999 154 941 q 153 1001 170 999 q 120 1005 137 1003 q 75 930 95 968 q 61 897 68 912 q 48 866 54 882 q 91 863 69 864 q 135 862 112 862 m 114 704 q 131 847 116 774 q 87 848 108 847 q 44 851 66 849 q 21 704 21 770 l 114 704 m 131 546 q 118 616 122 581 q 114 689 114 652 l 21 689 q 44 540 23 611 q 87 543 66 542 q 131 546 108 544 m 187 394 q 135 530 150 461 q 91 527 112 529 q 48 525 69 525 q 120 388 75 448 q 187 394 141 390 m 295 249 q 195 378 237 299 q 161 374 177 376 q 129 372 145 372 q 262 245 181 303 q 295 249 282 249 m 313 233 q 285 231 293 233 q 380 187 338 201 q 313 233 341 208 m 804 233 q 735 187 764 201 q 831 231 781 203 q 804 233 822 233 m 922 378 q 904 349 912 363 q 887 322 895 336 q 855 285 870 303 q 822 249 839 266 q 853 247 831 247 q 986 372 928 295 q 953 374 968 372 q 922 378 938 376 m 982 530 q 930 394 963 461 q 997 386 972 390 q 1067 525 1044 453 q 1023 527 1044 525 q 982 530 1003 529 m 1001 689 q 986 546 1001 619 q 1028 542 1007 544 q 1073 540 1049 540 q 1094 689 1094 615 l 1001 689 m 984 847 q 1001 704 1001 774 l 1094 704 q 1073 851 1094 774 q 1028 848 1049 849 q 984 847 1007 847 m 930 999 q 982 862 965 928 q 1022 863 1001 862 q 1067 866 1044 864 q 997 1005 1040 941 q 930 999 951 1001 m 820 1144 q 874 1083 849 1117 q 920 1015 899 1049 q 952 1017 936 1015 q 986 1020 968 1019 q 853 1146 928 1096 q 835 1145 843 1146 q 820 1144 828 1144 m 802 1157 q 829 1159 812 1159 q 735 1204 783 1184 q 802 1157 766 1186 m 594 1227 q 613 1188 606 1209 q 627 1150 621 1167 q 669 1152 656 1150 q 637 1193 656 1171 q 594 1227 617 1215 z "},"V":{"ha":1165,"x_min":-8,"x_max":1111,"o":"m 586 1250 q 696 1233 639 1244 q 866 1155 783 1206 q 984 1047 928 1111 q 1044 959 1017 1005 q 1100 806 1084 876 q 1111 666 1111 737 q 1094 556 1105 610 q 1067 478 1078 505 q 845 220 995 318 q 721 164 785 185 q 557 139 642 141 q 502 142 529 139 q 448 150 475 145 q 272 220 355 170 q 100 384 164 289 q 79 419 89 401 q 60 453 69 436 q 31 530 41 492 q 17 806 -8 664 q 131 1047 48 938 q 167 1086 149 1067 q 206 1123 185 1105 q 295 1182 247 1155 q 502 1246 394 1231 q 543 1249 523 1248 q 586 1250 563 1250 m 505 1150 q 550 1148 521 1148 l 550 1233 q 533 1215 540 1227 q 523 1196 527 1204 q 513 1173 517 1184 q 505 1150 509 1161 m 476 1001 q 512 1000 494 1001 q 550 999 530 999 l 550 1132 q 526 1132 538 1132 q 502 1132 513 1132 q 476 1001 486 1074 m 475 986 q 466 918 469 951 q 461 853 463 885 q 505 853 484 853 q 550 853 527 853 l 550 984 q 475 986 500 984 m 461 837 q 458 770 459 802 q 457 704 457 737 l 550 704 l 550 837 q 504 837 527 837 q 461 837 482 837 m 457 689 q 458 621 457 654 q 461 556 459 588 q 504 556 482 556 q 550 556 527 556 l 550 689 l 457 689 m 476 390 q 502 258 486 314 q 526 258 513 258 q 550 258 538 258 l 550 392 q 476 390 502 392 m 550 158 l 550 243 q 528 243 538 243 q 505 243 517 243 q 522 195 511 222 q 550 158 532 168 m 559 156 q 557 156 561 156 q 554 156 552 156 q 556 156 554 156 q 559 156 557 156 m 610 243 q 587 243 598 243 q 565 243 577 243 l 565 158 q 593 196 583 168 q 610 243 604 224 m 615 258 q 640 392 629 313 q 602 392 621 392 q 565 392 583 392 l 565 258 q 589 258 577 258 q 615 258 602 258 m 654 538 q 610 539 631 538 q 565 540 588 540 l 565 407 q 604 407 584 407 q 642 407 623 407 q 654 538 650 473 m 658 704 q 657 770 658 737 q 654 837 656 802 q 610 837 631 837 q 565 837 588 837 l 565 704 l 658 704 m 642 986 q 565 984 617 984 l 565 853 q 610 853 588 853 q 654 853 631 853 q 642 986 650 918 m 640 1001 q 615 1134 631 1074 q 565 1132 598 1132 l 565 999 q 602 1000 583 999 q 640 1001 621 1001 m 565 1233 l 565 1148 q 610 1150 596 1148 q 593 1195 604 1169 q 565 1233 583 1221 m 490 1150 q 521 1225 500 1196 q 478 1193 498 1213 q 446 1150 459 1173 q 468 1150 457 1150 q 490 1150 478 1150 m 459 1001 q 459 1001 459 1001 q 459 1003 459 1001 q 470 1067 465 1034 q 484 1134 475 1100 q 461 1134 473 1134 q 438 1134 449 1134 q 386 1003 409 1084 q 459 1001 411 1001 m 457 986 q 419 987 438 986 q 382 988 399 988 q 357 855 367 928 q 400 853 378 853 q 446 853 422 853 q 449 918 446 885 q 457 986 453 951 m 446 837 q 400 837 422 837 q 355 839 378 837 q 349 704 349 770 l 442 704 q 442 770 442 737 q 446 837 442 802 m 457 407 q 457 408 457 407 q 457 411 457 409 q 449 474 451 442 q 446 538 448 505 q 401 538 422 538 q 357 538 380 538 q 382 405 367 459 q 457 407 432 405 m 459 390 q 386 388 411 390 q 408 319 395 353 q 438 257 421 285 q 461 258 449 257 q 484 258 473 258 q 469 323 475 289 q 459 390 463 357 m 521 166 q 502 203 509 181 q 488 243 494 224 q 446 241 475 241 q 521 166 480 183 m 627 243 q 613 203 621 224 q 596 166 606 181 q 637 198 619 177 q 669 241 654 218 q 627 243 642 241 m 656 390 q 656 389 656 390 q 656 388 656 388 q 633 258 646 318 q 679 257 664 258 q 708 320 696 287 q 731 388 720 353 q 656 390 706 390 m 658 407 q 696 406 677 407 q 735 405 716 405 q 758 538 748 463 q 714 538 735 538 q 669 538 693 538 q 658 407 666 473 m 671 556 q 715 555 693 556 q 760 554 737 554 q 768 689 768 610 l 675 689 q 673 621 675 654 q 671 556 671 588 m 390 1154 q 428 1152 403 1152 q 452 1186 440 1169 q 482 1219 465 1204 q 390 1154 434 1198 m 251 550 q 296 551 274 550 q 341 554 318 552 q 334 620 336 586 q 332 689 332 654 l 239 689 q 242 623 239 656 q 249 559 245 590 q 251 550 251 557 m 291 399 q 367 403 341 403 q 341 538 349 463 q 297 535 318 536 q 255 534 276 534 q 291 399 266 459 m 376 255 q 421 257 405 255 q 370 388 390 313 q 335 385 353 386 q 299 384 316 384 q 376 255 330 307 m 482 172 q 428 241 451 199 q 407 240 417 241 q 390 239 397 239 q 482 172 430 193 m 727 239 q 707 240 716 239 q 689 241 698 241 q 688 238 689 239 q 687 237 687 237 q 663 203 675 220 q 635 172 650 185 q 721 233 675 191 q 723 235 721 233 q 727 239 725 237 m 818 386 q 782 387 801 386 q 747 388 764 388 q 696 257 729 322 q 719 256 708 257 q 741 255 729 255 q 818 386 789 316 m 862 534 q 818 535 839 534 q 775 538 797 536 q 750 403 766 463 q 787 402 768 403 q 824 401 806 401 q 845 466 835 432 q 862 534 855 500 q 862 534 862 534 q 862 534 862 534 m 864 552 q 878 689 874 610 l 783 689 q 777 554 783 619 q 820 552 799 552 q 864 552 841 552 m 878 704 q 864 841 874 777 q 820 839 841 839 q 775 839 799 839 q 783 704 783 779 l 878 704 m 824 992 q 786 989 804 990 q 750 988 768 988 q 774 855 768 920 q 818 856 797 855 q 862 856 839 856 q 824 992 845 934 m 741 1138 q 696 1136 725 1136 q 747 1003 729 1069 q 781 1004 764 1003 q 818 1007 799 1005 q 741 1138 785 1076 m 635 1219 q 689 1152 662 1192 q 725 1154 714 1152 q 637 1219 691 1192 q 635 1219 635 1219 q 635 1219 635 1219 m 338 1155 q 370 1154 359 1155 q 436 1211 397 1190 l 432 1211 q 338 1155 376 1186 m 214 1013 q 282 1009 257 1009 q 357 1138 311 1082 q 337 1139 345 1138 q 318 1142 328 1140 q 259 1081 285 1115 q 214 1013 233 1047 m 150 860 q 194 859 172 860 q 239 858 216 858 q 276 993 251 932 q 204 997 251 993 q 173 931 185 966 q 150 860 160 895 m 131 704 l 224 704 q 235 841 224 774 q 191 842 212 841 q 147 845 170 843 q 131 704 131 770 m 147 546 q 190 548 168 546 q 235 550 212 550 q 227 619 230 584 q 224 689 224 654 l 131 689 q 147 546 131 619 m 204 394 q 276 399 251 397 q 237 534 253 455 q 193 532 214 534 q 150 530 172 530 q 204 394 172 453 m 318 251 q 336 252 326 251 q 357 253 345 253 q 282 384 314 305 q 247 380 264 382 q 212 378 230 378 q 318 251 251 309 m 434 179 q 429 181 432 179 q 426 185 426 183 q 368 237 386 216 q 336 235 347 237 q 337 234 336 235 q 338 233 338 233 q 383 202 359 216 q 434 179 407 187 m 781 235 q 762 236 775 235 q 747 237 748 237 q 681 179 714 201 q 682 179 681 179 q 685 179 683 179 q 781 235 737 203 m 903 378 q 835 384 882 380 q 760 253 801 307 q 778 252 770 253 q 799 251 787 251 q 856 310 831 276 q 903 378 882 343 m 965 530 q 920 532 941 530 q 878 534 899 534 q 845 409 866 475 q 842 403 843 405 q 841 399 841 401 q 877 395 858 397 q 912 394 895 394 q 965 530 949 463 m 986 689 l 891 689 q 882 550 891 627 q 924 548 903 550 q 968 546 945 546 q 977 592 974 569 q 984 640 980 615 q 985 664 984 652 q 986 689 986 675 m 968 845 q 924 842 945 843 q 882 841 903 841 q 891 704 891 764 l 986 704 q 980 774 986 739 q 968 845 974 810 m 912 997 q 841 993 862 993 q 878 858 868 914 q 920 859 899 858 q 965 860 941 860 q 912 997 941 939 m 799 1142 q 777 1139 787 1140 q 760 1138 768 1138 q 801 1076 783 1109 q 835 1009 818 1044 q 869 1010 853 1009 q 903 1013 885 1011 q 855 1081 882 1049 q 799 1142 828 1113 m 681 1211 q 747 1154 725 1181 q 779 1155 758 1155 q 732 1187 764 1171 q 681 1211 700 1204 m 313 1157 q 380 1204 341 1181 q 285 1159 338 1188 q 313 1157 305 1159 m 195 1015 q 293 1140 230 1080 q 294 1141 293 1140 q 295 1144 295 1142 q 279 1145 287 1144 q 264 1146 270 1146 q 197 1094 239 1128 q 129 1020 160 1059 q 195 1015 152 1019 m 135 862 q 187 999 154 941 q 153 1001 170 999 q 120 1005 137 1003 q 75 930 95 968 q 61 897 68 912 q 48 866 54 882 q 91 863 69 864 q 135 862 112 862 m 114 704 q 131 847 116 774 q 87 848 108 847 q 44 851 66 849 q 21 704 21 770 l 114 704 m 131 546 q 118 616 122 581 q 114 689 114 652 l 21 689 q 44 540 23 611 q 87 543 66 542 q 131 546 108 544 m 187 394 q 135 530 150 461 q 91 527 112 529 q 48 525 69 525 q 120 388 75 448 q 187 394 141 390 m 295 249 q 195 378 237 299 q 161 374 177 376 q 129 372 145 372 q 262 245 181 303 q 295 249 282 249 m 313 233 q 285 231 293 233 q 380 187 338 201 q 313 233 341 208 m 804 233 q 735 187 764 201 q 831 231 781 203 q 804 233 822 233 m 922 378 q 904 349 912 363 q 887 322 895 336 q 855 285 870 303 q 822 249 839 266 q 853 247 831 247 q 986 372 928 295 q 953 374 968 372 q 922 378 938 376 m 982 530 q 930 394 963 461 q 997 386 972 390 q 1067 525 1044 453 q 1023 527 1044 525 q 982 530 1003 529 m 1001 689 q 986 546 1001 619 q 1028 542 1007 544 q 1073 540 1049 540 q 1094 689 1094 615 l 1001 689 m 984 847 q 1001 704 1001 774 l 1094 704 q 1073 851 1094 774 q 1028 848 1049 849 q 984 847 1007 847 m 930 999 q 982 862 965 928 q 1022 863 1001 862 q 1067 866 1044 864 q 997 1005 1040 941 q 930 999 951 1001 m 820 1144 q 874 1083 849 1117 q 920 1015 899 1049 q 952 1017 936 1015 q 986 1020 968 1019 q 853 1146 928 1096 q 835 1145 843 1146 q 820 1144 828 1144 m 802 1157 q 829 1159 812 1159 q 735 1204 783 1184 q 802 1157 766 1186 m 594 1227 q 613 1188 606 1209 q 627 1150 621 1167 q 669 1152 656 1150 q 637 1193 656 1171 q 594 1227 617 1215 z "}}}
